<?xml version="1.0" standalone="no"?>
<!DOCTYPE svg PUBLIC "-//W3C//DTD SVG 1.1//EN" "http://www.w3.org/Graphics/SVG/1.1/DTD/svg11.dtd" >
<svg xmlns="http://www.w3.org/2000/svg" xmlns:xlink="http://www.w3.org/1999/xlink" version="1.1">
<metadata></metadata>
<defs>
<font id="exo_2regular" horiz-adv-x="570" >
<font-face units-per-em="1000" ascent="800" descent="-200" />
<missing-glyph horiz-adv-x="223" />
<glyph unicode="&#xfb01;" horiz-adv-x="606" d="M28 420v62l93 5h329v-67h-422zM116 0v564q0 49 14 83t45 52t83 18q21 0 55 -1.5t59 -5.5v-63h-84q-48 0 -67.5 -20.5t-19.5 -71.5v-555h-85zM436 611v57q0 26 25 26h40q26 0 26 -26v-57q0 -26 -26 -26h-40q-25 0 -25 26zM440 0v487h84v-487h-84z" />
<glyph unicode="&#xfb02;" horiz-adv-x="668" d="M28 420v62l92 5h226v-67h-318zM115 0v564q0 49 14 83.5t45 52.5t83 17h42.5t59 -1t65.5 -2t62.5 -3.5t49.5 -5.5v-581q0 -33 17 -49.5t49 -16.5h47l10 -54q-9 -4 -25.5 -7t-34 -4.5t-29.5 -1.5q-55 0 -87 30t-32 84v543h-164q-48 1 -67 -20t-19 -73v-555h-86z" />
<glyph horiz-adv-x="0" />
<glyph horiz-adv-x="333" />
<glyph unicode="&#xd;" horiz-adv-x="223" />
<glyph unicode=" "  horiz-adv-x="223" />
<glyph unicode="&#x09;" horiz-adv-x="223" />
<glyph unicode="&#xa0;" horiz-adv-x="223" />
<glyph unicode="!" horiz-adv-x="273" d="M94 389v306h85v-306l-8 -178h-68zM95 32v54q0 18 7 25t24 7h22q17 0 24.5 -7t7.5 -25v-54q0 -18 -7.5 -25t-24.5 -7h-22q-17 0 -24 7t-7 25z" />
<glyph unicode="&#x22;" horiz-adv-x="353" d="M70 690h70l-6 -215h-59zM214 690h69l-5 -215h-58z" />
<glyph unicode="#" horiz-adv-x="685" d="M44 213l11 55h543l-11 -55h-543zM86 448l11 55h543l-11 -55h-543zM123 0l120 690h68l-120 -690h-68zM374 0l120 690h68l-120 -690h-68z" />
<glyph unicode="$" horiz-adv-x="564" d="M57 520q0 60 13.5 96.5t41 55t70 24.5t99.5 6q49 -1 101 -5t104 -15l-6 -64q-43 2 -95 3.5t-100 1.5q-37 0 -63.5 -2.5t-43.5 -12t-24.5 -31t-7.5 -59.5q0 -57 21 -79.5t67 -33.5l139 -35q80 -19 110 -66.5t30 -127.5q0 -60 -13.5 -97t-41.5 -56.5t-72 -27t-105 -7.5 q-34 0 -88.5 3t-125.5 16l6 67q59 -1 95 -2.5t62 -1.5h54q53 0 83.5 8t43 31t12.5 69q0 40 -9 62t-28 33.5t-50 18.5l-142 36q-75 19 -106 66t-31 126zM224 -127l37 480l45 -2l-36 -478h-46zM266 353l34 446h45l-33 -448z" />
<glyph unicode="%" horiz-adv-x="894" d="M47 498q0 74 15 119t50.5 65.5t94.5 20.5q60 0 95.5 -20.5t50.5 -65.5t15 -119q0 -73 -15 -118t-50.5 -66t-95.5 -21q-59 0 -94.5 21t-50.5 66t-15 118zM112 498q0 -56 9 -89t29.5 -47.5t56.5 -14.5q37 0 57.5 14.5t29 47.5t8.5 89t-8.5 89t-29 47.5t-57.5 14.5 q-36 0 -56.5 -14.5t-29.5 -47.5t-9 -89zM192 0l447 690h60l-447 -690h-60zM526 196q0 73 15 117.5t50.5 65.5t94.5 21q60 0 95 -21t50 -65.5t15 -117.5t-15 -118.5t-50 -66t-95 -20.5q-59 0 -94.5 20.5t-50.5 66t-15 118.5zM591 196q0 -56 8 -89.5t29 -48t57 -14.5 q37 0 57.5 14.5t29.5 48t9 89.5t-9 89t-29.5 47t-57.5 14q-36 0 -57 -14t-29 -47t-8 -89z" />
<glyph unicode="&#x26;" horiz-adv-x="772" d="M67 175q0 79 29.5 126.5t105.5 54.5v4q-63 6 -89 46.5t-26 114.5q0 60 15 96t47 53.5t81 23.5t118 6q32 0 73 -1.5t86 -8.5l-10 -65q-10 1 -28 1.5t-40 1t-44 0.5h-40q-63 0 -100 -8.5t-53 -33.5t-16 -77q0 -47 12.5 -72.5t42 -35.5t79.5 -10h393l-1 -67h-396 q-54 0 -86.5 -12t-46.5 -41t-14 -82q0 -47 12 -74t40.5 -38t77.5 -11q74 1 126 23t92 68l14 -54q-32 -42 -68 -67t-80.5 -35.5t-103.5 -10.5q-72 0 -116.5 17.5t-65 57.5t-20.5 110zM497 105v257l9 157h71v-388q0 -35 15 -50t49 -15h74l10 -62q-15 -4 -35 -7t-39 -4.5 t-32 -1.5q-60 0 -91 30t-31 84z" />
<glyph unicode="'" horiz-adv-x="209" d="M70 690h70l-6 -215h-59z" />
<glyph unicode="(" horiz-adv-x="359" d="M54 312q0 194 63.5 310t199.5 168l11 -41q-100 -49 -145.5 -157.5t-45.5 -278.5q0 -111 20 -197t62 -145.5t109 -94.5l-11 -41q-136 53 -199.5 168.5t-63.5 308.5z" />
<glyph unicode=")" horiz-adv-x="359" d="M32 -124q67 35 108.5 94.5t61.5 145.5t20 197q0 170 -45 278.5t-145 157.5l10 41q137 -52 200.5 -168t63.5 -310q0 -193 -63.5 -308.5t-200.5 -168.5z" />
<glyph unicode="*" horiz-adv-x="450" d="M54 552l17 49l119 -46l-1 -22l-11 -14zM106 402l100 128l-7 161h52l-8 -161l100 -129l-41 -30l-77 123l-77 -122zM260 533v22l120 46l17 -50l-125 -32z" />
<glyph unicode="+" horiz-adv-x="551" d="M56 267v64h438v-64h-438zM242 507h66l-1 -417h-64z" />
<glyph unicode="," horiz-adv-x="228" d="M69 28v58q1 18 9 25t24 7h25q18 0 24.5 -7t6.5 -25v-64q0 -28 -4.5 -55t-12 -51.5t-18.5 -47.5l-40 12q5 31 7.5 57t2.5 63q-24 0 -24 28z" />
<glyph unicode="-" horiz-adv-x="449" d="M72 220v65h305v-65h-305z" />
<glyph unicode="." horiz-adv-x="229" d="M68 32v54q0 18 7.5 25t24.5 7h28q18 0 25 -7t7 -25v-54q0 -18 -7 -25t-25 -7h-28q-17 0 -24.5 7t-7.5 25z" />
<glyph unicode="/" horiz-adv-x="517" d="M27 -66l393 756h70l-393 -756h-70z" />
<glyph unicode="0" horiz-adv-x="603" d="M64 345q0 126 22.5 205t74.5 116t140 37q89 0 141 -37t74.5 -116t22.5 -205t-22.5 -205t-74.5 -116t-141 -37q-88 0 -140 37t-74.5 116t-22.5 205zM150 345q0 -76 7.5 -130t25 -87t46.5 -48.5t72 -15.5t72.5 15.5t47 48.5t25 87t7.5 130q0 77 -7.5 130.5t-25 86.5 t-47 48.5t-72.5 15.5t-72 -15.5t-46.5 -48.5t-25 -86.5t-7.5 -130.5z" />
<glyph unicode="1" horiz-adv-x="398" d="M22 619l176 71h88v-690h-88v547q0 15 1 30t4 30l-169 -53z" />
<glyph unicode="2" horiz-adv-x="562" d="M55 0v55q0 11 3 20.5t10 17.5l200 226q66 71 97 126t29 104q-1 34 -16.5 49.5t-44 20.5t-68.5 5q-32 0 -61 -1t-61.5 -4.5t-75.5 -10.5l-6 68q47 11 82.5 16.5t66 7.5t61.5 2q66 0 113.5 -11t73 -43t25.5 -95q0 -43 -11.5 -81t-38.5 -78.5t-73 -91.5l-198 -221 q26 2 55.5 3t56.5 1h234v-85h-453z" />
<glyph unicode="3" horiz-adv-x="556" d="M52 5l6 71q34 -3 65.5 -5.5t62.5 -3.5t63 -1q56 0 89.5 12.5t49 42.5t15.5 80q0 38 -10.5 66.5t-40 44.5t-86.5 16h-128v69h128q41 0 65.5 11t36.5 28.5t15.5 40t3.5 46.5q-1 44 -14 65.5t-43.5 29t-83.5 7.5q-49 0 -94.5 -2.5t-80.5 -5.5l-7 68q51 9 98.5 13.5t95.5 4.5 q76 0 122.5 -14.5t68.5 -49.5t22 -96q0 -44 -9 -80.5t-30.5 -61t-61.5 -32.5v-4q68 -11 93.5 -56.5t26.5 -116.5q1 -70 -20 -115.5t-69 -67.5t-130 -22q-55 0 -110.5 5.5t-108.5 12.5z" />
<glyph unicode="4" horiz-adv-x="615" d="M41.5 226q-5.5 25 5.5 50l196 414h87l-193 -408q-9 -20 -0.5 -30.5t25.5 -10.5h409v-63l-92 -9h-366q-28 0 -47 16t-24.5 41zM399 0v444l15 114h68v-558h-83z" />
<glyph unicode="5" horiz-adv-x="536" d="M52 13l10 71q47 -8 94 -13t81 -5q66 0 99 16.5t45 48t13 76.5q1 48 -11.5 75.5t-40 41t-73 19t-111.5 9.5l-46 3q-15 2 -24.5 12.5t-8.5 26.5l16 296h365l-4 -75h-290l-10 -188l74 -6q68 -5 115.5 -18t77.5 -38t43.5 -63.5t13.5 -94.5q0 -42 -8.5 -81t-32 -70 t-67.5 -49.5t-115 -18.5q-41 0 -95 6t-110 19z" />
<glyph unicode="6" horiz-adv-x="572" d="M66 328q0 122 16.5 196t49.5 112.5t83.5 52t118.5 13.5q21 0 59 -2t80 -13l-8 -64q-22 2 -40.5 3t-39.5 1h-51q-51 0 -86 -11t-56 -42t-30 -91t-9 -158q0 -75 4 -126t18.5 -80.5t44 -42.5t80.5 -13q59 0 87.5 18.5t37 54.5t8.5 87q0 57 -10.5 91t-38.5 49.5t-79 15.5 q-33 0 -61 -8t-57 -28.5t-67 -57.5l-4 44q33 47 63 73.5t65.5 37t83.5 10.5q73 0 114 -22t58 -71.5t17 -133.5q0 -53 -8 -96.5t-31 -74.5t-66 -47.5t-113 -16.5q-73 0 -119 16.5t-70.5 55.5t-34 104.5t-9.5 163.5z" />
<glyph unicode="7" horiz-adv-x="512" d="M39 690h390q21 0 33 -7.5t15.5 -21t-2.5 -32.5l-215 -629h-88l194 564q5 14 10 26.5t11 24.5h-344z" />
<glyph unicode="8" horiz-adv-x="607" d="M69 172q0 54 10.5 93.5t35.5 63t68 27.5v4q-35 4 -57 24.5t-32 54.5t-10 79q0 47 10 81.5t34.5 56.5t67 33t108.5 11t108.5 -11t67 -33t34 -56.5t9.5 -81.5q0 -45 -10 -79t-31.5 -54.5t-56.5 -24.5v-4q44 -4 68.5 -27.5t34.5 -63t10 -93.5q0 -63 -19 -103.5t-69.5 -59.5 t-145.5 -19q-93 0 -144 19t-71 59.5t-20 103.5zM152 190q0 -46 12.5 -73.5t46 -39t94.5 -11.5t93 11.5t44 39t12 73.5q0 41 -6.5 67t-22.5 40.5t-45 20t-74 5.5q-47 0 -77 -6t-47 -20.5t-23.5 -40.5t-6.5 -66zM165 510q0 -47 11.5 -72.5t42 -35t87.5 -9.5q58 0 87.5 10 t39.5 35.5t10 71.5q0 45 -10.5 71t-40.5 37t-87 11t-87 -11t-41.5 -37t-11.5 -71z" />
<glyph unicode="9" horiz-adv-x="572" d="M55 465q0 79 20.5 131.5t69 79t131.5 26.5q75 0 120.5 -17.5t68.5 -57.5t30.5 -107t7.5 -167q0 -116 -15 -188t-46.5 -110.5t-82.5 -52.5t-123 -14q-23 0 -62.5 2t-86.5 13l8 65q24 -2 43 -3t41.5 -1h56.5q52 0 87 12t56 43.5t30 88.5t9 147q0 79 -3.5 131.5t-16.5 83.5 t-42 44t-81 13q-57 0 -86.5 -19t-39.5 -55t-10 -88q0 -50 10.5 -84.5t38.5 -52.5t77 -18q33 0 60.5 8.5t56.5 29t67 56.5l4 -43q-32 -47 -62.5 -73.5t-65.5 -37t-83 -10.5q-71 0 -112 29t-58 80t-17 116z" />
<glyph unicode=":" horiz-adv-x="236" d="M69 32v54q0 18 7.5 25t24.5 7h28q18 0 25 -7t7 -25v-54q0 -18 -7 -25t-25 -7h-28q-17 0 -24.5 7t-7.5 25zM69 354v54q0 18 7.5 25t24.5 7h28q18 0 25 -7t7 -25v-54q0 -18 -7 -25t-25 -7h-28q-17 0 -24.5 7t-7.5 25z" />
<glyph unicode=";" horiz-adv-x="237" d="M73 354v54q0 18 7.5 25t24.5 7h28q18 0 25 -7t7 -25v-54q0 -18 -7 -25t-25 -7h-28q-17 0 -24.5 7t-7.5 25zM74 28v58q1 18 9 25t24 7h25q18 0 24.5 -7t6.5 -25v-64q0 -28 -4.5 -55t-12 -51.5t-18.5 -47.5l-40 12q5 31 7.5 57t2.5 63q-24 0 -24 28z" />
<glyph unicode="&#x3c;" horiz-adv-x="530" d="M53 264v68l406 174v-68l-332 -140l332 -137v-68z" />
<glyph unicode="=" horiz-adv-x="585" d="M74 155v64h438v-64h-438zM74 367v63h438v-63h-438z" />
<glyph unicode="&#x3e;" horiz-adv-x="530" d="M71 93v68l332 137l-332 140v68l406 -174v-68z" />
<glyph unicode="?" horiz-adv-x="505" d="M40 691q26 5 47 8.5t44 6.5t53.5 4.5t75.5 1.5q101 0 151.5 -37.5t50.5 -117.5q0 -45 -18 -77.5t-44.5 -59.5t-53 -55.5t-45.5 -65t-21 -88.5h-73q-1 55 15 95t40.5 70t49.5 55.5t42 51.5t18 59q2 50 -29.5 74t-100.5 24q-49 0 -80.5 -1t-57 -3.5t-59.5 -5.5zM201 32v54 q0 18 7 25t24 7h23q17 0 24 -7t7 -25v-54q0 -18 -7 -25t-24 -7h-23q-17 0 -24 7t-7 25z" />
<glyph unicode="@" horiz-adv-x="718" d="M75 266q0 84 5 141t20.5 92t46 53.5t80.5 25t125 7.5h143q72 0 111.5 -32.5t39.5 -109.5v-311h-64l-8 75q-18 -18 -49 -37.5t-69.5 -32.5t-80.5 -13q-39 0 -68.5 13.5t-46 40t-16.5 65.5v51q0 48 29 75.5t86 27.5h207v43q0 40 -18 57t-68 17h-128q-65 0 -104 -6t-59 -29 t-26.5 -73.5t-6.5 -139.5q0 -73 4.5 -120.5t17.5 -74.5t38 -39t66.5 -15t102.5 -3h258v-64q-64 -4 -128 -6t-129 -2q-84 -1 -140 5.5t-90.5 25t-51.5 54.5t-23 94.5t-6 144.5zM324 258q0 -36 17 -51t49 -15q29 0 61 8t62 22.5t53 35.5v87l-178 -4q-35 -1 -49.5 -14.5 t-14.5 -42.5v-26z" />
<glyph unicode="A" horiz-adv-x="622" d="M10 0l222 666q3 11 12 17.5t21 6.5h92q12 0 21 -6.5t12 -17.5l222 -666h-91l-179 566q-4 14 -8.5 28.5t-8.5 27.5h-28q-4 -13 -8 -27.5t-9 -28.5l-179 -566h-91zM135 216v76h350v-76h-350z" />
<glyph unicode="B" horiz-adv-x="620" d="M87 0l14 70q22 -1 83.5 -2t143.5 -1q55 0 86.5 9.5t45 35.5t13.5 75q0 54 -14 83t-47 41t-90 13h-222v67h221q50 1 79.5 10.5t42.5 35t13 71.5q0 47 -14 72t-46.5 34t-88.5 9h-88t-68.5 -0.5t-49.5 -2.5l-14 70q35 4 66.5 5.5t69 2t88.5 0.5q85 0 135 -15.5t72.5 -54.5 t22.5 -110q0 -74 -27.5 -113t-89.5 -45v-4q77 -7 107.5 -54t30.5 -130q0 -71 -22 -110t-70.5 -54.5t-127.5 -15.5q-59 0 -101.5 0.5t-78.5 2.5t-75 5zM87 0v690h86v-690h-86z" />
<glyph unicode="C" d="M61 345q0 132 26.5 210t86 112.5t158.5 34.5q44 0 75.5 -2t58 -6.5t54.5 -11.5l-9 -67q-30 3 -55.5 5t-54.5 3t-69 1q-67 0 -106 -26t-55.5 -87t-16.5 -166t16.5 -166t55.5 -87t106 -26q64 0 107.5 2.5t85.5 8.5l9 -66q-43 -12 -88.5 -17.5t-113.5 -5.5 q-99 0 -158.5 34.5t-86 112.5t-26.5 210z" />
<glyph unicode="D" horiz-adv-x="664" d="M87 0l38 72q42 -1 93.5 -2.5t114.5 -1.5q66 0 105 25.5t55.5 86t16.5 165.5t-16.5 165.5t-55.5 86.5t-105 26q-62 0 -111.5 -1t-96.5 -2l-38 70q54 4 114.5 6.5t131.5 2.5q74 0 125.5 -18t83 -59t46 -109t14.5 -168t-14.5 -168t-46 -109t-83 -59t-125.5 -18 q-71 0 -131.5 2.5t-114.5 6.5zM87 0v690h88v-690h-88z" />
<glyph unicode="E" horiz-adv-x="560" d="M81 119v452q1 56 36.5 88t96.5 32h100.5t100 -1.5t95.5 -4.5l-4 -69h-277q-31 0 -45.5 -15.5t-14.5 -50.5v-410q0 -35 14.5 -51t45.5 -16h277l4 -68q-46 -3 -95.5 -4t-100 -1.5t-100.5 -0.5q-61 0 -96.5 32.5t-36.5 87.5zM99 329v71h368v-71h-368z" />
<glyph unicode="F" horiz-adv-x="539" d="M85 0v567q0 59 36 91.5t97 32.5q48 0 97 -0.5t97 -1.5t92 -5l-5 -68h-259q-35 0 -51 -15.5t-16 -50.5v-550h-88zM102 319v71h359v-71h-359z" />
<glyph unicode="G" horiz-adv-x="628" d="M62 347q0 137 27.5 214.5t91 109.5t169.5 32q35 0 68 -2t64 -6.5t60 -12.5l-9 -66q-31 3 -62.5 5t-60.5 2.5t-55 0.5q-56 0 -94.5 -10.5t-61.5 -40.5t-33.5 -86t-10.5 -146q0 -102 14 -162.5t47 -87.5t88 -27q38 0 69.5 11t59 28.5t53.5 36.5l12 -54q-18 -21 -49.5 -44 t-73.5 -39t-95 -16q-77 0 -125.5 38.5t-70.5 118t-22 203.5zM474 122v277h86v-399h-64l-14 102z" />
<glyph unicode="H" horiz-adv-x="668" d="M87 0v690h88v-690h-88zM167 331v76h337v-76h-337zM493 0v690h88v-690h-88z" />
<glyph unicode="I" horiz-adv-x="262" d="M87 0v690h88v-690h-88z" />
<glyph unicode="J" horiz-adv-x="340" d="M30 4l10 62h50q78 0 78 76v548h88v-545q0 -76 -34.5 -115t-99.5 -39q-13 0 -30.5 1.5t-34 4.5t-27.5 7z" />
<glyph unicode="K" horiz-adv-x="591" d="M87 0v690h87v-216q0 -30 -3 -57t-9 -56q5 -28 8.5 -56t3.5 -54v-251h-87zM143 324v71h133v-71h-133zM228 361l234 329h96l-201 -286q-9 -13 -17.5 -22.5t-20.5 -21.5v-2q13 -12 24 -24t19 -24l210 -310h-99z" />
<glyph unicode="L" horiz-adv-x="514" d="M85 129v561h87v-550q0 -34 16.5 -50t50.5 -16h249l4 -68q-65 -5 -132.5 -6t-134.5 -1q-76 0 -108 37t-32 93z" />
<glyph unicode="M" horiz-adv-x="877" d="M73 0l27 653q2 37 37 37h100q28 0 37 -30l129 -421q8 -23 13.5 -46t12.5 -47h18q7 24 13 47t13 48l129 419q8 30 38 30h99q36 0 36 -37l29 -653h-88l-25 617h-21l-154 -509q-8 -30 -38 -30h-79q-31 0 -40 30l-154 509h-20l-24 -617h-88z" />
<glyph unicode="N" horiz-adv-x="705" d="M87 0v655q0 35 35 35h83q15 0 24 -7t15 -21l226 -477q11 -21 23.5 -47.5t23.5 -52.5h17q-1 27 -2 53t-1 52v500h87v-655q0 -35 -34 -35h-86q-15 0 -24 7t-15 21l-233 489q-9 20 -21 45t-18 46h-16q2 -22 3 -45t1 -46v-517h-88z" />
<glyph unicode="O" horiz-adv-x="668" d="M61 345q0 101 14.5 170t46.5 110.5t84.5 59.5t127.5 18t127.5 -18t84 -59.5t46 -110.5t14.5 -170t-14.5 -170t-46 -110.5t-84 -59.5t-127.5 -18t-127.5 18t-84.5 59.5t-46.5 110.5t-14.5 170zM154 345q0 -105 16.5 -166t56 -87t107.5 -26t107.5 26t56 87t16.5 166 q0 106 -16.5 166.5t-56 86.5t-107.5 26t-107.5 -26t-56 -86.5t-16.5 -166.5z" />
<glyph unicode="P" horiz-adv-x="590" d="M87 0v690h88v-690h-88zM87 690q38 4 71 6t72 2.5t94 0.5q83 0 131.5 -19t69.5 -65.5t21 -131.5t-20.5 -132t-67 -65.5t-124.5 -18.5q-42 0 -80.5 2t-70.5 5.5t-54.5 7.5t-31.5 7l3 54h110h113q50 1 79.5 12.5t42 42t12.5 85.5q0 56 -12.5 86t-42 42t-79.5 12 q-82 0 -141.5 -1t-80.5 -3z" />
<glyph unicode="Q" horiz-adv-x="669" d="M62 345q0 101 14.5 170t46.5 110.5t84 59.5t128 18q75 0 127.5 -18t84 -59.5t46 -110.5t14.5 -170t-14.5 -170t-46 -110.5t-84 -59.5t-127.5 -18q-76 0 -128 18t-84 59.5t-46.5 110.5t-14.5 170zM155 345q0 -105 16.5 -166t56 -87t107.5 -26t107 26t56 87t17 166 q0 106 -17 166.5t-56 86.5t-107 26t-107.5 -26t-56 -86.5t-16.5 -166.5zM269 -96l25 53q59 -25 125 -42t140 -28l-28 -88q-78 16 -143 44.5t-119 60.5z" />
<glyph unicode="R" horiz-adv-x="618" d="M87 0v690h87v-690h-87zM87 690q38 4 71 6t72.5 2.5t94.5 0.5q80 0 129 -17.5t71.5 -60.5t22.5 -121q0 -56 -13 -93.5t-40.5 -58t-73.5 -26.5v-5q17 -4 33.5 -16.5t30.5 -33t21 -49.5l67 -218h-94l-61 216q-13 39 -35 55.5t-57 16.5q-61 0 -106 0.5t-75 1.5t-48 1l3 73 h223q51 1 80.5 12t42.5 39.5t13 79.5t-13 78.5t-42.5 38.5t-80.5 11q-82 0 -141.5 -1t-80.5 -1z" />
<glyph unicode="S" horiz-adv-x="561" d="M55 520q0 60 13.5 96.5t41 55t69.5 24.5t100 6q49 -1 101 -5t104 -15l-6 -64q-43 2 -95 3.5t-100 1.5q-37 0 -63.5 -2.5t-43.5 -12t-24.5 -31t-7.5 -59.5q0 -57 20.5 -79.5t66.5 -33.5l140 -35q80 -19 109.5 -66.5t29.5 -127.5q0 -60 -13.5 -97t-41.5 -56.5t-72 -27 t-104 -7.5q-34 0 -88.5 3t-125.5 16l6 65q59 -2 95 -3.5t62 -1.5h54q53 0 83.5 8t43 32t12.5 71q0 40 -9 62t-28.5 33.5t-49.5 18.5l-143 36q-75 19 -105.5 66t-30.5 126z" />
<glyph unicode="T" horiz-adv-x="581" d="M24 612v78h533v-78h-533zM246 0v690h88v-690h-88z" />
<glyph unicode="U" horiz-adv-x="666" d="M82 264v426h88v-426q0 -74 15.5 -117.5t51.5 -62t96 -18.5t95.5 18.5t51.5 62t16 117.5v426h88v-426q0 -100 -24 -161t-78 -88.5t-145 -27.5q-93 0 -149 27.5t-81 88.5t-25 161z" />
<glyph unicode="V" horiz-adv-x="609" d="M17 690h91l163 -547q5 -19 10.5 -37.5t9.5 -37.5h27l10 38t11 38l162 546h91l-209 -665q-4 -10 -13 -17.5t-21 -7.5h-89q-13 0 -22 7.5t-12 17.5z" />
<glyph unicode="W" horiz-adv-x="948" d="M31 690h93l108 -538q4 -19 7 -40.5t7 -44.5h23q4 23 8 44t8 41l107 509q2 13 11.5 21t22.5 8h96q13 0 22 -8t12 -21l107 -509q5 -22 8.5 -43t5.5 -42h25q3 21 6 42.5t7 41.5l109 539h93l-140 -664q-3 -11 -12 -18.5t-23 -7.5h-100q-13 0 -22.5 7.5t-11.5 19.5l-108 519 q-4 20 -8 39.5t-8 38.5h-21q-4 -19 -7.5 -39t-7.5 -39l-107 -519q-3 -12 -12.5 -19.5t-22.5 -7.5h-101q-13 0 -22.5 7.5t-11.5 18.5z" />
<glyph unicode="X" horiz-adv-x="611" d="M25 0l194 357l-181 333h95l177 -333l-189 -357h-96zM252 324v68h106v-68h-106zM301 357l177 333h95l-182 -333l195 -357h-96z" />
<glyph unicode="Y" horiz-adv-x="569" d="M11 690h94l145 -291q9 -19 16.5 -39t14.5 -39h7q7 19 15 39t16 38l145 292h93l-233 -456h-79zM240 0v296h88v-296h-88z" />
<glyph unicode="Z" horiz-adv-x="566" d="M48 0v75h471v-75h-471zM48 75l368 541l96 -1l-367 -541zM54 615v75h458v-75h-458z" />
<glyph unicode="[" horiz-adv-x="329" d="M91 -111v825q0 24 15.5 39t38.5 15h143v-56h-102q-14 0 -14 -16v-789q0 -16 14 -16h102v-56h-143q-23 0 -38.5 13t-15.5 41z" />
<glyph unicode="\" horiz-adv-x="518" d="M27 690h71l393 -756h-71z" />
<glyph unicode="]" horiz-adv-x="329" d="M41 -109h101q15 0 15 16v789q0 16 -15 16h-101v56h142q24 0 39 -15t15 -39v-825q0 -24 -15 -39t-39 -15h-142v56z" />
<glyph unicode="^" horiz-adv-x="426" d="M30 390l153 210h61l152 -210l-34 -22l-144 174h-8l-145 -174z" />
<glyph unicode="_" horiz-adv-x="438" d="M0 0h438v-65h-438v65z" />
<glyph unicode="`" horiz-adv-x="315" d="M36 658l49 65l172 -146l-29 -39z" />
<glyph unicode="a" horiz-adv-x="549" d="M51 127v53q0 57 35.5 88.5t99.5 31.5h249l-1 -64l-233 -1q-35 -1 -49 -18.5t-14 -48.5v-31q0 -38 18 -55.5t58 -17.5q28 0 63.5 10.5t71.5 32.5t66 56v-63q-11 -14 -31.5 -32.5t-49 -36t-63 -29t-74.5 -11.5q-43 0 -76 15.5t-51.5 46t-18.5 74.5zM73 477q34 6 74.5 11 t82.5 8t78 3q54 0 91.5 -14.5t56.5 -48.5t19 -93v-343h-67l-13 106l-6 11v226q0 45 -20.5 64.5t-78.5 19.5q-38 0 -95.5 -4t-113.5 -9z" />
<glyph unicode="b" d="M76 23l68 58q27 -8 53.5 -13t52 -6.5t48.5 -1.5q47 1 75.5 18t41.5 57.5t13 109.5q0 67 -10 106.5t-35.5 56.5t-72.5 17q-40 0 -76 -21.5t-83 -58.5l-6 57q30 32 61.5 53.5t65.5 32.5t68 11q90 0 133 -58.5t43 -195.5q0 -63 -10.5 -111t-35 -80.5t-66 -49t-104.5 -16.5 q-25 0 -54 2t-59 6.5t-58.5 11t-52.5 15.5zM76 23v677h85v-182q0 -31 -1.5 -57t-7.5 -53l8 -14l1 -375z" />
<glyph unicode="c" horiz-adv-x="489" d="M54 244q0 94 23 150t74 80.5t135 24.5q22 0 49 -2t55.5 -7t52.5 -14l-11 -55q-33 3 -69.5 4.5t-62.5 1.5q-58 0 -92 -16t-49 -56t-15 -111t15 -111.5t49 -56.5t92 -16q15 0 39 1t51.5 3t52.5 6l9 -57q-37 -13 -80.5 -19t-86.5 -6q-84 0 -135 25t-73.5 81t-22.5 150z" />
<glyph unicode="d" horiz-adv-x="573" d="M56 245q0 95 20 150.5t61 79.5t103 24q48 0 95 -12.5t90 -38.5l-5 -53q-47 14 -83 22t-77 8q-42 0 -67.5 -14.5t-37.5 -53.5t-12 -111t11.5 -112t36.5 -56t64 -16q29 0 52.5 7.5t50 24.5t62.5 43l8 -60q-40 -37 -91 -63t-110 -26q-92 0 -131.5 65t-39.5 192zM409 92v334 l6 15q-4 28 -5 54t-1 55v150h85v-700h-66l-10 85z" />
<glyph unicode="e" horiz-adv-x="537" d="M54 245q0 96 23.5 151.5t73 79t127.5 23.5q110 0 159.5 -40t49.5 -123q0 -62 -27 -98q-28 -36 -89 -36h-284v66h262q33 0 43 22.5t10 49.5q-1 47 -28 67t-92 20q-53 0 -83.5 -15.5t-43 -54t-12.5 -107.5q0 -78 15.5 -119t49.5 -56t90 -15q39 0 85.5 3.5t83.5 8.5l9 -57 q-23 -9 -56.5 -15t-69 -9t-63.5 -3q-84 0 -135 25.5t-74.5 82t-23.5 149.5z" />
<glyph unicode="f" horiz-adv-x="380" d="M28 420v62l93 5h236v-67h-329zM116 0v574q0 46 14 77.5t45 48.5t83 17q16 0 41 -0.5t51 -2t45 -4.5l-7 -63h-100q-48 0 -67.5 -19t-19.5 -63v-565h-85z" />
<glyph unicode="g" horiz-adv-x="558" d="M41 -54q0 32 9.5 53.5t30 38.5t53.5 33l60 33l39 -14l-49 -37q-20 -15 -33.5 -29.5t-20 -31t-6.5 -39.5q0 -34 13 -52t46 -24.5t92 -6.5t91.5 7t45.5 25t13 51q0 25 -6.5 38t-24.5 20t-53 12l-175 24q-31 4 -49.5 20t-25.5 38q-5 15 -5 31q0 7 1 14q3 22 15 41.5t31 29.5 l49 -7q-17 -15 -23 -36q-2 -9 -2 -17q0 -12 5 -23q10 -18 41 -23l182 -29q69 -10 96 -43t27 -94q0 -57 -21.5 -90t-72.5 -47t-138 -14q-66 0 -111 7.5t-72.5 25t-39.5 45.5t-12 70zM62 343q0 55 19.5 89.5t65.5 50.5t124 16t123.5 -16t65 -50t19.5 -89q0 -53 -19.5 -87.5 t-65.5 -51t-124 -16.5t-123.5 16.5t-65 50.5t-19.5 87zM140 344q0 -48 28.5 -69t101.5 -21q74 0 102 21t28 69q0 49 -28 69.5t-102 20.5q-73 0 -101.5 -20.5t-28.5 -69.5zM372 487h164l-5 -47l-124 -10z" />
<glyph unicode="h" horiz-adv-x="581" d="M78 0v700h85l1 -193q0 -33 -2.5 -62t-7.5 -51l9 -15v-379h-85zM150 406q57 43 113 68t111 25q132 0 132 -134v-365h-86v341q0 49 -15.5 67.5t-53.5 18.5q-45 0 -90 -21t-107 -61z" />
<glyph unicode="i" horiz-adv-x="248" d="M78 611v57q0 26 26 26h40q26 0 26 -26v-57q0 -26 -26 -26h-40q-26 0 -26 26zM82 0v487h84v-487h-84z" />
<glyph unicode="j" horiz-adv-x="250" d="M27 -166q29 35 42.5 71t13.5 83v499h85v-499q0 -39 -11.5 -74.5t-32.5 -65t-50 -51.5zM80 611v57q0 26 26 26h40q25 0 25 -26v-57q0 -26 -25 -26h-40q-26 0 -26 26z" />
<glyph unicode="k" horiz-adv-x="509" d="M78 0v700h85l1 -311q0 -31 -2.5 -57.5t-7.5 -55.5q5 -28 7 -56t2 -54v-166h-85zM133 244v62h113v-62h-113zM200 279l177 208h99l-153 -179q-7 -9 -17 -18.5t-17 -14.5v-2q7 -5 17 -16.5t17 -22.5l169 -234h-99z" />
<glyph unicode="l" horiz-adv-x="297" d="M79 115v585h85l-1 -566q0 -32 17.5 -48.5t49.5 -16.5h47l10 -65q-9 -4 -25.5 -7t-34 -4.5t-29.5 -1.5q-54 0 -86.5 32t-32.5 92z" />
<glyph unicode="m" horiz-adv-x="876" d="M78 0v487h70l6 -93l9 -15v-379h-85zM147 405q53 47 103 70.5t102 23.5q62 0 95 -33.5t34 -100.5v-365h-82v341q0 47 -19 66.5t-57 19.5q-25 0 -48.5 -8t-52 -26t-69.5 -48zM467 405q53 47 103 70.5t101 23.5q63 0 96.5 -34t33.5 -100v-365h-84v341q-1 45 -18 65.5 t-58 20.5q-26 0 -49.5 -8.5t-51.5 -26.5t-68 -47z" />
<glyph unicode="n" horiz-adv-x="581" d="M78 0v487h72l7 -93l6 -15v-379h-85zM150 406q57 44 113 68.5t111 24.5q132 0 132 -134v-365h-85v341q0 49 -16 67.5t-54 18.5q-45 0 -90 -22t-107 -60z" />
<glyph unicode="o" horiz-adv-x="568" d="M55 243q0 93 22.5 149.5t73 81.5t133.5 25q84 0 134.5 -25t72.5 -81.5t22 -149.5t-22 -149.5t-72.5 -81.5t-134.5 -25q-83 0 -133.5 25t-73 81.5t-22.5 149.5zM144 243q0 -71 13 -111t43.5 -56.5t83.5 -16.5t84 16.5t44 56.5t13 111t-13 111t-44 56.5t-84 16.5 t-83.5 -16.5t-43.5 -56.5t-13 -111z" />
<glyph unicode="p" horiz-adv-x="580" d="M78 -201v688h70l9 -101l6 -13v-312l-4 -12q3 -28 3.5 -54t0.5 -55v-141h-85zM151 405q27 29 61 50t71.5 32.5t73.5 11.5q89 0 128 -65.5t39 -192.5q0 -94 -20 -149.5t-60.5 -79.5t-103.5 -24q-48 0 -94.5 13t-90.5 40l5 51q47 -13 83 -21.5t76 -8.5q43 0 68.5 15t37.5 54 t12 110q0 69 -11 109t-34.5 57.5t-62.5 17.5q-40 0 -79 -19t-91 -58z" />
<glyph unicode="q" d="M55 242q0 63 10.5 111t35.5 80.5t67 49t106 16.5q23 0 51 -2t58 -6.5t58.5 -11t52.5 -14.5l-69 -59q-26 8 -53 13t-52 7q-17 1 -32 1h-15q-48 -1 -77 -17.5t-41.5 -57.5t-12.5 -116q0 -89 22 -131.5t86 -42.5q46 0 83.5 19.5t85.5 52.5l11 -56q-31 -28 -65 -48.5 t-69.5 -31.5t-73.5 -11q-85 0 -126 61t-41 194zM408 -34q0 32 2 57.5t8 52.5l-9 14v378l85 -3v-666h-85z" />
<glyph unicode="r" horiz-adv-x="401" d="M78 0v487h66l11 -93l8 -15v-379h-85zM147 405q54 44 108.5 69t105.5 25h22l-10 -80h-28q-43 0 -86 -17.5t-105 -49.5z" />
<glyph unicode="s" horiz-adv-x="508" d="M50 365q0 57 20 86t62 39q38 9 96 9h12q32 0 68 -2t71.5 -5t65.5 -8l-7 -62q-46 2 -92.5 3.5t-92.5 1.5h-21q-30 0 -50 -2q-26 -3 -37.5 -16t-11.5 -44q0 -38 18 -50t53 -20l142 -32q58 -14 85.5 -43t27.5 -91q0 -60 -22.5 -90t-68.5 -40t-117 -10q-26 0 -77.5 2 t-113.5 12l6 62q24 -1 51 -2.5t56.5 -1.5h60.5q55 0 86 5t44 19.5t13 43.5q0 36 -21 48t-56 20l-140 32q-40 10 -64 26.5t-35 43t-11 66.5z" />
<glyph unicode="t" horiz-adv-x="381" d="M27 420v62l96 5h232v-67h-328zM115 123v508h85v-497q0 -35 15 -50t51 -15h74l10 -65q-16 -4 -37 -7t-41 -4.5t-32 -1.5q-61 0 -93 34t-32 98z" />
<glyph unicode="u" d="M75 121v366h85v-342q-1 -46 17 -65t60 -19q41 0 81.5 19.5t97.5 56.5l11 -59q-57 -45 -110.5 -68t-108.5 -23q-133 0 -133 134zM407 107v380h85v-487h-68l-8 92z" />
<glyph unicode="v" horiz-adv-x="530" d="M18 487h91l120 -341q8 -21 15 -43t14 -42h13q8 21 15.5 42.5t14.5 42.5l120 341h90l-178 -466q-4 -10 -11.5 -15.5t-18.5 -5.5h-77q-10 0 -18 5.5t-12 15.5z" />
<glyph unicode="w" horiz-adv-x="824" d="M25 487h88l101 -359q5 -18 9 -36.5t7 -36.5h13q5 18 9.5 36.5t8.5 36.5l81 332q2 12 10.5 19.5t21.5 7.5h77q12 0 20.5 -7.5t11.5 -20.5l80 -331q4 -18 8.5 -36t8.5 -37h13q5 19 8 36.5t9 36.5l101 359h88l-142 -463q-3 -11 -12 -17.5t-21 -6.5h-77q-12 0 -21.5 7.5 t-11.5 19.5l-80 331q-4 19 -7.5 38t-8.5 39h-12q-4 -20 -8.5 -39t-8.5 -38l-79 -331q-3 -12 -12 -19.5t-22 -7.5h-76q-12 0 -21 6.5t-12 17.5z" />
<glyph unicode="x" horiz-adv-x="528" d="M23 0l163 251l-151 236h92l147 -236l-158 -251h-93zM212 220v66h105v-66h-105zM254 251l147 236h92l-151 -236l163 -251h-92z" />
<glyph unicode="y" horiz-adv-x="529" d="M18 487h91l129 -363q5 -15 10 -29.5t8 -29.5h23l-28 -65h-26q-10 0 -18.5 6t-11.5 16zM94 -150q59 19 91 51t51 78l24 58q8 20 16 44t15 43l127 363h92l-195 -514q-12 -32 -30 -63t-43.5 -56.5t-60 -41.5t-79.5 -18z" />
<glyph unicode="z" horiz-adv-x="510" d="M49 0v69h412v-69h-412zM49 69l314 349l95 -1l-314 -349zM52 417v70h406v-70h-406z" />
<glyph unicode="{" horiz-adv-x="319" d="M46 297v62q24 8 36.5 13.5t17 19t4.5 44.5v199q0 47 17.5 78t55.5 45.5t99 9.5v-54q-52 0 -71 -19.5t-19 -65.5v-179q1 -41 -6.5 -65t-27 -37t-55.5 -20q37 -11 57 -25t28 -36t8 -57v-237q0 -45 19 -64.5t71 -19.5v-54q-61 -4 -99 10t-55.5 45t-17.5 78v256 q0 26 -6.5 38.5t-20 19.5t-35.5 15z" />
<glyph unicode="|" horiz-adv-x="246" d="M92 -169v950h62v-950h-62z" />
<glyph unicode="}" horiz-adv-x="320" d="M40 -111q53 0 71.5 19.5t18.5 64.5v237q1 35 9 57t28 36t56 25q-35 7 -54.5 20t-27 37t-7.5 65v179q0 46 -18.5 65.5t-71.5 19.5v54q62 5 99.5 -9.5t55 -45.5t17.5 -78v-199q0 -31 4.5 -44.5t17 -19t36.5 -13.5v-62q-22 -8 -36 -15t-20 -19.5t-6 -38.5v-256 q0 -47 -17.5 -78t-55 -45t-99.5 -10v54z" />
<glyph unicode="~" horiz-adv-x="525" d="M77 228q-5 42 4.5 68.5t28.5 39.5t44 12q26 -1 52.5 -9.5t53 -19t51.5 -19.5t49 -11q26 -3 35.5 10t9.5 44h44q7 -60 -15.5 -90t-61.5 -28q-30 2 -57.5 10t-53 18.5t-49.5 19.5t-46 11q-27 3 -36 -10.5t-9 -45.5h-44z" />
<glyph unicode="&#xa1;" horiz-adv-x="256" d="M86 104l8 178h68l9 -178v-300h-85v300zM86 406v55q0 18 7.5 25t24.5 7h22q17 0 24 -7t7 -25v-55q0 -17 -7 -24t-24 -7h-22q-17 0 -24.5 7t-7.5 24z" />
<glyph unicode="&#xa2;" horiz-adv-x="508" d="M54 349q0 94 22.5 150t73.5 81t135 25q22 0 49 -2.5t55.5 -7.5t52.5 -14l-11 -57q-33 5 -69.5 6.5t-62.5 1.5q-60 0 -95 -16t-50.5 -56t-15.5 -111t15.5 -111t50.5 -56.5t95 -16.5q15 0 39.5 1t52 3.5t51.5 6.5l9 -57q-37 -13 -80.5 -19t-85.5 -6q-84 0 -135 24.5 t-73.5 80.5t-22.5 150zM238 0l13 133h45l-13 -133h-45zM251 131l35 426h46l-35 -426h-46zM287 555l12 135h46l-13 -135h-45z" />
<glyph unicode="&#xa3;" horiz-adv-x="569" d="M56 391h375l-2 -56h-372zM62 0v75q52 26 67 75.5t11 112.5l-15 258q-3 59 9 95t37 54.5t62 25t83 6.5q20 0 48.5 -1t62 -3t68.5 -6l-5 -70q-20 1 -37 2t-35.5 1.5t-43 0.5h-60.5q-60 0 -83 -22.5t-20 -83.5l16 -257q2 -47 -4.5 -81.5t-22.5 -60.5t-45 -49q17 2 33.5 2.5 t33.5 0.5h296v-75h-456z" />
<glyph unicode="&#xa4;" horiz-adv-x="594" d="M66 163l89 89l40 -40l-89 -89zM69 542l37 38l83 -84l-37 -37zM100 351q0 55 26.5 99.5t71 71t98.5 26.5q55 0 99 -26.5t70.5 -71t26.5 -99.5q0 -54 -26.5 -98.5t-71 -71t-98.5 -26.5t-98.5 26.5t-71 71t-26.5 98.5zM152 352q0 -40 19.5 -73t52.5 -52t72 -19t71.5 19 t52 52t19.5 73t-19.5 73t-52 52.5t-71.5 19.5t-72 -19.5t-52.5 -52.5t-19.5 -73zM401 210l37 37l88 -87l-38 -37zM407 498l81 82l38 -38l-82 -81z" />
<glyph unicode="&#xa5;" horiz-adv-x="618" d="M36 690h91l145 -275q10 -18 18 -38.5t16 -39.5h7q8 19 16.5 39.5t16.5 37.5l144 276h92l-233 -435h-80zM91 210h440v-51h-439zM91 323h440v-52h-439zM265 0v317h88v-317h-88z" />
<glyph unicode="&#xa6;" horiz-adv-x="248" d="M93 -169v400h62v-400h-62zM93 381v400h62v-400h-62z" />
<glyph unicode="&#xa7;" horiz-adv-x="544" d="M62 575q0 54 23 81.5t67.5 37t107.5 9.5q31 0 69 -1.5t77 -4t71 -6.5l-6 -66q-29 2 -54.5 3t-56.5 1.5t-78 0.5q-39 1 -68 -2t-44.5 -15t-16.5 -40q-1 -36 18 -56t48 -37l162 -91q49 -26 71 -59.5t24.5 -77t-9.5 -98.5h-62q4 43 -1 73.5t-21 53.5t-47 41l-173 99 q-31 18 -54 38t-35 48t-12 68zM68 -150l7 67q34 -2 63.5 -3.5t60 -2t66.5 -1.5q39 0 67 3t44 15.5t16 42.5q2 36 -17 56.5t-47 36.5l-162 90q-49 26 -71.5 59t-25 76.5t8.5 98.5h62q-3 -43 1 -73.5t20.5 -52.5t47.5 -40l173 -98q31 -18 53.5 -38.5t35 -48.5t12.5 -69 q0 -58 -24.5 -86t-69 -36t-103.5 -8q-30 1 -67 2.5t-75.5 4t-75.5 5.5z" />
<glyph unicode="&#xa8;" horiz-adv-x="411" d="M80 614v55q0 24 23 24h29q23 0 23 -24v-55q0 -24 -23 -24h-29q-23 0 -23 24zM257 614v55q0 24 24 24h28q24 0 24 -24v-55q0 -24 -24 -24h-28q-24 0 -24 24z" />
<glyph unicode="&#xa9;" horiz-adv-x="836" d="M59 345q0 78 28 143.5t77 113.5t114 74.5t140 26.5t140 -26.5t114.5 -74.5t77 -113.5t27.5 -143.5t-27.5 -143.5t-77 -113.5t-114.5 -74.5t-140 -26.5t-140 26.5t-114 74.5t-77 113.5t-28 143.5zM106 345q0 -67 24.5 -124t67.5 -99.5t99.5 -65.5t120.5 -23q65 0 121.5 23 t99 65.5t67 99.5t24.5 124q0 68 -24.5 124.5t-67 99t-99 65.5t-121.5 23q-64 0 -120.5 -23t-99.5 -65.5t-67.5 -99t-24.5 -124.5zM228 347q0 81 19 129.5t62 70t114 21.5q47 0 76 -3t59 -11l-8 -48q-32 2 -58.5 2.5t-69.5 0.5q-48 0 -76 -15t-39.5 -50t-11.5 -97 q0 -61 11.5 -96.5t39.5 -50.5t76 -15q47 0 78 1t62 5l6 -49q-31 -7 -63.5 -11t-81.5 -4q-71 0 -114 21.5t-62 69.5t-19 129z" />
<glyph unicode="&#xaa;" horiz-adv-x="441" d="M64 353v38q0 38 24.5 59.5t68.5 21.5h182l-1 -35l-161 -10q-28 -1 -39 -12t-11 -30v-18q0 -25 14 -35.5t41 -10.5q24 0 50.5 9.5t50.5 25t40 31.5v-38q-8 -11 -23.5 -25t-36 -27.5t-46.5 -22t-55 -8.5q-44 0 -71 22t-27 65zM79 593l52 6.5t59.5 5.5t63.5 2q54 0 84 -23.5 t30 -84.5v-227h-51l-10 72l-3 8v148q0 24 -13.5 38.5t-49.5 14.5q-34 0 -75 -2.5t-80 -5.5z" />
<glyph unicode="&#xab;" horiz-adv-x="485" d="M44 241v20l160 198l45 -30l-126 -178l127 -182l-45 -30zM225 241v20l160 198l45 -30l-126 -178l127 -182l-45 -30z" />
<glyph unicode="&#xac;" horiz-adv-x="590" d="M74 265v65h438v-65h-438zM446 132v189h66v-189h-66z" />
<glyph unicode="&#xad;" horiz-adv-x="448" d="M72 220v65h305v-65h-305z" />
<glyph unicode="&#xae;" horiz-adv-x="553" d="M54 480q0 62 30 112t80.5 80t112.5 30t112 -30t80 -80t30 -112t-30 -112.5t-80 -80.5t-112 -30t-112.5 30t-80.5 80.5t-30 112.5zM85 480q0 -53 26 -97t69.5 -70t96.5 -26t96 26t69 70t26 97t-26 97t-69 70t-96 26t-96.5 -26t-69.5 -70t-26 -97zM177 351v259h40v-259h-40 zM177 610q26 2 48.5 2.5t60.5 0.5q55 0 79 -15.5t24 -59.5q0 -29 -13.5 -45t-45.5 -20v-2q12 -1 23 -10.5t16 -27.5l30 -82h-42l-28 80q-6 15 -16 21t-26 6h-68t-37 1l1 28h102q35 1 49.5 11t13.5 36q1 29 -13.5 38t-49.5 9h-64t-37 -1z" />
<glyph unicode="&#xaf;" horiz-adv-x="400" d="M61 609v63h278v-63h-278z" />
<glyph unicode="&#xb0;" horiz-adv-x="363" d="M52 576q0 35 17.5 63.5t47 46t65.5 17.5q35 0 64.5 -17t47 -46t17.5 -64t-17.5 -64t-47 -46.5t-64.5 -17.5t-65 17.5t-47.5 46.5t-17.5 64zM106 576q0 -21 10.5 -38.5t27.5 -27.5t38 -10t38 10t27 27.5t10 38.5q0 33 -22 54t-53 21t-53.5 -21t-22.5 -54z" />
<glyph unicode="&#xb1;" horiz-adv-x="588" d="M75 70v64h438v-64h-438zM75 327v64h438v-64h-438zM261 193v331h66l-1 -331h-65z" />
<glyph unicode="&#xb2;" horiz-adv-x="414" d="M57 359v36q0 8 2.5 15t8.5 13l125 124q27 26 44 47t26 40t9 37q1 29 -19.5 37t-55.5 8q-31 0 -60.5 -2t-70.5 -7l-4 51q46 10 80 12.5t58 2.5q48 0 80.5 -7.5t49 -28t16.5 -59.5q0 -34 -20.5 -68t-60.5 -75l-120 -119q18 2 32.5 2h32.5l153 -1l-1 -58h-305z" />
<glyph unicode="&#xb3;" horiz-adv-x="407" d="M56 363l5 50q23 -2 43 -3.5t40 -2t41 -0.5q52 0 72.5 16t20.5 57q0 18 -6 33t-23.5 24t-52.5 9h-85v50l85 1q35 0 50.5 10.5t20 26t3.5 30.5q0 32 -18 43t-68 11q-31 0 -62.5 -1.5t-54.5 -4.5l-4 49q33 6 66 9.5t65 3.5q78 0 110 -20.5t32 -73.5q0 -41 -15 -68.5 t-56 -35.5v-2q46 -7 63.5 -32.5t18.5 -69.5q2 -63 -32 -92t-114 -29q-37 0 -74.5 3.5t-70.5 8.5z" />
<glyph unicode="&#xb4;" horiz-adv-x="314" d="M49 584l172 147l49 -66l-192 -120z" />
<glyph unicode="&#xb5;" horiz-adv-x="577" d="M78 133v354h84v-333q0 -52 20.5 -70t60.5 -18q45 0 82.5 27t60 72t23.5 98l3 -161q-16 -31 -43 -57t-62.5 -41.5t-77.5 -15.5q-43 0 -77 16t-54 48t-20 81zM78 181l84 -97l-1 -160l-10 -125h-73v382zM409 118v369h85v-379q0 -16 2 -28t7.5 -18.5t18.5 -6.5h32l6 -51 q-19 -7 -38.5 -10.5t-37.5 -3.5q-35 0 -53.5 21.5t-18.5 65.5v25z" />
<glyph unicode="&#xb6;" horiz-adv-x="593" d="M40 450q0 93 30.5 148t98 79.5t177.5 24.5q31 0 73.5 -3.5t77.5 -13.5l-6 -51q-24 5 -55.5 7.5t-61.5 3.5t-52 1l-43 -446q-128 10 -183.5 68t-55.5 182zM269 -210v895h65v-895h-65zM432 0v685h65v-685h-65z" />
<glyph unicode="&#xb7;" horiz-adv-x="236" d="M72 231v54q0 18 7.5 25t24.5 7h28q18 0 25 -7t7 -25v-54q0 -18 -7 -25t-25 -7h-28q-17 0 -24.5 7t-7.5 25z" />
<glyph unicode="&#xb8;" horiz-adv-x="234" d="M34 -229l13 45q41 -1 66.5 18.5t26.5 50.5q1 18 -11 24.5t-48 7.5l9 40q39 4 63.5 -0.5t36.5 -19.5t11 -45q-1 -42 -23 -71.5t-59 -42.5t-85 -7z" />
<glyph unicode="&#xb9;" horiz-adv-x="294" d="M30 725l114 42h66v-408h-66v310q0 9 0.5 18.5t1.5 19.5l-108 -29z" />
<glyph unicode="&#xba;" horiz-adv-x="444" d="M59 435q0 95 36.5 133.5t126.5 38.5t126.5 -38.5t36.5 -133.5q0 -62 -16 -100t-51.5 -54.5t-95.5 -16.5q-90 0 -126.5 38.5t-36.5 132.5zM126 435q0 -68 21 -92.5t75 -24.5t74.5 24.5t20.5 92.5q0 69 -20.5 94t-74.5 25t-75 -25t-21 -94z" />
<glyph unicode="&#xbb;" horiz-adv-x="485" d="M53 69l45 -30l161 202v20l-160 198l-45 -30l126 -178zM235 69l45 -30l161 202v20l-160 198l-45 -30l126 -178z" />
<glyph unicode="&#xbc;" horiz-adv-x="863" d="M38 647l117 43h66v-414h-66v315q0 10 1 19.5t3 19.5l-113 -29zM137 0l447 690h61l-447 -690h-61zM475.5 114.5q-14.5 17.5 0.5 47.5l127 252h64l-122 -242q-4 -9 1 -15.5t16 -6.5h259v-47l-58 -6h-248q-25 0 -39.5 17.5zM710 0v267l12 68h51v-335h-63z" />
<glyph unicode="&#xbd;" horiz-adv-x="887" d="M38 647l117 43h66v-414h-66v315q0 10 1 19.5t3 19.5l-113 -29zM130 0l448 690h61l-447 -690h-62zM526 0v38q0 8 2 15t8 13l129 125q41 40 61.5 71t21.5 58q0 30 -22 37t-60 7q-32 0 -60.5 -1.5t-71.5 -6.5l-4 50q48 10 81.5 12.5t58.5 2.5q49 0 82.5 -7t50.5 -27.5 t17 -60.5q0 -34 -20 -68t-62 -76l-127 -124q19 2 34.5 2h34.5l158 -1l-1 -59h-311z" />
<glyph unicode="&#xbe;" horiz-adv-x="954" d="M56 277l4 50q24 -2 45 -3t41.5 -1.5t42.5 -0.5q54 0 76 16.5t22 58.5q0 19 -6.5 34t-25 24.5t-55.5 9.5l-86 2v45l86 3q36 1 53 11.5t21.5 26t4.5 30.5q0 34 -19.5 45.5t-72.5 11.5q-33 0 -64 -1t-55 -3l-4 49q35 5 67.5 7.5t65.5 2.5q83 0 115 -20.5t32 -74.5 q0 -41 -15.5 -69.5t-60.5 -35.5v-2q50 -7 68 -33.5t19 -70.5q2 -64 -32 -93.5t-118 -29.5q-37 0 -75.5 3.5t-73.5 7.5zM238 0l447 690h61l-447 -690h-61zM566.5 114.5q-14.5 17.5 0.5 47.5l127 252h64l-122 -242q-4 -9 1 -15.5t17 -6.5h258v-47l-57 -6h-249 q-25 0 -39.5 17.5zM799 0v267l11 68h51v-335h-62z" />
<glyph unicode="&#xbf;" horiz-adv-x="500" d="M41 -58q0 45 18 77.5t44.5 60t53 56t45.5 64.5t21 88h73q1 -55 -15 -95t-40.5 -69.5t-49.5 -55t-42 -52t-18 -60.5q-2 -49 29.5 -72.5t100.5 -23.5q50 0 81 1t57 3t59 5l5 -61q-26 -4 -47 -8t-44 -7t-53.5 -4.5t-75.5 -1.5q-100 0 -151 38t-51 117zM218 412v56q0 17 7 24 t25 7h21q18 0 25 -7t7 -24v-56q0 -17 -7 -24t-25 -7h-21q-18 0 -25 7t-7 24z" />
<glyph unicode="&#xc0;" horiz-adv-x="622" d="M10 0l222 666q3 11 12 17.5t21 6.5h92q12 0 21 -6.5t12 -17.5l222 -666h-91l-179 566q-4 14 -8.5 28.5t-8.5 27.5h-28q-4 -13 -8 -27.5t-9 -28.5l-179 -566h-91zM135 216v76h350v-76h-350zM148 841l49 65l172 -146l-29 -39z" />
<glyph unicode="&#xc1;" horiz-adv-x="622" d="M10 0l222 666q3 11 12 17.5t21 6.5h92q12 0 21 -6.5t12 -17.5l222 -666h-91l-179 566q-4 14 -8.5 28.5t-8.5 27.5h-28q-4 -13 -8 -27.5t-9 -28.5l-179 -566h-91zM135 216v76h350v-76h-350zM240 767l172 147l49 -66l-192 -120z" />
<glyph unicode="&#xc2;" horiz-adv-x="622" d="M10 0l222 666q3 11 12 17.5t21 6.5h92q12 0 21 -6.5t12 -17.5l222 -666h-91l-179 566q-4 14 -8.5 28.5t-8.5 27.5h-28q-4 -13 -8 -27.5t-9 -28.5l-179 -566h-91zM135 216v76h350v-76h-350zM149 762l132 127h61l133 -127l-30 -37l-129 97h-8l-130 -97z" />
<glyph unicode="&#xc3;" horiz-adv-x="622" d="M10 0l222 666q3 11 12 17.5t21 6.5h92q12 0 21 -6.5t12 -17.5l222 -666h-91l-179 566q-4 14 -8.5 28.5t-8.5 27.5h-28q-4 -13 -8 -27.5t-9 -28.5l-179 -566h-91zM135 216v76h350v-76h-350zM153 758q-4 40 5.5 66t29 38t43.5 10q23 -2 41.5 -9.5t35 -17t34 -17.5t38.5 -11 q29 -4 39 9t10 41h40q6 -56 -16.5 -85.5t-61.5 -26.5q-34 3 -58.5 16t-46 26t-46.5 15q-28 3 -37.5 -10.5t-9.5 -43.5h-40z" />
<glyph unicode="&#xc4;" horiz-adv-x="622" d="M10 0l222 666q3 11 12 17.5t21 6.5h92q12 0 21 -6.5t12 -17.5l222 -666h-91l-179 566q-4 14 -8.5 28.5t-8.5 27.5h-28q-4 -13 -8 -27.5t-9 -28.5l-179 -566h-91zM135 216v76h350v-76h-350zM185 784v55q0 24 23 24h29q23 0 23 -24v-55q0 -24 -23 -24h-29q-23 0 -23 24z M362 784v55q0 24 24 24h28q24 0 24 -24v-55q0 -24 -24 -24h-28q-24 0 -24 24z" />
<glyph unicode="&#xc5;" horiz-adv-x="622" d="M10 0l222 666q3 11 12 17.5t21 6.5h92q12 0 21 -6.5t12 -17.5l222 -666h-91l-179 566q-4 14 -8.5 28.5t-8.5 27.5h-28q-4 -13 -8 -27.5t-9 -28.5l-179 -566h-91zM135 216v76h350v-76h-350zM204 819q0 30 14.5 53.5t39 37.5t53.5 14t53.5 -14t39 -37.5t14.5 -53.5 q0 -29 -14.5 -53t-38.5 -38t-54 -14q-29 0 -53.5 14t-39 37.5t-14.5 53.5zM252 819q0 -28 17 -44.5t42 -16.5q26 0 43 16.5t17 44.5t-17 44.5t-43 16.5q-25 0 -42 -16.5t-17 -44.5z" />
<glyph unicode="&#xc6;" horiz-adv-x="913" d="M-1 0l343 582q18 32 38.5 53.5t46.5 33.5t60.5 17t79.5 5q93 0 161 -1t134 -5l-3 -70h-255q-31 0 -49.5 -18.5t-18.5 -50.5v-405q0 -34 16.5 -50.5t51.5 -16.5h255l3 -69q-71 -4 -145 -5t-148 -1q-52 0 -84 34t-32 86v439q0 21 9.5 42t22.5 30h-8q-13 -7 -28.5 -23.5 t-29.5 -39.5l-328 -567h-92zM177 225l8 73h292v-73h-300zM467 328v73l352 -1v-71z" />
<glyph unicode="&#xc7;" d="M61 345q0 132 26.5 210t86 112.5t158.5 34.5q44 0 75.5 -2t58 -6.5t54.5 -11.5l-9 -67q-30 3 -55.5 5t-54.5 3t-69 1q-67 0 -106 -26t-55.5 -87t-16.5 -166t16.5 -166t55.5 -87t106 -26q64 0 107.5 2.5t85.5 8.5l9 -66q-43 -12 -88.5 -17.5t-113.5 -5.5 q-99 0 -158.5 34.5t-86 112.5t-26.5 210zM226 -241l13 45q41 -1 66.5 18.5t26.5 50.5q1 18 -11 24.5t-48 7.5l9 40q39 4 63.5 -0.5t36.5 -19.5t11 -45q-1 -42 -23 -71.5t-59 -42.5t-85 -7z" />
<glyph unicode="&#xc8;" horiz-adv-x="560" d="M81 119v452q1 56 36.5 88t96.5 32h100.5t100 -1.5t95.5 -4.5l-4 -69h-277q-31 0 -45.5 -15.5t-14.5 -50.5v-410q0 -35 14.5 -51t45.5 -16h277l4 -68q-46 -3 -95.5 -4t-100 -1.5t-100.5 -0.5q-61 0 -96.5 32.5t-36.5 87.5zM99 329v71h368v-71h-368zM146 862l49 65 l172 -146l-29 -39z" />
<glyph unicode="&#xc9;" horiz-adv-x="560" d="M81 119v452q1 56 36.5 88t96.5 32h100.5t100 -1.5t95.5 -4.5l-4 -69h-277q-31 0 -45.5 -15.5t-14.5 -50.5v-410q0 -35 14.5 -51t45.5 -16h277l4 -68q-46 -3 -95.5 -4t-100 -1.5t-100.5 -0.5q-61 0 -96.5 32.5t-36.5 87.5zM99 329v71h368v-71h-368zM239 788l172 147 l49 -66l-192 -120z" />
<glyph unicode="&#xca;" horiz-adv-x="560" d="M81 119v452q1 56 36.5 88t96.5 32h100.5t100 -1.5t95.5 -4.5l-4 -69h-277q-31 0 -45.5 -15.5t-14.5 -50.5v-410q0 -35 14.5 -51t45.5 -16h277l4 -68q-46 -3 -95.5 -4t-100 -1.5t-100.5 -0.5q-61 0 -96.5 32.5t-36.5 87.5zM99 329v71h368v-71h-368zM147 783l132 127h61 l133 -127l-30 -37l-129 97h-8l-130 -97z" />
<glyph unicode="&#xcb;" horiz-adv-x="560" d="M81 119v452q1 56 36.5 88t96.5 32h100.5t100 -1.5t95.5 -4.5l-4 -69h-277q-31 0 -45.5 -15.5t-14.5 -50.5v-410q0 -35 14.5 -51t45.5 -16h277l4 -68q-46 -3 -95.5 -4t-100 -1.5t-100.5 -0.5q-61 0 -96.5 32.5t-36.5 87.5zM99 329v71h368v-71h-368zM183 804v55q0 24 23 24 h29q23 0 23 -24v-55q0 -24 -23 -24h-29q-23 0 -23 24zM360 804v55q0 24 24 24h28q24 0 24 -24v-55q0 -24 -24 -24h-28q-24 0 -24 24z" />
<glyph unicode="&#xcc;" horiz-adv-x="262" d="M-33 848l49 65l172 -146l-29 -39zM87 0v690h88v-690h-88z" />
<glyph unicode="&#xcd;" horiz-adv-x="262" d="M60 774l172 147l49 -66l-192 -120zM87 0v690h88v-690h-88z" />
<glyph unicode="&#xce;" horiz-adv-x="262" d="M-32 769l132 127h61l133 -127l-30 -37l-129 97h-8l-130 -97zM87 0v690h88v-690h-88z" />
<glyph unicode="&#xcf;" horiz-adv-x="262" d="M4 791v55q0 24 23 24h29q23 0 23 -24v-55q0 -24 -23 -24h-29q-23 0 -23 24zM87 0v690h88v-690h-88zM181 791v55q0 24 24 24h28q24 0 24 -24v-55q0 -24 -24 -24h-28q-24 0 -24 24z" />
<glyph unicode="&#xd0;" horiz-adv-x="669" d="M22 342v49h309v-49h-309zM91 0l38 72q42 -1 93.5 -2.5t114.5 -1.5q66 0 105 25.5t55.5 86t16.5 165.5t-16.5 165.5t-55.5 86.5t-105 26q-62 0 -111.5 -1t-96.5 -2l-38 70q54 4 114.5 6.5t131.5 2.5q74 0 125.5 -18t83 -59t46 -109t14.5 -168t-14.5 -168t-46 -109t-83 -59 t-125.5 -18q-71 0 -131.5 2.5t-114.5 6.5zM91 0v690h88v-690h-88z" />
<glyph unicode="&#xd1;" horiz-adv-x="705" d="M87 0v655q0 35 35 35h83q15 0 24 -7t15 -21l226 -477q11 -21 23.5 -47.5t23.5 -52.5h17q-1 27 -2 53t-1 52v500h87v-655q0 -35 -34 -35h-86q-15 0 -24 7t-15 21l-233 489q-9 20 -21 45t-18 46h-16q2 -22 3 -45t1 -46v-517h-88zM206 765q-4 40 5.5 66t29 38t43.5 10 q23 -2 41.5 -9.5t35 -17t34 -17.5t38.5 -11q29 -4 39 9t10 41h40q6 -56 -16.5 -85.5t-61.5 -26.5q-34 3 -58.5 16t-46 26t-46.5 15q-28 3 -37.5 -10.5t-9.5 -43.5h-40z" />
<glyph unicode="&#xd2;" horiz-adv-x="668" d="M61 345q0 101 14.5 170t46.5 110.5t84.5 59.5t127.5 18t127.5 -18t84 -59.5t46 -110.5t14.5 -170t-14.5 -170t-46 -110.5t-84 -59.5t-127.5 -18t-127.5 18t-84.5 59.5t-46.5 110.5t-14.5 170zM154 345q0 -105 16.5 -166t56 -87t107.5 -26t107.5 26t56 87t16.5 166 q0 106 -16.5 166.5t-56 86.5t-107.5 26t-107.5 -26t-56 -86.5t-16.5 -166.5zM172 848l49 65l172 -146l-29 -39z" />
<glyph unicode="&#xd3;" horiz-adv-x="668" d="M61 345q0 101 14.5 170t46.5 110.5t84.5 59.5t127.5 18t127.5 -18t84 -59.5t46 -110.5t14.5 -170t-14.5 -170t-46 -110.5t-84 -59.5t-127.5 -18t-127.5 18t-84.5 59.5t-46.5 110.5t-14.5 170zM154 345q0 -105 16.5 -166t56 -87t107.5 -26t107.5 26t56 87t16.5 166 q0 106 -16.5 166.5t-56 86.5t-107.5 26t-107.5 -26t-56 -86.5t-16.5 -166.5zM264 774l172 147l49 -66l-192 -120z" />
<glyph unicode="&#xd4;" horiz-adv-x="668" d="M61 345q0 101 14.5 170t46.5 110.5t84.5 59.5t127.5 18t127.5 -18t84 -59.5t46 -110.5t14.5 -170t-14.5 -170t-46 -110.5t-84 -59.5t-127.5 -18t-127.5 18t-84.5 59.5t-46.5 110.5t-14.5 170zM154 345q0 -105 16.5 -166t56 -87t107.5 -26t107.5 26t56 87t16.5 166 q0 106 -16.5 166.5t-56 86.5t-107.5 26t-107.5 -26t-56 -86.5t-16.5 -166.5zM173 769l132 127h61l133 -127l-30 -37l-129 97h-8l-130 -97z" />
<glyph unicode="&#xd5;" horiz-adv-x="668" d="M61 345q0 101 14.5 170t46.5 110.5t84.5 59.5t127.5 18t127.5 -18t84 -59.5t46 -110.5t14.5 -170t-14.5 -170t-46 -110.5t-84 -59.5t-127.5 -18t-127.5 18t-84.5 59.5t-46.5 110.5t-14.5 170zM154 345q0 -105 16.5 -166t56 -87t107.5 -26t107.5 26t56 87t16.5 166 q0 106 -16.5 166.5t-56 86.5t-107.5 26t-107.5 -26t-56 -86.5t-16.5 -166.5zM177 765q-4 40 5.5 66t29 38t43.5 10q23 -2 41.5 -9.5t35 -17t34 -17.5t38.5 -11q29 -4 39 9t10 41h40q6 -56 -16.5 -85.5t-61.5 -26.5q-34 3 -58.5 16t-46 26t-46.5 15q-28 3 -37.5 -10.5 t-9.5 -43.5h-40z" />
<glyph unicode="&#xd6;" horiz-adv-x="668" d="M61 345q0 101 14.5 170t46.5 110.5t84.5 59.5t127.5 18t127.5 -18t84 -59.5t46 -110.5t14.5 -170t-14.5 -170t-46 -110.5t-84 -59.5t-127.5 -18t-127.5 18t-84.5 59.5t-46.5 110.5t-14.5 170zM154 345q0 -105 16.5 -166t56 -87t107.5 -26t107.5 26t56 87t16.5 166 q0 106 -16.5 166.5t-56 86.5t-107.5 26t-107.5 -26t-56 -86.5t-16.5 -166.5zM209 791v55q0 24 23 24h29q23 0 23 -24v-55q0 -24 -23 -24h-29q-23 0 -23 24zM386 791v55q0 24 24 24h28q24 0 24 -24v-55q0 -24 -24 -24h-28q-24 0 -24 24z" />
<glyph unicode="&#xd7;" horiz-adv-x="484" d="M46 155l42 -51l356 321l-42 50zM46 424l356 -320l42 51l-356 320z" />
<glyph unicode="&#xd8;" horiz-adv-x="668" d="M61 345q0 101 14.5 170t46.5 110.5t84.5 59.5t127.5 18t127.5 -18t84 -59.5t46 -110.5t14.5 -170t-14.5 -170t-46 -110.5t-84 -59.5t-127.5 -18t-127.5 18t-84.5 59.5t-46.5 110.5t-14.5 170zM124 -38l369 788l46 -19l-370 -789zM154 345q0 -105 16.5 -166t56 -87 t107.5 -26t107.5 26t56 87t16.5 166q0 106 -16.5 166.5t-56 86.5t-107.5 26t-107.5 -26t-56 -86.5t-16.5 -166.5z" />
<glyph unicode="&#xd9;" horiz-adv-x="666" d="M82 264v426h88v-426q0 -74 15.5 -117.5t51.5 -62t96 -18.5t95.5 18.5t51.5 62t16 117.5v426h88v-426q0 -100 -24 -161t-78 -88.5t-145 -27.5q-93 0 -149 27.5t-81 88.5t-25 161zM170 848l49 65l172 -146l-29 -39z" />
<glyph unicode="&#xda;" horiz-adv-x="666" d="M82 264v426h88v-426q0 -74 15.5 -117.5t51.5 -62t96 -18.5t95.5 18.5t51.5 62t16 117.5v426h88v-426q0 -100 -24 -161t-78 -88.5t-145 -27.5q-93 0 -149 27.5t-81 88.5t-25 161zM263 774l172 147l49 -66l-192 -120z" />
<glyph unicode="&#xdb;" horiz-adv-x="666" d="M82 264v426h88v-426q0 -74 15.5 -117.5t51.5 -62t96 -18.5t95.5 18.5t51.5 62t16 117.5v426h88v-426q0 -100 -24 -161t-78 -88.5t-145 -27.5q-93 0 -149 27.5t-81 88.5t-25 161zM171 769l132 127h61l133 -127l-30 -37l-129 97h-8l-130 -97z" />
<glyph unicode="&#xdc;" horiz-adv-x="666" d="M82 264v426h88v-426q0 -74 15.5 -117.5t51.5 -62t96 -18.5t95.5 18.5t51.5 62t16 117.5v426h88v-426q0 -100 -24 -161t-78 -88.5t-145 -27.5q-93 0 -149 27.5t-81 88.5t-25 161zM208 791v55q0 24 23 24h29q23 0 23 -24v-55q0 -24 -23 -24h-29q-23 0 -23 24zM385 791v55 q0 24 24 24h28q24 0 24 -24v-55q0 -24 -24 -24h-28q-24 0 -24 24z" />
<glyph unicode="&#xdd;" horiz-adv-x="569" d="M11 690h94l145 -291q9 -19 16.5 -39t14.5 -39h7q7 19 15 39t16 38l145 292h93l-233 -456h-79zM214 764l172 147l49 -66l-192 -120zM240 0v296h88v-296h-88z" />
<glyph unicode="&#xde;" horiz-adv-x="592" d="M87 0v690h88v-690h-88zM87 559q38 4 71 5.5t72 2t95 0.5q83 0 131 -19t69 -66t21 -133t-20.5 -133.5t-67 -66t-124.5 -18.5q-42 0 -80.5 2t-70.5 5.5t-54.5 7.5t-31.5 7l3 54h110h113q50 1 79.5 12.5t42 42t12.5 87.5q0 58 -12.5 88.5t-42 42.5t-79.5 12q-82 0 -141.5 -1 t-80.5 -3z" />
<glyph unicode="&#xdf;" horiz-adv-x="675" d="M28 419v66l92 2h40v-68h-132zM116 0v543q0 59 15.5 94t44.5 53.5t70.5 24.5t94.5 6q80 0 130 -12t73 -40.5t23 -79.5q0 -27 -7 -48.5t-25.5 -41.5t-54.5 -41q-31 -18 -53.5 -29.5t-34 -24.5t-11.5 -37q0 -26 17 -38.5t48 -26.5l104 -46q31 -14 50 -30t28.5 -39.5 t9.5 -60.5q0 -57 -20 -86.5t-59.5 -40t-97.5 -10.5q-31 0 -71.5 2t-88.5 9l5 64q38 -3 74 -4t65 -1q39 1 63 5t35.5 19t11.5 47q0 23 -7.5 35.5t-22.5 21.5t-37 19l-106 47q-37 17 -59.5 43.5t-22.5 68.5q0 38 17 60.5t45 38.5t61 34q36 20 50 38.5t14 49.5q0 22 -12 36 t-42.5 21.5t-87.5 7.5q-55 0 -86.5 -9.5t-44.5 -34.5t-13 -73v-534h-85z" />
<glyph unicode="&#xe0;" horiz-adv-x="549" d="M51 127v53q0 57 35.5 88.5t99.5 31.5h249l-1 -64l-233 -1q-35 -1 -49 -18.5t-14 -48.5v-31q0 -38 18 -55.5t58 -17.5q28 0 63.5 10.5t71.5 32.5t66 56v-63q-11 -14 -31.5 -32.5t-49 -36t-63 -29t-74.5 -11.5q-43 0 -76 15.5t-51.5 46t-18.5 74.5zM73 477q34 6 74.5 11 t82.5 8t78 3q54 0 91.5 -14.5t56.5 -48.5t19 -93v-343h-67l-13 106l-6 11v226q0 45 -20.5 64.5t-78.5 19.5q-38 0 -95.5 -4t-113.5 -9zM110 668l49 65l172 -146l-29 -39z" />
<glyph unicode="&#xe1;" horiz-adv-x="549" d="M51 127v53q0 57 35.5 88.5t99.5 31.5h249l-1 -64l-233 -1q-35 -1 -49 -18.5t-14 -48.5v-31q0 -38 18 -55.5t58 -17.5q28 0 63.5 10.5t71.5 32.5t66 56v-63q-11 -14 -31.5 -32.5t-49 -36t-63 -29t-74.5 -11.5q-43 0 -76 15.5t-51.5 46t-18.5 74.5zM73 477q34 6 74.5 11 t82.5 8t78 3q54 0 91.5 -14.5t56.5 -48.5t19 -93v-343h-67l-13 106l-6 11v226q0 45 -20.5 64.5t-78.5 19.5q-38 0 -95.5 -4t-113.5 -9zM202 594l172 147l49 -66l-192 -120z" />
<glyph unicode="&#xe2;" horiz-adv-x="549" d="M51 127v53q0 57 35.5 88.5t99.5 31.5h249l-1 -64l-233 -1q-35 -1 -49 -18.5t-14 -48.5v-31q0 -38 18 -55.5t58 -17.5q28 0 63.5 10.5t71.5 32.5t66 56v-63q-11 -14 -31.5 -32.5t-49 -36t-63 -29t-74.5 -11.5q-43 0 -76 15.5t-51.5 46t-18.5 74.5zM73 477q34 6 74.5 11 t82.5 8t78 3q54 0 91.5 -14.5t56.5 -48.5t19 -93v-343h-67l-13 106l-6 11v226q0 45 -20.5 64.5t-78.5 19.5q-38 0 -95.5 -4t-113.5 -9zM111 589l132 127h61l133 -127l-30 -37l-129 97h-8l-130 -97z" />
<glyph unicode="&#xe3;" horiz-adv-x="549" d="M51 127v53q0 57 35.5 88.5t99.5 31.5h249l-1 -64l-233 -1q-35 -1 -49 -18.5t-14 -48.5v-31q0 -38 18 -55.5t58 -17.5q28 0 63.5 10.5t71.5 32.5t66 56v-63q-11 -14 -31.5 -32.5t-49 -36t-63 -29t-74.5 -11.5q-43 0 -76 15.5t-51.5 46t-18.5 74.5zM73 477q34 6 74.5 11 t82.5 8t78 3q54 0 91.5 -14.5t56.5 -48.5t19 -93v-343h-67l-13 106l-6 11v226q0 45 -20.5 64.5t-78.5 19.5q-38 0 -95.5 -4t-113.5 -9zM115 585q-4 40 5.5 66t29 38t43.5 10q23 -2 41.5 -9.5t35 -17t34 -17.5t38.5 -11q29 -4 39 9t10 41h40q6 -56 -16.5 -85.5t-61.5 -26.5 q-34 3 -58.5 16t-46 26t-46.5 15q-28 3 -37.5 -10.5t-9.5 -43.5h-40z" />
<glyph unicode="&#xe4;" horiz-adv-x="549" d="M51 127v53q0 57 35.5 88.5t99.5 31.5h249l-1 -64l-233 -1q-35 -1 -49 -18.5t-14 -48.5v-31q0 -38 18 -55.5t58 -17.5q28 0 63.5 10.5t71.5 32.5t66 56v-63q-11 -14 -31.5 -32.5t-49 -36t-63 -29t-74.5 -11.5q-43 0 -76 15.5t-51.5 46t-18.5 74.5zM73 477q34 6 74.5 11 t82.5 8t78 3q54 0 91.5 -14.5t56.5 -48.5t19 -93v-343h-67l-13 106l-6 11v226q0 45 -20.5 64.5t-78.5 19.5q-38 0 -95.5 -4t-113.5 -9zM147 611v55q0 24 23 24h29q23 0 23 -24v-55q0 -24 -23 -24h-29q-23 0 -23 24zM324 611v55q0 24 24 24h28q24 0 24 -24v-55q0 -24 -24 -24 h-28q-24 0 -24 24z" />
<glyph unicode="&#xe5;" horiz-adv-x="549" d="M51 127v53q0 57 35.5 88.5t99.5 31.5h249l-1 -64l-233 -1q-35 -1 -49 -18.5t-14 -48.5v-31q0 -38 18 -55.5t58 -17.5q28 0 63.5 10.5t71.5 32.5t66 56v-63q-11 -14 -31.5 -32.5t-49 -36t-63 -29t-74.5 -11.5q-43 0 -76 15.5t-51.5 46t-18.5 74.5zM73 477q34 6 74.5 11 t82.5 8t78 3q54 0 91.5 -14.5t56.5 -48.5t19 -93v-343h-67l-13 106l-6 11v226q0 45 -20.5 64.5t-78.5 19.5q-38 0 -95.5 -4t-113.5 -9zM166 646q0 30 14.5 53.5t39 37.5t53.5 14t53.5 -14t39 -37.5t14.5 -53.5q0 -29 -14.5 -53t-38.5 -38t-54 -14q-29 0 -53.5 14t-39 37.5 t-14.5 53.5zM214 646q0 -28 17 -44.5t42 -16.5q26 0 43 16.5t17 44.5t-17 44.5t-43 16.5q-25 0 -42 -16.5t-17 -44.5z" />
<glyph unicode="&#xe6;" horiz-adv-x="871" d="M51 127v53q0 57 35.5 88.5t99.5 31.5h249l-1 -64l-233 -1q-35 -1 -49 -18.5t-14 -48.5v-31q0 -38 18 -55.5t58 -17.5q29 0 65 10.5t73.5 33.5t67.5 58v-63q-11 -15 -32 -34t-50 -37t-64.5 -29.5t-76.5 -11.5q-43 0 -76 15.5t-51.5 46t-18.5 74.5zM73 477q34 6 74.5 11 t82.5 8t78 3q54 0 91.5 -14.5t56.5 -48.5t19 -93v-102h-86v102q0 45 -20.5 64.5t-78.5 19.5q-38 0 -95.5 -4t-113.5 -9zM389 245q0 96 23 151.5t72.5 79t127.5 23.5q110 0 159.5 -40t50.5 -119q0 -45 -13.5 -75.5t-41.5 -46.5t-72 -16h-274v66h252q38 0 51 21.5t12 50.5 q0 46 -27.5 66.5t-92.5 20.5q-53 0 -83.5 -15.5t-43 -54t-12.5 -107.5q0 -78 15.5 -119t49.5 -56t90 -15q40 0 86 3.5t84 8.5l8 -57q-22 -9 -56 -15t-69.5 -9t-63.5 -3q-83 0 -134.5 25.5t-74.5 82t-23 149.5z" />
<glyph unicode="&#xe7;" horiz-adv-x="489" d="M54 244q0 94 23 150t74 80.5t135 24.5q22 0 49 -2t55.5 -7t52.5 -14l-11 -55q-33 3 -69.5 4.5t-62.5 1.5q-58 0 -92 -16t-49 -56t-15 -111t15 -111.5t49 -56.5t92 -16q15 0 39 1t51.5 3t52.5 6l9 -57q-37 -13 -80.5 -19t-86.5 -6q-84 0 -135 25t-73.5 81t-22.5 150z M179 -241l13 45q41 -1 66.5 18.5t26.5 50.5q1 18 -11 24.5t-48 7.5l9 40q39 4 63.5 -0.5t36.5 -19.5t11 -45q-1 -42 -23 -71.5t-59 -42.5t-85 -7z" />
<glyph unicode="&#xe8;" horiz-adv-x="537" d="M54 245q0 96 23.5 151.5t73 79t127.5 23.5q110 0 159.5 -40t49.5 -119q1 -65 -27 -101.5t-89 -36.5h-284v66h262q33 0 43 22.5t10 49.5q-1 47 -28 67t-92 20q-53 0 -83.5 -15.5t-43 -54t-12.5 -107.5q0 -78 15.5 -119t49.5 -56t90 -15q39 0 85.5 3.5t83.5 8.5l9 -57 q-23 -9 -56.5 -15t-69 -9t-63.5 -3q-84 0 -135 25.5t-74.5 82t-23.5 149.5zM117 668l49 65l172 -146l-29 -39z" />
<glyph unicode="&#xe9;" horiz-adv-x="537" d="M54 245q0 96 23.5 151.5t73 79t127.5 23.5q110 0 159.5 -40t49.5 -119q1 -65 -27 -101.5t-89 -36.5h-284v66h262q33 0 43 22.5t10 49.5q-1 47 -28 67t-92 20q-53 0 -83.5 -15.5t-43 -54t-12.5 -107.5q0 -78 15.5 -119t49.5 -56t90 -15q39 0 85.5 3.5t83.5 8.5l9 -57 q-23 -9 -56.5 -15t-69 -9t-63.5 -3q-84 0 -135 25.5t-74.5 82t-23.5 149.5zM210 594l172 147l49 -66l-192 -120z" />
<glyph unicode="&#xea;" horiz-adv-x="537" d="M54 245q0 96 23.5 151.5t73 79t127.5 23.5q110 0 159.5 -40t49.5 -119q1 -65 -27 -101.5t-89 -36.5h-284v66h262q33 0 43 22.5t10 49.5q-1 47 -28 67t-92 20q-53 0 -83.5 -15.5t-43 -54t-12.5 -107.5q0 -78 15.5 -119t49.5 -56t90 -15q39 0 85.5 3.5t83.5 8.5l9 -57 q-23 -9 -56.5 -15t-69 -9t-63.5 -3q-84 0 -135 25.5t-74.5 82t-23.5 149.5zM119 589l132 127h61l133 -127l-30 -37l-129 97h-8l-130 -97z" />
<glyph unicode="&#xeb;" horiz-adv-x="537" d="M54 245q0 96 23.5 151.5t73 79t127.5 23.5q110 0 159.5 -40t49.5 -119q1 -65 -27 -101.5t-89 -36.5h-284v66h262q33 0 43 22.5t10 49.5q-1 47 -28 67t-92 20q-53 0 -83.5 -15.5t-43 -54t-12.5 -107.5q0 -78 15.5 -119t49.5 -56t90 -15q39 0 85.5 3.5t83.5 8.5l9 -57 q-23 -9 -56.5 -15t-69 -9t-63.5 -3q-84 0 -135 25.5t-74.5 82t-23.5 149.5zM155 611v55q0 24 23 24h29q23 0 23 -24v-55q0 -24 -23 -24h-29q-23 0 -23 24zM332 611v55q0 24 24 24h28q24 0 24 -24v-55q0 -24 -24 -24h-28q-24 0 -24 24z" />
<glyph unicode="&#xec;" horiz-adv-x="249" d="M-39 669l49 65l172 -146l-29 -39zM82 0v487h85v-487h-85z" />
<glyph unicode="&#xed;" horiz-adv-x="249" d="M54 595l172 147l49 -66l-192 -120zM82 0v487h85v-487h-85z" />
<glyph unicode="&#xee;" horiz-adv-x="249" d="M-38 589l132 127h61l133 -127l-30 -37l-129 97h-8l-130 -97zM82 0v487h85v-487h-85z" />
<glyph unicode="&#xef;" horiz-adv-x="249" d="M-2 611v55q0 24 23 24h29q23 0 23 -24v-55q0 -24 -23 -24h-29q-23 0 -23 24zM82 0v487h85v-487h-85zM175 611v55q0 24 24 24h28q24 0 24 -24v-55q0 -24 -24 -24h-28q-24 0 -24 24z" />
<glyph unicode="&#xf0;" horiz-adv-x="559" d="M55 219q0 73 20 124t65 78t120 27q27 0 57.5 -5.5t62.5 -21t61 -44.5l-7 -37q-41 20 -79 28.5t-82 8.5q-49 0 -77 -18.5t-39.5 -54t-11.5 -85.5q0 -88 31.5 -124t99.5 -36q58 0 85.5 26.5t36.5 77.5t9 124q0 93 -17 156t-46 102t-66 59t-78 27t-81 5l10 62q54 3 107 -8 t100 -39t82.5 -76t56 -120t20.5 -172q0 -66 -9 -120.5t-32.5 -93.5t-67 -60.5t-111.5 -21.5q-112 0 -166 55.5t-54 176.5zM208 554l205 158l30 -39l-204 -157z" />
<glyph unicode="&#xf1;" horiz-adv-x="581" d="M78 0v487h72l7 -93l6 -15v-379h-85zM145 585q-4 40 5.5 66t29 38t43.5 10q23 -2 41.5 -9.5t35 -17t34 -17.5t38.5 -11q29 -4 39 9t10 41h40q6 -56 -16.5 -85.5t-61.5 -26.5q-34 3 -58.5 16t-46 26t-46.5 15q-28 3 -37.5 -10.5t-9.5 -43.5h-40zM150 406q57 44 113 68.5 t111 24.5q132 0 132 -134v-365h-85v341q0 49 -16 67.5t-54 18.5q-45 0 -90 -22t-107 -60z" />
<glyph unicode="&#xf2;" horiz-adv-x="568" d="M55 243q0 93 22.5 149.5t73 81.5t133.5 25q84 0 134.5 -25t72.5 -81.5t22 -149.5t-22 -149.5t-72.5 -81.5t-134.5 -25q-83 0 -133.5 25t-73 81.5t-22.5 149.5zM122 664l49 65l172 -146l-29 -39zM144 243q0 -71 13 -111t43.5 -56.5t83.5 -16.5t84 16.5t44 56.5t13 111 t-13 111t-44 56.5t-84 16.5t-83.5 -16.5t-43.5 -56.5t-13 -111z" />
<glyph unicode="&#xf3;" horiz-adv-x="568" d="M55 243q0 93 22.5 149.5t73 81.5t133.5 25q84 0 134.5 -25t72.5 -81.5t22 -149.5t-22 -149.5t-72.5 -81.5t-134.5 -25q-83 0 -133.5 25t-73 81.5t-22.5 149.5zM144 243q0 -71 13 -111t43.5 -56.5t83.5 -16.5t84 16.5t44 56.5t13 111t-13 111t-44 56.5t-84 16.5 t-83.5 -16.5t-43.5 -56.5t-13 -111zM214 590l172 147l49 -66l-192 -120z" />
<glyph unicode="&#xf4;" horiz-adv-x="568" d="M55 243q0 93 22.5 149.5t73 81.5t133.5 25q84 0 134.5 -25t72.5 -81.5t22 -149.5t-22 -149.5t-72.5 -81.5t-134.5 -25q-83 0 -133.5 25t-73 81.5t-22.5 149.5zM123 585l132 127h61l133 -127l-30 -37l-129 97h-8l-130 -97zM144 243q0 -71 13 -111t43.5 -56.5t83.5 -16.5 t84 16.5t44 56.5t13 111t-13 111t-44 56.5t-84 16.5t-83.5 -16.5t-43.5 -56.5t-13 -111z" />
<glyph unicode="&#xf5;" horiz-adv-x="568" d="M55 243q0 93 22.5 149.5t73 81.5t133.5 25q84 0 134.5 -25t72.5 -81.5t22 -149.5t-22 -149.5t-72.5 -81.5t-134.5 -25q-83 0 -133.5 25t-73 81.5t-22.5 149.5zM127 581q-4 40 5.5 66t29 38t43.5 10q23 -2 41.5 -9.5t35 -17t34 -17.5t38.5 -11q29 -4 39 9t10 41h40 q6 -56 -16.5 -85.5t-61.5 -26.5q-34 3 -58.5 16t-46 26t-46.5 15q-28 3 -37.5 -10.5t-9.5 -43.5h-40zM144 243q0 -71 13 -111t43.5 -56.5t83.5 -16.5t84 16.5t44 56.5t13 111t-13 111t-44 56.5t-84 16.5t-83.5 -16.5t-43.5 -56.5t-13 -111z" />
<glyph unicode="&#xf6;" horiz-adv-x="568" d="M55 243q0 93 22.5 149.5t73 81.5t133.5 25q84 0 134.5 -25t72.5 -81.5t22 -149.5t-22 -149.5t-72.5 -81.5t-134.5 -25q-83 0 -133.5 25t-73 81.5t-22.5 149.5zM144 243q0 -71 13 -111t43.5 -56.5t83.5 -16.5t84 16.5t44 56.5t13 111t-13 111t-44 56.5t-84 16.5 t-83.5 -16.5t-43.5 -56.5t-13 -111zM159 607v55q0 24 23 24h29q23 0 23 -24v-55q0 -24 -23 -24h-29q-23 0 -23 24zM336 607v55q0 24 24 24h28q24 0 24 -24v-55q0 -24 -24 -24h-28q-24 0 -24 24z" />
<glyph unicode="&#xf7;" horiz-adv-x="571" d="M66 263v64h438v-64h-438zM242 96v48q0 18 6.5 25t24.5 7h22q17 0 24.5 -7t7.5 -25v-48q0 -18 -7.5 -25t-24.5 -7h-22q-18 0 -24.5 7t-6.5 25zM242 444v49q0 17 6.5 24.5t24.5 7.5h22q17 0 24.5 -7.5t7.5 -24.5v-49q0 -17 -7.5 -24t-24.5 -7h-22q-18 0 -24.5 7t-6.5 24z " />
<glyph unicode="&#xf8;" horiz-adv-x="568" d="M55 243q0 93 22.5 149.5t73 81.5t133.5 25q84 0 134.5 -25t72.5 -81.5t22 -149.5t-22 -149.5t-72.5 -81.5t-134.5 -25q-83 0 -133.5 25t-73 81.5t-22.5 149.5zM118 -56l287 616l39 -19l-287 -616zM144 243q0 -71 13 -111t43.5 -56.5t83.5 -16.5t84 16.5t44 56.5t13 111 t-13 111t-44 56.5t-84 16.5t-83.5 -16.5t-43.5 -56.5t-13 -111z" />
<glyph unicode="&#xf9;" d="M75 121v366h85v-342q-1 -46 17 -65t60 -19q41 0 81.5 19.5t97.5 56.5l11 -59q-57 -45 -110.5 -68t-108.5 -23q-133 0 -133 134zM121 671l49 65l172 -146l-29 -39zM407 107v380h85v-487h-68l-8 92z" />
<glyph unicode="&#xfa;" d="M75 121v366h85v-342q-1 -46 17 -65t60 -19q41 0 81.5 19.5t97.5 56.5l11 -59q-57 -45 -110.5 -68t-108.5 -23q-133 0 -133 134zM214 597l172 147l49 -66l-192 -120zM407 107v380h85v-487h-68l-8 92z" />
<glyph unicode="&#xfb;" d="M75 121v366h85v-342q-1 -46 17 -65t60 -19q41 0 81.5 19.5t97.5 56.5l11 -59q-57 -45 -110.5 -68t-108.5 -23q-133 0 -133 134zM122 592l132 127h61l133 -127l-30 -37l-129 97h-8l-130 -97zM407 107v380h85v-487h-68l-8 92z" />
<glyph unicode="&#xfc;" d="M75 121v366h85v-342q-1 -46 17 -65t60 -19q41 0 81.5 19.5t97.5 56.5l11 -59q-57 -45 -110.5 -68t-108.5 -23q-133 0 -133 134zM159 614v55q0 24 23 24h29q23 0 23 -24v-55q0 -24 -23 -24h-29q-23 0 -23 24zM336 614v55q0 24 24 24h28q24 0 24 -24v-55q0 -24 -24 -24h-28 q-24 0 -24 24zM407 107v380h85v-487h-68l-8 92z" />
<glyph unicode="&#xfd;" horiz-adv-x="529" d="M18 487h91l129 -363q5 -15 10 -29.5t8 -29.5h23l-28 -65h-26q-10 0 -18.5 6t-11.5 16zM94 -150q59 19 91 51t51 78l24 58q8 20 16 44t15 43l127 363h92l-195 -514q-12 -32 -30 -63t-43.5 -56.5t-60 -41.5t-79.5 -18zM196 595l172 147l49 -66l-192 -120z" />
<glyph unicode="&#xfe;" horiz-adv-x="574" d="M78 -201v901h85v-170q0 -29 -0.5 -55t-3.5 -54l4 -12v-348l-4 -12q3 -28 3.5 -54t0.5 -55v-141h-85zM137 45l16 53q47 -19 85 -29.5t74 -10.5q43 0 68.5 16.5t37 56.5t11.5 110q0 71 -11.5 111t-36.5 57t-66 17q-37 0 -74.5 -18.5t-81.5 -51.5l-19 56q44 40 93 63.5 t109 23.5q95 0 135 -61.5t40 -197.5q0 -94 -18.5 -149.5t-58 -79.5t-101.5 -24q-52 0 -103.5 14.5t-98.5 43.5z" />
<glyph unicode="&#xff;" horiz-adv-x="529" d="M18 487h91l129 -363q5 -15 10 -29.5t8 -29.5h23l-28 -65h-26q-10 0 -18.5 6t-11.5 16zM94 -150q59 19 91 51t51 78l24 58q8 20 16 44t15 43l127 363h92l-195 -514q-12 -32 -30 -63t-43.5 -56.5t-60 -41.5t-79.5 -18zM140 611v55q0 24 23 24h29q23 0 23 -24v-55 q0 -24 -23 -24h-29q-23 0 -23 24zM317 611v55q0 24 24 24h28q24 0 24 -24v-55q0 -24 -24 -24h-28q-24 0 -24 24z" />
<glyph unicode="&#x152;" horiz-adv-x="913" d="M61 345q0 101 14.5 170t46.5 110.5t84.5 59.5t127.5 18q38 0 65.5 -3.5t53 -11t54.5 -19.5l-32 -66q-23 7 -42.5 11.5t-42.5 7t-56 2.5q-68 0 -107.5 -25.5t-56 -86t-16.5 -167.5q0 -105 16.5 -166t56 -87t107.5 -26q35 0 58 2.5t42.5 8t43.5 12.5l31 -63 q-29 -14 -54.5 -22.5t-53.5 -12.5t-67 -4q-75 0 -127.5 18t-84.5 59.5t-46.5 110.5t-14.5 170zM447 129v432q0 58 35.5 94t90.5 36h98t97.5 -1.5t93.5 -4.5l-3 -69h-257q-34 0 -50.5 -15.5t-16.5 -50.5v-410q0 -35 16.5 -51t50.5 -16h257l3 -68q-46 -3 -95.5 -4t-100 -1.5 t-100.5 -0.5q-52 0 -85.5 36t-33.5 94zM464 328v73l355 -1v-71z" />
<glyph unicode="&#x153;" horiz-adv-x="907" d="M55 243q0 93 22.5 149.5t73 81.5t133.5 25q84 0 134.5 -25t72.5 -81.5t22 -149.5t-22 -149.5t-72.5 -81.5t-134.5 -25q-83 0 -133.5 25t-73 81.5t-22.5 149.5zM144 243q0 -71 13 -111t43.5 -56.5t83.5 -16.5t84 16.5t44 56.5t13 111t-13 111t-44 56.5t-84 16.5 t-83.5 -16.5t-43.5 -56.5t-13 -111zM424 247q0 93 22 148t70.5 79.5t126.5 24.5q114 0 164 -40t51 -110q0 -55 -15.5 -86t-48.5 -44t-88 -13h-250v63h245q41 0 57 18t14 63q-2 39 -32 58t-95 19q-50 0 -79 -16t-41 -54.5t-12 -106.5q0 -78 15.5 -119t49.5 -56t91 -15 q38 0 84.5 3.5t83.5 8.5l8 -57q-22 -9 -55.5 -15t-69 -9t-64.5 -3q-84 0 -135 25.5t-74 82.5t-23 151z" />
<glyph unicode="&#x178;" horiz-adv-x="569" d="M11 690h94l145 -291q9 -19 16.5 -39t14.5 -39h7q7 19 15 39t16 38l145 292h93l-233 -456h-79zM159 781v55q0 24 23 24h29q23 0 23 -24v-55q0 -24 -23 -24h-29q-23 0 -23 24zM240 0v296h88v-296h-88zM336 781v55q0 24 24 24h28q24 0 24 -24v-55q0 -24 -24 -24h-28 q-24 0 -24 24z" />
<glyph unicode="&#x2c6;" horiz-adv-x="420" d="M48 586l132 127h61l133 -127l-30 -37l-129 97h-8l-130 -97z" />
<glyph unicode="&#x2dc;" horiz-adv-x="419" d="M52 585q-4 40 5.5 66t29 38t43.5 10q23 -2 41.5 -9.5t35 -17t34 -17.5t38.5 -11q29 -4 39 9t10 41h40q6 -56 -16.5 -85.5t-61.5 -26.5q-34 3 -58.5 16t-46 26t-46.5 15q-28 3 -37.5 -10.5t-9.5 -43.5h-40z" />
<glyph unicode="&#x2000;" horiz-adv-x="467" />
<glyph unicode="&#x2001;" horiz-adv-x="935" />
<glyph unicode="&#x2002;" horiz-adv-x="467" />
<glyph unicode="&#x2003;" horiz-adv-x="935" />
<glyph unicode="&#x2004;" horiz-adv-x="311" />
<glyph unicode="&#x2005;" horiz-adv-x="233" />
<glyph unicode="&#x2006;" horiz-adv-x="155" />
<glyph unicode="&#x2007;" horiz-adv-x="155" />
<glyph unicode="&#x2008;" horiz-adv-x="116" />
<glyph unicode="&#x2009;" horiz-adv-x="187" />
<glyph unicode="&#x200a;" horiz-adv-x="51" />
<glyph unicode="&#x2010;" horiz-adv-x="449" d="M72 220v65h305v-65h-305z" />
<glyph unicode="&#x2011;" horiz-adv-x="449" d="M72 220v65h305v-65h-305z" />
<glyph unicode="&#x2012;" horiz-adv-x="449" d="M72 220v65h305v-65h-305z" />
<glyph unicode="&#x2013;" horiz-adv-x="592" d="M72 220v65h448v-65h-448z" />
<glyph unicode="&#x2014;" horiz-adv-x="896" d="M72 220v65h752v-65h-752z" />
<glyph unicode="&#x2018;" horiz-adv-x="217" d="M65 527v59q0 27 4.5 52t12 48t18.5 44l40 -11q-5 -29 -7.5 -53t-2.5 -59q24 0 24 -26v-54q-1 -17 -9 -23.5t-24 -6.5h-25q-18 0 -24.5 6.5t-6.5 23.5z" />
<glyph unicode="&#x2019;" horiz-adv-x="214" d="M62 638v54q1 17 9 23.5t24 6.5h25q18 0 24.5 -6.5t6.5 -23.5v-59q0 -27 -4.5 -52t-12 -48t-18.5 -44l-40 11q5 29 7.5 53t2.5 59q-24 0 -24 26z" />
<glyph unicode="&#x201a;" horiz-adv-x="228" d="M69 27v54q1 17 9 23.5t24 6.5h25q19 0 25.5 -6.5t6.5 -23.5v-59q0 -27 -4.5 -52t-12.5 -48t-19 -44l-40 11q5 29 7.5 53t2.5 59q-24 0 -24 26z" />
<glyph unicode="&#x201c;" horiz-adv-x="369" d="M65 527v59q0 27 4.5 52t12 48t18.5 44l40 -11q-5 -29 -7.5 -53t-2.5 -59q24 0 24 -26v-54q-1 -17 -9 -23.5t-24 -6.5h-25q-18 0 -24.5 6.5t-6.5 23.5zM218 527v59q0 27 4.5 52t12 48t18.5 44l40 -11q-5 -29 -7.5 -53t-2.5 -59q24 0 24 -26v-54q-1 -17 -9 -23.5t-24 -6.5 h-25q-18 0 -24.5 6.5t-6.5 23.5z" />
<glyph unicode="&#x201d;" horiz-adv-x="367" d="M62 638v54q1 17 9 23.5t24 6.5h25q18 0 24.5 -6.5t6.5 -23.5v-59q0 -27 -4.5 -52t-12 -48t-18.5 -44l-40 11q5 29 7.5 53t2.5 59q-24 0 -24 26zM215 638v54q1 17 9 23.5t24 6.5h25q18 0 24.5 -6.5t6.5 -23.5v-59q0 -27 -4.5 -52t-12 -48t-18.5 -44l-40 11q5 29 7.5 53 t2.5 59q-24 0 -24 26z" />
<glyph unicode="&#x201e;" horiz-adv-x="381" d="M69 27v54q1 17 9 23.5t24 6.5h25q18 0 24.5 -6.5t6.5 -23.5v-59q0 -27 -4.5 -52t-12 -48t-18.5 -44l-40 11q5 29 7.5 53t2.5 59q-24 0 -24 26zM222 27v54q1 17 9 23.5t24 6.5h25q18 0 24.5 -6.5t6.5 -23.5v-59q0 -27 -4.5 -52t-12 -48t-18.5 -44l-40 11q5 29 7.5 53 t2.5 59q-24 0 -24 26z" />
<glyph unicode="&#x2022;" horiz-adv-x="363" d="M91 263v12q0 47 18.5 65t67.5 18h12q47 0 65 -18t18 -65v-12q0 -49 -18 -67.5t-65 -18.5h-12q-49 0 -67.5 18.5t-18.5 67.5z" />
<glyph unicode="&#x2026;" horiz-adv-x="845" d="M65 32v54q0 18 7.5 25t24.5 7h28q18 0 25 -7t7 -25v-54q0 -18 -7 -25t-25 -7h-28q-17 0 -24.5 7t-7.5 25zM373 32v54q0 18 7.5 25t24.5 7h28q18 0 25 -7t7 -25v-54q0 -18 -7 -25t-25 -7h-28q-17 0 -24.5 7t-7.5 25zM682 32v54q0 18 7.5 25t24.5 7h28q18 0 25 -7t7 -25 v-54q0 -18 -7 -25t-25 -7h-28q-17 0 -24.5 7t-7.5 25z" />
<glyph unicode="&#x202f;" horiz-adv-x="187" />
<glyph unicode="&#x2039;" horiz-adv-x="285" d="M36 241v20l160 198l45 -30l-126 -178l127 -182l-45 -30z" />
<glyph unicode="&#x203a;" horiz-adv-x="287" d="M43 69l127 182l-126 178l44 30l161 -198v-20l-162 -202z" />
<glyph unicode="&#x205f;" horiz-adv-x="233" />
<glyph unicode="&#x20ac;" horiz-adv-x="639" d="M53 258v58h394l-7 -58h-387zM53 389v58h434l-7 -58h-427zM135 345q0 119 26 198t86.5 119t162.5 40q56 0 93.5 -5t72.5 -15l-10 -68q-15 3 -33.5 5t-39 3.5t-42.5 1.5t-46 -1q-66 -2 -105 -33t-56.5 -92t-17.5 -154q0 -137 39.5 -206t139.5 -71q31 -1 61 0t58.5 4t53.5 8 l9 -68q-35 -10 -76.5 -16.5t-100.5 -6.5q-102 0 -162.5 40t-86.5 119.5t-26 197.5z" />
<glyph unicode="&#x2122;" horiz-adv-x="964" d="M67 645v51h324v-51h-324zM198 316v380h62v-380h-62zM440 316l16 356q2 24 24 24h63q10 0 16 -5t9 -15l76 -220q5 -13 8 -26.5t7 -26.5h11q5 14 8.5 27.5t7.5 26.5l75 219q6 20 24 20h66q22 0 24 -24l15 -356h-57l-16 333h-11l-92 -268q-6 -20 -26 -20h-47q-18 0 -25 20 l-92 268h-12l-15 -333h-57z" />
</font>
</defs>
</svg>
