<?xml version="1.0" standalone="no"?>
<!DOCTYPE svg PUBLIC "-//W3C//DTD SVG 1.1//EN" "http://www.w3.org/Graphics/SVG/1.1/DTD/svg11.dtd" >
<svg xmlns="http://www.w3.org/2000/svg" xmlns:xlink="http://www.w3.org/1999/xlink" version="1.1">
<metadata></metadata>
<defs>
<font id="josefin_slabthin" horiz-adv-x="1089" >
<font-face units-per-em="2048" ascent="1536" descent="-512" />
<missing-glyph horiz-adv-x="614" />
<glyph horiz-adv-x="0" />
<glyph unicode="&#xd;" horiz-adv-x="614" />
<glyph unicode=" "  horiz-adv-x="614" />
<glyph unicode="&#x09;" horiz-adv-x="614" />
<glyph unicode="&#xa0;" horiz-adv-x="614" />
<glyph unicode="!" horiz-adv-x="411" d="M166 115q0 -16 12 -28.5t27 -12.5q16 0 28.5 12.5t12.5 28.5q0 18 -12.5 29.5t-28.5 11.5q-14 0 -26.5 -11.5t-12.5 -29.5zM190 340h29v1196h-29v-1196z" />
<glyph unicode="&#x22;" horiz-adv-x="600" d="M129 967h29q2 129 4 254t4 254h-37v-508zM401 967h29q2 129 4 254t4 254h-37v-508z" />
<glyph unicode="#" horiz-adv-x="1169" d="M59 461h240l-53 -461h28l54 461h348l-53 -461h28l54 461h278l2 28h-276l41 345h280l2 28h-278l55 455h-29l-55 -455h-348l55 455h-29l-55 -455h-239l-3 -28h238l-41 -345h-242zM332 489l41 345h348l-41 -345h-348z" />
<glyph unicode="$" horiz-adv-x="1161" d="M94 131q18 -18 50 -43t79 -47q47 -23 109.5 -39t142.5 -18v-123h27v123q88 2 164.5 30.5t134.5 81.5q57 51 90 123t31 162q-2 106 -40 174t-98 111q-59 41 -134 65.5t-148 46.5v635q92 -4 156.5 -25.5t103.5 -50.5v-219h29v234q-61 53 -142.5 70.5t-146.5 19.5v123h-27 v-123q-92 -2 -158.5 -37t-107.5 -90t-59.5 -122t-14.5 -134q4 -78 34 -128t77 -83q47 -35 106.5 -56.5t122.5 -39.5v-740q-123 2 -209 41t-143 99v184h-29v-205zM164 1085q0 61 19.5 120t58.5 106q39 45 97 72.5t136 29.5v-629q-61 18 -117.5 40t-99.5 57q-43 33 -68.5 81.5 t-25.5 122.5zM502 12v731q72 -20 142.5 -42.5t125.5 -61.5q55 -41 89 -104.5t34 -161.5q0 -80 -33 -145.5t-86 -110.5q-55 -47 -125.5 -75t-146.5 -30z" />
<glyph unicode="%" horiz-adv-x="1486" d="M221 797q0 -47 17.5 -88t48.5 -70q31 -31 71.5 -48.5t87.5 -17.5q45 0 86 17.5t72 48.5q31 29 49.5 70t18.5 88q0 45 -18.5 86t-49.5 71q-31 29 -71.5 46.5t-86.5 17.5q-47 0 -88 -17.5t-71 -46.5q-31 -31 -48.5 -71.5t-17.5 -85.5zM250 795q0 39 15.5 74.5t41.5 62.5 q27 27 63 42t76 15q41 0 77 -15.5t63 -41.5q27 -27 42 -62.5t15 -74.5q0 -41 -15.5 -76t-41.5 -60q-27 -27 -63 -42t-77 -15t-76.5 15t-62.5 42q-27 25 -42 60t-15 76zM426 0h33q154 258 305 512t305 512h-33q-154 -258 -305 -512t-305 -512zM844 231q0 -47 17.5 -88 t47.5 -69q31 -31 72 -48.5t88 -17.5q45 0 86 17.5t72 48.5q31 29 49 69.5t18 87.5q0 45 -18.5 86t-48.5 72q-31 29 -72 46.5t-86 17.5q-47 0 -88 -17.5t-72 -46.5q-31 -31 -48 -72t-17 -86zM872 229q0 39 15.5 75t42.5 63t62.5 42t76.5 15t77 -15.5t62 -41.5 q27 -27 42.5 -63t15.5 -75q0 -41 -15.5 -75.5t-42.5 -59.5q-27 -27 -62.5 -42t-76.5 -15t-76.5 15t-62.5 42q-27 25 -42.5 59.5t-15.5 75.5z" />
<glyph unicode="&#x26;" horiz-adv-x="1433" d="M217 383q0 -84 31 -155.5t86 -125.5q53 -55 124.5 -85.5t155.5 -30.5q100 0 184.5 44t137.5 117l117 -186l22 16l-121 195q27 45 39.5 92t18.5 96q4 49 3 99.5t-1 101.5v178h217v29h-246v-385q0 -51 -13.5 -96t-35.5 -86l-510 831q-35 55 -49.5 115.5t-3.5 118.5 q8 55 43 106t98 92q51 33 103.5 40t103.5 -3t100 -32.5t97 -49.5l12 27q-39 25 -89 47.5t-108 32.5q-57 10 -117.5 3t-117.5 -42q-68 -41 -105 -96.5t-47 -118.5t5.5 -129t51.5 -127l148 -240q-72 -12 -133.5 -47t-104.5 -86q-45 -53 -70.5 -119.5t-25.5 -140.5zM246 383 q0 70 24.5 133.5t67.5 112.5t102.5 80.5t126.5 40.5l353 -576q-49 -72 -129.5 -116t-176.5 -44q-78 0 -144.5 29t-115.5 80q-51 49 -79.5 115.5t-28.5 144.5z" />
<glyph unicode="'" horiz-adv-x="301" d="M137 967h29q2 129 4 254t4 254h-37v-508z" />
<glyph unicode="(" horiz-adv-x="806" d="M301 598q0 -154 28.5 -293t76.5 -258q47 -119 107 -216t126 -165q2 12 3 23.5t3 23.5q-59 68 -115.5 160t-101.5 205t-71.5 244t-26.5 276t26.5 276.5t71.5 243.5q45 113 101.5 205t115.5 160q-2 12 -3 23.5t-3 23.5q-66 -68 -126 -165t-107 -216t-76 -258t-29 -293z" />
<glyph unicode=")" horiz-adv-x="819" d="M227 -287q2 -12 3 -23.5t3 -23.5q63 68 125 165t109 216t75.5 258t28.5 293t-28.5 293t-75.5 258t-108.5 216t-125.5 165q-2 -12 -3 -23.5t-3 -23.5q59 -68 115.5 -160t101.5 -205t72 -244t27 -276t-27 -276.5t-72 -243.5q-45 -113 -101 -205t-116 -160z" />
<glyph unicode="*" horiz-adv-x="686" d="M80 1051l18 -31q57 33 112.5 64.5t113.5 64.5v-260h28q2 66 2 131t2 131l114 -67.5l114 -67.5l18 31l-229 131q59 35 115.5 67.5t115.5 67.5l-14 24q-59 -33 -116.5 -65.5t-117.5 -65.5q2 68 2 134.5t2 134.5h-36v-269q-57 35 -114.5 67t-115.5 66l-14 -24 q76 -45 113.5 -67.5t113.5 -67.5q-76 -43 -113.5 -64.5t-113.5 -64.5z" />
<glyph unicode="+" horiz-adv-x="1112" d="M176 461h354v-357h29v357h354v28h-354v353h-29v-353h-354v-28z" />
<glyph unicode="," horiz-adv-x="409" d="M55 -246h29q45 106 88 211t88 211h-47q-41 -106 -79 -210.5t-79 -211.5z" />
<glyph unicode="-" horiz-adv-x="614" d="M109 377h376v29h-376v-29z" />
<glyph unicode="." horiz-adv-x="333" d="M135 41q0 -16 12.5 -28.5t28.5 -12.5t28.5 12.5t12.5 28.5t-12 28.5t-29 12.5q-16 0 -28.5 -12.5t-12.5 -28.5z" />
<glyph unicode="/" horiz-adv-x="659" d="M35 -39h28q143 389 284.5 773t285.5 773h-29q-143 -389 -284.5 -773t-284.5 -773z" />
<glyph unicode="0" horiz-adv-x="1261" d="M74 670q0 -143 42 -267t115 -217q74 -92 173.5 -146t211.5 -54q113 0 214.5 52t177.5 144t121 216t45 266q0 98 -28 216.5t-91 223.5q-63 102 -168 173t-256 71q-154 0 -260.5 -69t-171.5 -171q-66 -104 -95.5 -222t-29.5 -216zM104 672q0 150 41 269.5t113 205.5 q70 84 165 128t206 44t205 -47t163 -131q70 -86 109 -208t39 -271q0 -147 -45 -268.5t-119 -205.5t-168 -129t-192 -45t-192.5 47.5t-166.5 133.5t-115 206.5t-43 270.5z" />
<glyph unicode="1" horiz-adv-x="509" d="M70 1303h231v-1274h-164v-29h357v29h-164v1302h-260v-28z" />
<glyph unicode="2" horiz-adv-x="1013" d="M102 961q0 -84 25 -142.5t68 -107.5l18 16q-41 45 -61.5 103.5t-20.5 130.5q0 53 14.5 115.5t53.5 117.5q37 53 101.5 89t166.5 36q51 0 108.5 -18.5t106.5 -63.5t82 -121t33 -190q0 -96 -58.5 -206t-152.5 -226q-96 -119 -221 -243t-256 -251h811v260h-29v-231h-709 q106 111 220 224.5t208 227.5q94 115 154.5 232.5t60.5 236.5q0 86 -25.5 159t-72.5 126q-49 53 -114.5 83t-145.5 30q-88 0 -156.5 -30t-113.5 -81q-47 -53 -71 -124t-24 -152z" />
<glyph unicode="3" horiz-adv-x="1054" d="M190 119q57 -61 135 -98t171 -37q86 0 162 32.5t133 89.5q57 55 89.5 131t32.5 162q0 92 -36.5 171t-98.5 135q-63 55 -146 84.5t-175 25.5l407 516h-653v-168h29v140h559l-434 -564q29 23 60.5 35t63.5 12q80 0 153 -30.5t126 -81.5q53 -53 85 -124t32 -151 q0 -78 -32 -148.5t-85 -123.5t-126 -84t-153 -31q-86 0 -157.5 37t-120.5 96z" />
<glyph unicode="4" horiz-adv-x="1034" d="M76 375h721v-346h-158v-29h356v29h-170v346h199v28h-199v945zM137 403l660 861v-861h-660z" />
<glyph unicode="5" horiz-adv-x="1112" d="M236 98q57 -53 129.5 -83.5t156.5 -30.5q86 0 163 32.5t134 89.5q55 55 89 131t34 162t-34 161t-89 130q-57 55 -134 87t-163 32q-53 0 -103 -12.5t-97 -34.5v541h530v-140h29v168h-588v-633q35 35 94 58.5t131 23.5q82 0 153.5 -29.5t125.5 -80.5q53 -53 84.5 -122 t31.5 -149q0 -78 -31.5 -148.5t-84.5 -123.5t-125 -84t-154 -31q-78 0 -144.5 28t-115.5 79z" />
<glyph unicode="6" horiz-adv-x="1064" d="M102 395q0 -86 33 -160.5t90 -130.5q55 -55 132 -87.5t163 -32.5t163 32.5t134 87.5q55 55 88 130t33 161t-33 161t-88 132q-57 55 -134 88t-163 33q-104 0 -190 -45t-144 -121q25 57 73 128t124 153q74 80 178.5 168t241.5 178q-4 6 -10.5 13t-10.5 13 q-115 -84 -235.5 -179t-218.5 -206t-162 -238.5t-64 -277.5zM129 395q0 80 30.5 149.5t84.5 123.5q51 51 122.5 81.5t151.5 30.5t151.5 -30.5t125.5 -81.5q53 -53 83.5 -123t30.5 -150t-30.5 -149.5t-83.5 -120.5q-53 -53 -125 -83t-152 -30t-151.5 30t-122.5 83 q-53 51 -84 120.5t-31 149.5z" />
<glyph unicode="7" horiz-adv-x="960" d="M29 1163h28v140h746l-588 -1303h37l598 1331h-821v-168z" />
<glyph unicode="8" horiz-adv-x="1044" d="M109 399q0 -86 32.5 -161.5t89.5 -131.5q55 -57 130 -89.5t161 -32.5t163 32.5t134 89.5q55 55 89 131t34 162q0 74 -24.5 138.5t-67.5 117.5q-43 51 -101.5 88t-125.5 54q84 29 136 97.5t52 158.5q0 61 -23.5 114.5t-62.5 94.5q-41 39 -94 62.5t-115 23.5 q-61 0 -114.5 -22.5t-92.5 -61.5q-41 -39 -64.5 -91.5t-23.5 -111.5q0 -94 55.5 -165t141.5 -99q-68 -16 -124 -54t-97 -90q-41 -53 -64.5 -117.5t-23.5 -136.5zM137 399q0 80 30 148.5t81 122.5q51 51 120.5 80.5t149.5 29.5q82 0 153.5 -29.5t125.5 -80.5 q53 -53 84.5 -122t31.5 -149q0 -78 -31.5 -148.5t-84.5 -123.5t-125 -85t-154 -32q-80 0 -149.5 32t-120.5 85t-81 124t-30 148zM250 1047q0 55 20.5 104t57.5 86t86 59.5t106 22.5q55 0 103.5 -22.5t85.5 -59.5q35 -37 54 -86t19 -104q0 -51 -19.5 -94.5t-53.5 -73.5 q-37 -33 -85.5 -50.5t-103.5 -17.5q-57 0 -106 17.5t-86 50.5q-37 31 -57.5 73.5t-20.5 94.5z" />
<glyph unicode="9" horiz-adv-x="1075" d="M113 885q0 -86 32.5 -161t90.5 -130q55 -57 131.5 -90t162.5 -33q104 0 190.5 45t143.5 121q-25 -57 -73 -128t-121 -151q-76 -82 -180.5 -170t-241.5 -178q4 -6 10 -13t10 -13q115 84 236 179t219 206t161.5 238.5t63.5 277.5q0 86 -32.5 160.5t-88.5 130.5 q-57 55 -134 87.5t-163 32.5t-162.5 -32.5t-131.5 -87.5q-57 -55 -90 -130t-33 -161zM141 885q0 80 31 149.5t84 122.5q53 51 125 81t151 30q80 0 152 -30t125 -81q51 -53 82 -122.5t31 -149.5t-31 -150.5t-82 -122.5q-53 -53 -125 -82.5t-152 -29.5t-151.5 29.5 t-124.5 82.5q-53 51 -84 122t-31 151z" />
<glyph unicode=":" horiz-adv-x="358" d="M133 41q0 -16 12.5 -28.5t28.5 -12.5t28.5 12.5t12.5 28.5t-12.5 28.5t-28.5 12.5t-28.5 -12.5t-12.5 -28.5zM133 553q0 -16 12.5 -28.5t28.5 -12.5t28.5 12.5t12.5 28.5t-12.5 28.5t-28.5 12.5t-28.5 -12.5t-12.5 -28.5z" />
<glyph unicode=";" horiz-adv-x="411" d="M25 -246h28q45 106 88 211t88 211h-47q-41 -106 -78.5 -210.5t-78.5 -211.5zM180 553q0 -16 12.5 -28.5t28.5 -12.5t28.5 12.5t12.5 28.5t-12 28.5t-29 12.5q-16 0 -28.5 -12.5t-12.5 -28.5z" />
<glyph unicode="&#x3c;" horiz-adv-x="1392" d="M236 487q225 -129 448 -259t449 -259v33q-211 123 -422 243t-422 242q211 123 422 243t422 243v33q-225 -129 -448.5 -259.5t-448.5 -259.5z" />
<glyph unicode="=" horiz-adv-x="1449" d="M205 307h1036v29h-1036v-29zM205 705h1036v28h-1036v-28z" />
<glyph unicode="&#x3e;" horiz-adv-x="1331" d="M236 2v-33q225 129 448.5 259t448.5 259q-225 129 -448.5 259.5t-448.5 259.5v-33q211 -123 421.5 -243t421.5 -243q-211 -123 -422 -242.5t-421 -242.5z" />
<glyph unicode="?" horiz-adv-x="925" d="M63 1227q6 -2 13.5 -3t13.5 -3q18 55 52 101t81 79t102.5 51t116.5 18q78 0 146.5 -27.5t120.5 -78.5q49 -49 77.5 -116.5t28.5 -147.5q0 -76 -28.5 -142.5t-92.5 -121.5q-49 -43 -97 -73t-85 -58q-39 -31 -62.5 -69t-23.5 -101v-199h29v160q0 68 14 106.5t39 63.5 q27 25 60.5 44t74.5 48q92 66 146.5 148.5t54.5 193.5q0 82 -31 154.5t-84 125.5q-55 55 -129 87t-158 32q-66 0 -126 -20.5t-109 -55.5q-49 -37 -86 -87t-58 -109zM401 92q0 -16 12.5 -28.5t26.5 -12.5q16 0 28.5 12.5t12.5 28.5q0 18 -12 29.5t-29 11.5q-14 0 -26.5 -11 t-12.5 -30z" />
<glyph unicode="@" horiz-adv-x="2027" d="M193 387q0 -168 63 -315.5t174 -257.5q109 -111 256.5 -174.5t314.5 -63.5q135 0 250 40t217 110q-4 6 -9 11t-9 11q-96 -66 -209 -104.5t-240 -38.5q-162 0 -304 61.5t-246 165.5q-106 106 -168 248.5t-62 304.5t61.5 305.5t168.5 249.5q104 106 246.5 167.5t303.5 61.5 q162 0 304.5 -61t248.5 -168q106 -106 168 -249.5t62 -305.5q-2 -102 -21.5 -174t-54.5 -115q-29 -35 -69 -52t-91 -17h-145v741h-21q-4 -59 -6 -117.5t-2 -118.5q-16 39 -39.5 75t-54.5 65q-53 53 -124 82.5t-152 29.5q-84 0 -156 -31.5t-127 -84.5q-53 -53 -84 -127 t-31 -156q0 -84 31 -155.5t84 -127.5q55 -53 127 -83.5t156 -30.5q63 0 121.5 18.5t107.5 50.5q47 35 84 81t59 102l-2 -129v-111h160q51 0 99 14.5t87 55.5q39 43 63.5 118.5t28.5 196.5q0 168 -63 316.5t-174 259.5t-258.5 174t-315.5 63t-315 -63.5t-256 -173.5 q-111 -111 -174 -258.5t-63 -315.5zM635 385q0 76 28.5 143.5t79.5 118.5q49 51 116 80t145 29q76 0 143 -29t119 -80q51 -51 79.5 -118.5t28.5 -143.5q0 -78 -28.5 -144.5t-79.5 -115.5q-51 -51 -119 -80t-143 -29q-78 0 -145 29t-116 80q-51 49 -79.5 115.5t-28.5 144.5z " />
<glyph unicode="A" horiz-adv-x="1695" d="M72 0h356v29h-172q66 154 131.5 308.5t130.5 309.5h660q66 -156 131 -310.5t131 -307.5h-172v-29h356v29h-154q-156 369 -311 734t-311 736q-156 -371 -312.5 -736.5t-312.5 -733.5h-151v-29zM530 676q76 178 152.5 352t146.5 354q6 20 11.5 32.5t7.5 19.5l18 -52 l299 -706h-635z" />
<glyph unicode="B" horiz-adv-x="1056" d="M72 0h479q84 0 162 23.5t139 70.5q59 45 96 113.5t37 161.5q0 74 -25.5 133t-68.5 104q-45 45 -102.5 74t-118.5 41q133 35 196.5 131t63.5 223q0 94 -30 163t-85 112t-132 63.5t-169 20.5h-442v-29h145v-1376h-145v-29zM246 29v676h264q86 0 166 -20.5t143 -61.5 q61 -41 99 -106.5t38 -154.5q0 -84 -32.5 -146t-87.5 -103q-55 -43 -130 -63.5t-157 -20.5h-303zM246 733v672h293q80 0 146.5 -18.5t115.5 -57.5q47 -39 73.5 -100.5t26.5 -147.5q0 -156 -95 -252t-259 -96h-301z" />
<glyph unicode="C" horiz-adv-x="1249" d="M72 715q0 -152 57 -285t158 -231q98 -100 231 -157.5t285 -57.5q104 0 197.5 27.5t175.5 74.5l-19 25q-80 -47 -171 -73t-189 -26q-143 0 -270.5 55.5t-221.5 151.5q-94 94 -149.5 221t-55.5 273q0 145 55.5 274t151.5 225q94 96 222 152.5t274 56.5q92 0 180 -23.5 t166 -68.5v-211h29v230q-84 49 -177.5 75.5t-197.5 26.5q-152 0 -285 -58.5t-231 -156.5q-100 -100 -157.5 -234.5t-57.5 -285.5z" />
<glyph unicode="D" horiz-adv-x="1294" d="M72 0h360q217 0 367.5 66.5t244.5 171.5q94 104 136.5 231t42.5 248q0 164 -57.5 297t-155.5 227q-98 92 -229.5 142.5t-278.5 50.5h-430v-29h149v-1376h-149v-29zM250 29v1376h264q137 0 261 -48t218 -136q94 -90 148.5 -218.5t54.5 -285.5q0 -117 -40 -239t-128 -220 q-90 -100 -232.5 -164.5t-344.5 -64.5h-201z" />
<glyph unicode="E" horiz-adv-x="1169" d="M72 0h1026v315h-29v-286h-801v680h721v28h-721v668h772v-287h29v316h-997v-29h168v-1376h-168v-29z" />
<glyph unicode="F" horiz-adv-x="1140" d="M72 0h356v29h-160v680h721v28h-721v668h772v-287h29v316h-997v-29h168v-1376h-168v-29z" />
<glyph unicode="G" horiz-adv-x="1247" d="M72 711q0 -152 57 -285t158 -231q98 -100 231 -157.5t285 -57.5q104 0 197.5 27.5t175.5 74.5v528h-381v-28h352v-482q-78 -45 -166 -68.5t-184 -23.5q-143 0 -270.5 55.5t-221.5 151.5q-94 94 -149.5 221t-55.5 273q0 145 55.5 274t151.5 225q94 96 222 152.5t274 56.5 q98 0 189 -25.5t169 -72.5l17 24q-84 49 -177.5 76t-197.5 27q-152 0 -285 -58.5t-231 -156.5q-100 -100 -157.5 -234.5t-57.5 -285.5z" />
<glyph unicode="H" horiz-adv-x="1466" d="M72 0h356v29h-170v680h950v-680h-170v-29h357v29h-158v1376h158v29h-357v-29h170v-668h-950v668h170v29h-356v-29h157v-1376h-157v-29z" />
<glyph unicode="I" horiz-adv-x="499" d="M72 0h356v29h-170v1376h170v29h-356v-29h157v-1376h-157v-29z" />
<glyph unicode="J" horiz-adv-x="522" d="M72 -262v-29q78 2 146.5 35t121.5 92q51 59 81 146.5t30 201.5v1250h-379v-29h350v-1215q0 -104 -26.5 -186t-73.5 -139q-47 -59 -111 -91t-139 -36z" />
<glyph unicode="K" horiz-adv-x="1404" d="M72 0h356v29h-170v618l211 201q162 -205 322.5 -410t320.5 -409h-135v-29h356v29h-180q-166 211 -331 419.5t-330 419.5l563 537h180v29h-356v-29h131l-717 -686l-37 -41q0 16 1 29.5t1 29.5v668h170v29h-356v-29h157v-1376h-157v-29z" />
<glyph unicode="L" horiz-adv-x="1159" d="M72 0h1015v315h-28v-286h-801v1376h170v29h-356v-29h157v-1376h-157v-29z" />
<glyph unicode="M" horiz-adv-x="1968" d="M72 0h356v29h-170v1292q0 23 -1 46.5t-1 45.5q12 -18 18.5 -26.5t18.5 -24.5l686 -895l672 876q16 23 25.5 35.5t25.5 34.5q0 -31 -1 -46t-1 -46v-1292h-160v-29h356v29h-167v1376h157v29h-205q-176 -227 -351 -458t-351 -458q-135 174 -326.5 425t-376.5 491h-204v-29 h157v-1376h-157v-29z" />
<glyph unicode="N" horiz-adv-x="1720" d="M72 0h356v29h-170v1331l-4 53l37 -41l1190 -1438v1471h168v29h-357v-29h160v-1335l6 -66l-39 53l-1136 1377h-211v-29h157v-1376h-157v-29z" />
<glyph unicode="O" horiz-adv-x="1609" d="M72 715q0 -152 57 -285t158 -231q98 -100 231 -157.5t285 -57.5t286 57.5t234 157.5q98 98 156.5 231t58.5 285t-58.5 286t-156.5 234q-100 98 -234.5 156.5t-285.5 58.5q-152 0 -285 -58.5t-231 -156.5q-100 -100 -157.5 -234.5t-57.5 -285.5zM100 713q0 145 55.5 274 t151.5 225q94 96 222 152.5t274 56.5q145 0 273 -56t224 -153q96 -96 152.5 -224t56.5 -273t-56 -273.5t-153 -222.5q-98 -96 -228 -151.5t-275 -55.5q-143 0 -270.5 55.5t-221.5 151.5q-94 94 -149.5 221t-55.5 273z" />
<glyph unicode="P" horiz-adv-x="985" d="M72 0h356v29h-182v669h229q211 0 324.5 100.5t113.5 270.5q0 98 -42 168t-103 113t-133 63.5t-131 20.5h-432v-29h145v-1376h-145v-29zM246 727v678h237q86 0 159 -27.5t128 -72.5q53 -47 84 -107.5t31 -128.5q0 -55 -18.5 -115.5t-63.5 -109.5q-47 -51 -125 -84 t-197 -33h-235z" />
<glyph unicode="Q" horiz-adv-x="1654" d="M72 715q0 -152 57 -285t158 -231q98 -100 231 -157.5t285 -57.5q37 0 74.5 4t76.5 12h629v29h-526q104 39 193 106.5t153 157.5q63 88 99 195.5t36 226.5q0 152 -58.5 286t-156.5 234q-100 98 -234.5 156.5t-285.5 58.5q-152 0 -285 -58.5t-231 -156.5 q-100 -100 -157.5 -234.5t-57.5 -285.5zM100 713q0 145 55.5 274t151.5 225q94 96 222 152.5t274 56.5q145 0 273 -56t224 -153q96 -96 152.5 -224t56.5 -273t-56 -273.5t-153 -222.5q-98 -96 -228 -151.5t-275 -55.5q-143 0 -270.5 55.5t-221.5 151.5q-94 94 -149.5 221 t-55.5 273z" />
<glyph unicode="R" horiz-adv-x="1165" d="M72 0h356v29h-182v669h229q25 0 49.5 2t46.5 5l334 -705h189v29h-172l-320 680q152 29 231.5 124t79.5 236q0 98 -42 168t-103 113t-133 63.5t-131 20.5h-432v-29h145v-1376h-145v-29zM246 727v678h237q86 0 159 -27.5t128 -72.5q53 -47 84 -107.5t31 -128.5 q0 -55 -18.5 -115.5t-63.5 -109.5q-47 -51 -125 -84t-197 -33h-235z" />
<glyph unicode="S" horiz-adv-x="978" d="M94 131q18 -18 52 -43t83 -47q47 -25 112 -41t146 -16q90 0 170.5 27.5t139.5 80.5q59 51 93 125q32 70 32 154v10q-2 133 -59.5 207t-141.5 117q-86 41 -183.5 63.5t-179.5 56.5q-84 33 -139 91.5t-55 168.5q0 63 19.5 122t60.5 106q39 45 99 72.5t140 27.5 q98 0 168 -22.5t111 -53.5v-219h29v234q-33 27 -72 45t-78 28q-41 8 -81 12.5t-73 4.5q-96 0 -163.5 -34t-110.5 -89t-63 -124q-16 -57 -16 -113q0 -11 1 -23q4 -84 40 -137.5t91 -85.5q53 -35 121 -56.5t137 -40.5q70 -20 136.5 -43.5t117.5 -62.5q51 -41 83 -103.5 t32 -156.5q0 -82 -35 -148.5t-90 -113.5q-57 -47 -131 -73t-154 -26q-127 0 -214 40t-146 100v184h-29v-205z" />
<glyph unicode="T" horiz-adv-x="1275" d="M72 1118h28v287h523v-1376h-162v-29h356v29h-166v1376h525v-287h28v316h-1132v-316z" />
<glyph unicode="U" horiz-adv-x="1380" d="M72 1405h157v-942q0 -117 35 -207t96 -150q61 -61 146.5 -91.5t183.5 -30.5t182.5 30.5t145.5 91.5q61 59 97 149.5t36 207.5v942h158v29h-357v-29h170v-936q0 -111 -32.5 -196t-90.5 -142q-57 -59 -137 -89t-172 -30q-94 0 -174 30t-137 89q-57 57 -89 142t-32 196v936 h170v29h-356v-29z" />
<glyph unicode="V" horiz-adv-x="1728" d="M72 1405h168q156 -371 312.5 -736.5t311.5 -734.5q156 369 311.5 734.5t311.5 736.5h170v29h-357v-29h156q-143 -342 -286.5 -678t-286.5 -676l-19 -51l-18 51q-143 340 -286.5 676t-287.5 678h156v29h-356v-29z" />
<glyph unicode="W" horiz-adv-x="2498" d="M72 1405h168q156 -371 312.5 -736.5t311.5 -734.5q37 84 72 169t70 167q59 139 118.5 280.5t120.5 283.5l19 -46l362 -854q156 369 311.5 734.5t311.5 736.5h178v29h-356v-29h147q-143 -342 -286.5 -678t-286.5 -676l-19 -51l-18 51q-147 338 -289.5 675t-284.5 679h164 v29h-356v-29h162q57 -135 113.5 -268t111.5 -267q-61 -145 -125 -290.5t-123 -290.5q-31 -72 -60.5 -144.5t-56.5 -144.5l-18 51q-147 338 -289.5 675t-284.5 679h156v29h-356v-29z" />
<glyph unicode="X" horiz-adv-x="1454" d="M72 0h356v29h-143q104 166 210.5 328.5t211.5 328.5l16 27q25 -33 46.5 -70t43.5 -72l356 -542h-143v-29h356v29h-178q-115 176 -228.5 349t-227.5 351q109 170 216 337t216 339h202v29h-356v-29h121l-399 -625l-17 -26l-16 26q-102 156 -202.5 311.5t-205.5 313.5h121 v29h-356v-29h202l433 -668l-453 -708h-182v-29z" />
<glyph unicode="Y" horiz-adv-x="1470" d="M72 1405h127q131 -217 261 -434t261 -434v-508h-162v-29h356v29h-165v508q129 217 259 433t259 435h131v29h-357v-29h191l-473 -795l-23 -53h-2l-24 53q-117 201 -237 397.5t-241 397.5h195v29h-356v-29z" />
<glyph unicode="Z" horiz-adv-x="1288" d="M72 0h1145v356h-29v-327h-1075l1044 1376v29h-1018v71h-33v-100h1010l-1044 -1376v-29z" />
<glyph unicode="[" horiz-adv-x="692" d="M170 -305h334v29h-301v1775h301v29h-334v-1833z" />
<glyph unicode="\" horiz-adv-x="655" d="M35 1507q143 -389 284.5 -773t284.5 -773h29q-143 389 -284.5 773t-285.5 773h-28z" />
<glyph unicode="]" horiz-adv-x="700" d="M180 -276v-29h334v1833h-334v-29h301v-1775h-301z" />
<glyph unicode="^" horiz-adv-x="962" d="M229 981h33q53 78 106.5 158t106.5 157q53 -78 106.5 -157.5t106.5 -157.5h33q-61 92 -122.5 185.5t-123.5 185.5q-61 -92 -122.5 -185.5t-123.5 -185.5z" />
<glyph unicode="_" horiz-adv-x="1228" d="M205 0h819v29h-819v-29z" />
<glyph unicode="`" horiz-adv-x="409" d="M-29 1253q47 -68 92.5 -136t92.5 -136h32q-47 68 -92 136.5t-92 135.5h-33z" />
<glyph unicode="a" d="M72 385q0 -84 30.5 -155.5t85.5 -125.5q53 -55 125 -85.5t156 -30.5q63 0 121.5 18.5t107.5 52.5q47 33 84 79t60 102q0 -33 -1 -65t-1 -64v-111h178v29h-150v739h-20q-4 -59 -6 -117.5t-2 -118.5q-45 111 -144.5 181.5t-226.5 70.5q-84 0 -155.5 -31.5t-125.5 -84.5 q-55 -53 -85.5 -127t-30.5 -156zM100 385q0 76 29 143.5t80 118.5q49 51 115.5 80t144.5 29q76 0 143.5 -29t118.5 -80t80 -118.5t29 -143.5q0 -78 -29 -144.5t-80 -115.5q-51 -51 -118.5 -80t-143.5 -29q-78 0 -144.5 29t-115.5 80q-51 49 -80 115.5t-29 144.5z" />
<glyph unicode="b" d="M72 0h178v111q0 33 -1 64.5t-1 64.5q20 -55 58 -101.5t87 -79.5q47 -35 105.5 -53t122.5 -18q82 0 154.5 30.5t127.5 85.5q53 53 84 125t31 156q0 82 -31 155.5t-84 127.5q-55 53 -128 84.5t-154 31.5q-63 0 -122 -18t-106 -51q-49 -35 -86 -81t-57 -102v62.5v62.5v879 h-178v-29h149v-1478h-149v-29zM250 385q0 76 28.5 143.5t79.5 118.5t118 80t145 29q76 0 143 -29t119 -80q49 -51 77.5 -118.5t28.5 -143.5q0 -78 -28.5 -144.5t-77.5 -115.5q-51 -51 -119 -80t-143 -29q-78 0 -144.5 29t-118.5 80q-51 49 -79.5 115.5t-28.5 144.5z" />
<glyph unicode="c" horiz-adv-x="792" d="M72 385q0 -84 30.5 -155.5t85.5 -125.5q53 -55 125 -85.5t156 -30.5q72 0 135.5 23.5t116.5 64.5l-21 20q-47 -37 -106 -58.5t-125 -21.5q-78 0 -144.5 29t-115.5 80q-51 49 -80 115.5t-29 144.5q0 76 29 143.5t80 118.5q49 51 115.5 80t144.5 29q63 0 119.5 -20.5 t103.5 -55.5v-162h29v178q-51 41 -115.5 64.5t-136.5 23.5q-84 0 -155.5 -31.5t-125.5 -84.5q-55 -53 -85.5 -127t-30.5 -156z" />
<glyph unicode="d" d="M72 385q0 -84 30.5 -155.5t85.5 -125.5q53 -55 125 -85.5t156 -30.5q63 0 121.5 18.5t107.5 52.5q47 33 84 79t60 102q0 -33 -1 -65t-1 -64v-111h178v29h-150v1507h-178v-29h150v-731v-122v-122q-23 55 -59 101.5t-83 81.5q-49 33 -107.5 51t-121.5 18 q-84 0 -155.5 -31.5t-125.5 -84.5q-55 -53 -85.5 -127t-30.5 -156zM100 385q0 76 29 143.5t80 118.5q49 51 115.5 80t144.5 29q76 0 143.5 -29t118.5 -80t80 -118.5t29 -143.5q0 -78 -29 -144.5t-80 -115.5q-51 -51 -118.5 -80t-143.5 -29q-78 0 -144.5 29t-115.5 80 q-51 49 -80 115.5t-29 144.5z" />
<glyph unicode="e" horiz-adv-x="890" d="M72 385q0 -84 30.5 -155.5t85.5 -127.5q53 -53 125 -83.5t156 -30.5q80 0 149.5 28.5t122.5 77.5l-18 23q-49 -47 -114.5 -74t-139.5 -27q-119 0 -211 64.5t-133 169.5q174 72 345 140.5t345 139.5q-20 55 -53 100.5t-74 78.5q-45 37 -101.5 56t-117.5 19 q-84 0 -155.5 -31.5t-125.5 -84.5q-55 -53 -85.5 -127t-30.5 -156zM106 450q18 86 68 154q49 68 126 110t169 42q102 0 185 -58.5t124 -152.5q-166 -68 -331.5 -134.5t-331.5 -134.5q-16 53 -16 106q0 34 7 68z" />
<glyph unicode="f" horiz-adv-x="575" d="M72 0h356v29h-203v710h267v29h-267v301q0 100 29 181t78 139q47 57 110.5 87.5t132.5 30.5v29q-78 -4 -146.5 -36t-119.5 -91q-53 -59 -82.5 -147t-29.5 -201v-293h-125v-29h125v-710h-125v-29z" />
<glyph unicode="g" horiz-adv-x="1091" d="M72 385q0 -84 30.5 -155.5t85.5 -125.5q53 -55 125 -85.5t156 -30.5q63 0 121.5 18.5t107.5 52.5q47 33 84 79t60 102q0 -33 -1 -65t-1 -64v-156q0 -100 -29 -181t-76 -139q-47 -57 -111.5 -87.5t-134.5 -30.5q-84 0 -159.5 26.5t-122.5 81.5l-23 -20q53 -63 128 -90 t177 -27q78 2 147 35t122 92q51 59 80.5 146t29.5 202v776h152v29h-172q-4 -59 -6 -117.5t-2 -118.5q-45 111 -144.5 181.5t-226.5 70.5q-84 0 -155.5 -31.5t-125.5 -84.5q-55 -53 -85.5 -127t-30.5 -156zM100 385q0 76 29 143.5t80 118.5q49 51 115.5 80t144.5 29 q76 0 143.5 -29t118.5 -80t80 -118.5t29 -143.5q0 -78 -29 -144.5t-80 -115.5q-51 -51 -118.5 -80t-143.5 -29q-78 0 -144.5 29t-115.5 80q-51 49 -80 115.5t-29 144.5z" />
<glyph unicode="h" horiz-adv-x="1069" d="M72 0h356v29h-166v422q0 66 27.5 122t77.5 97q47 39 109.5 61.5t131.5 22.5q90 -4 140.5 -58.5t54.5 -128.5v-538h-162v-29h356v29h-166v524q-4 102 -66.5 165.5t-170.5 63.5q-117 0 -207 -59t-131 -156l6 92v877h-178v-29h149v-1478h-161v-29z" />
<glyph unicode="i" horiz-adv-x="499" d="M72 0h356v29h-160v739h-196v-29h168v-710h-168v-29zM213 1024q0 -16 12.5 -28.5t28.5 -12.5t28.5 12.5t12.5 28.5t-12.5 28.5t-28.5 12.5t-28.5 -12.5t-12.5 -28.5z" />
<glyph unicode="j" horiz-adv-x="339" d="M72 739h168v-762q0 -104 -31 -187t-82 -140l25 -19q53 59 84.5 148.5t31.5 206.5v782h-196v-29zM213 1024q0 -16 12.5 -28.5t28.5 -12.5t28.5 12.5t12.5 28.5t-12.5 28.5t-28.5 12.5t-28.5 -12.5t-12.5 -28.5z" />
<glyph unicode="k" horiz-adv-x="997" d="M70 1507h149v-1478h-147v-29h356v29h-180v288l151 144q78 -111 159 -217.5t161 -214.5h-150v-29h357v29h-170q-84 113 -167 225.5t-165 226.5q78 74 136 129.5t132 128.5h162v29h-356v-29h155l-405 -379v1176h-178v-29z" />
<glyph unicode="l" horiz-adv-x="499" d="M70 1507h149v-1478h-147v-29h356v29h-180v1507h-178v-29z" />
<glyph unicode="m" horiz-adv-x="1638" d="M72 0h356v29h-166v422q0 66 27.5 122t77.5 97q47 39 109.5 61.5t131.5 22.5q90 -4 140.5 -58.5t54.5 -128.5v-538h-162v-29h356v29h-166v434q2 63 32 116.5t77 92.5t108.5 60.5t129.5 21.5q90 -4 140 -58.5t54 -128.5v-538h-162v-29h357v29h-166v524q-4 102 -66.5 165.5 t-171.5 63.5q-113 0 -202 -56t-132 -148q-10 92 -72.5 148t-162.5 56q-117 0 -207 -59t-131 -156q0 27 -1 46.5t-1 45.5l-4 109h-170v-29h153v-710h-161v-29z" />
<glyph unicode="n" horiz-adv-x="1069" d="M72 0h356v29h-166v422q0 66 27.5 122t77.5 97q47 39 109.5 61.5t131.5 22.5q90 -4 140.5 -58.5t54.5 -128.5v-538h-162v-29h356v29h-166v524q-4 102 -66.5 165.5t-170.5 63.5q-117 0 -207 -59t-131 -156q0 27 -1 46.5t-1 45.5l-4 109h-170v-29h153v-710h-161v-29z" />
<glyph unicode="o" horiz-adv-x="944" d="M74 385q0 -84 30.5 -155.5t85.5 -125.5q53 -55 125 -85.5t156 -30.5q82 0 156 30.5t129 85.5q53 53 84.5 125t31.5 156q0 82 -31.5 155.5t-84.5 129.5q-55 53 -129 84.5t-156 31.5q-84 0 -155.5 -31.5t-125.5 -84.5q-55 -55 -85.5 -129t-30.5 -156zM102 385 q0 76 29 143.5t80 118.5q49 51 115.5 80t144.5 29q76 0 143.5 -29t118.5 -80t80 -118.5t29 -143.5q0 -78 -29 -144.5t-80 -115.5q-51 -51 -118.5 -80t-143.5 -29q-78 0 -144.5 29t-115.5 80q-51 49 -80 115.5t-29 144.5z" />
<glyph unicode="p" d="M72 739h149v-1222h-135v-29h356v29h-190v608q0 29 -1 55.5t-1 55.5q20 -55 57 -101.5t86 -79.5q47 -35 105.5 -53t122.5 -18q82 0 154.5 31.5t127.5 84.5q53 53 84 126t31 157q0 82 -31 154.5t-84 128.5q-55 53 -128 83.5t-154 30.5q-129 0 -229.5 -70.5t-143.5 -183.5 q0 59 -3 121t-3 121h-170v-29zM250 383q0 76 28.5 143.5t79.5 118.5q51 49 118 78t145 29q76 0 143 -29t119 -78q49 -51 77.5 -118.5t28.5 -143.5q0 -78 -28.5 -144.5t-77.5 -117.5q-51 -51 -119 -80t-143 -29q-78 0 -144.5 29t-118.5 80q-51 51 -79.5 117.5t-28.5 144.5z " />
<glyph unicode="q" d="M72 383q0 -84 30.5 -156.5t85.5 -126.5q53 -53 125 -84.5t156 -31.5q63 0 121.5 18t107.5 53q47 33 83 79t59 102q0 -29 -1 -55.5t-1 -55.5v-608h-181v-29h357v29h-146v1222h150v29h-170q0 -59 -3 -120.5t-3 -121.5q-43 113 -143.5 183.5t-229.5 70.5q-84 0 -155.5 -30.5 t-125.5 -83.5q-55 -55 -85.5 -128t-30.5 -155zM100 383q0 76 29 143.5t80 118.5q49 49 115.5 78t144.5 29q76 0 143.5 -29t118.5 -78q51 -51 80 -118.5t29 -143.5q0 -78 -29 -144.5t-80 -117.5t-118.5 -80t-143.5 -29q-78 0 -144.5 29t-115.5 80q-51 51 -80 117.5t-29 144.5 z" />
<glyph unicode="r" horiz-adv-x="667" d="M72 0h356v29h-166v422q0 63 26.5 118.5t71.5 94.5q47 41 107.5 64.5t128.5 25.5v28q-57 -2 -107.5 -16t-93.5 -41q-47 -27 -81.5 -67t-57.5 -91q0 27 -1 46.5t-1 45.5l-4 109h-170v-29h153v-710h-161v-29z" />
<glyph unicode="s" horiz-adv-x="645" d="M113 53q51 -43 109.5 -56t115.5 -13q61 0 108 20t78 53q29 31 43.5 71t14.5 79q0 68 -31 105.5t-76 60.5q-47 23 -100 36t-101 33q-46 18 -76 50q-29 30 -28 85v7q0 45 17.5 76.5t43.5 52.5q27 18 62 26.5t61 8.5q47 0 89 -10.5t79 -35.5v-120h29v133q-16 14 -37.5 25.5 t-46.5 19.5q-35 10 -55.5 13t-51.5 3q-39 0 -81.5 -13t-73.5 -40q-29 -27 -46.5 -63.5t-17.5 -86.5q0 -63 31 -98t76 -53q45 -20 99 -34.5t99 -35.5q45 -18 76 -53t31 -98q0 -47 -18.5 -82t-47.5 -58q-31 -25 -66.5 -37t-76.5 -12q-51 0 -103.5 9.5t-99.5 44.5v120h-28v-133 z" />
<glyph unicode="t" horiz-adv-x="614" d="M72 739h182v-739h207v29h-178v710h260v29h-260v500h-29v-500h-182v-29z" />
<glyph unicode="u" horiz-adv-x="1060" d="M72 739h161v-524q4 -102 66.5 -165.5t171.5 -63.5q115 0 206 58.5t132 156.5l4 -92l6 -109h170v29h-158v739h-190v-29h162v-422q0 -66 -29 -122t-76 -95q-47 -41 -109.5 -63.5t-131.5 -22.5q-90 4 -140.5 58.5t-54.5 128.5v567h-190v-29z" />
<glyph unicode="v" horiz-adv-x="1208" d="M72 739h147q98 -199 195.5 -393t195.5 -393q98 199 195.5 393t195.5 393h136v29h-285v-29h119q-92 -186 -184.5 -370.5t-176.5 -352.5q-92 180 -181 361.5t-179 361.5h151v29h-329v-29z" />
<glyph unicode="w" horiz-adv-x="1761" d="M72 739h147q98 -199 195.5 -393t195.5 -393l279 561l278 -561q98 199 195.5 393.5t196.5 392.5h131v29h-285v-29h123q-92 -182 -180 -361t-181 -362q-92 180 -181 360.5t-179 362.5h147v29h-329v-29h151l96 -194q-66 -133 -131 -264t-131 -265q-92 180 -181 360.5 t-179 362.5h151v29h-329v-29z" />
<glyph unicode="x" horiz-adv-x="999" d="M72 0h356v29h-172q59 82 117.5 163.5t118.5 165.5q59 -82 119.5 -162.5t121.5 -166.5h-162v-29h357v29h-162q-66 90 -129.5 176t-128.5 176l258 358h162v29h-357v-29h160l-239 -333l-244 333h180v29h-356v-29h139q66 -92 131.5 -179t130.5 -177q-66 -90 -127 -178 t-127 -176h-147v-29z" />
<glyph unicode="y" horiz-adv-x="1208" d="M72 739h147q92 -188 185.5 -374.5t187.5 -372.5q-59 -117 -118.5 -237t-119.5 -238h-166v-29h357v29h-152q154 307 304.5 611t303.5 611h136v29h-285v-29h113q-90 -180 -179.5 -360t-175.5 -350q-90 178 -178 354t-176 356h145v29h-329v-29z" />
<glyph unicode="z" horiz-adv-x="878" d="M72 0h735v133h-29v-104h-669q172 180 331.5 355t331.5 355v29h-647v72h-29v-101h639q-172 -180 -331.5 -355t-331.5 -355v-29z" />
<glyph unicode="{" horiz-adv-x="557" d="M61 588q49 -2 81 -30t51 -69q18 -41 24 -89t6 -89v-299q0 -121 9.5 -185.5t31.5 -92.5q23 -29 58.5 -33t76.5 -4h76v29h-117q-27 0 -45 8t-30 26q-18 27 -24.5 75t-6.5 120v307q0 94 -11.5 154.5t-29.5 99.5t-43 59.5t-51 36.5q27 14 51.5 35t42.5 58q18 39 29.5 100 t11.5 158v307q0 78 8 128t29 75q12 14 29.5 20t39.5 6h117v29h-76q-33 0 -64.5 -3t-55.5 -26q-25 -20 -40.5 -70.5t-15.5 -142.5v-373q0 -41 -6 -89t-24 -89t-50 -68.5t-82 -29.5v-49z" />
<glyph unicode="|" horiz-adv-x="448" d="M203 -475h28v1909h-28v-1909z" />
<glyph unicode="}" horiz-adv-x="655" d="M180 -274v-29h76q33 0 64.5 2t56.5 22q25 23 40 73t15 145v299q0 35 1 92t16 112q14 57 46.5 99.5t98.5 46.5v49q-43 2 -71.5 22.5t-47.5 51.5q-37 61 -40 144t-3 132v299q0 94 -15.5 143.5t-39.5 69.5q-25 23 -56.5 26t-64.5 3h-76v-29h117q29 0 48.5 -10t31.5 -31 q14 -27 20 -73t6 -115v-307q0 -96 11.5 -158t29.5 -100q18 -37 43 -57.5t52 -35.5q-18 -10 -42 -28.5t-44 -51.5q-20 -31 -35 -77.5t-15 -116.5v-383q0 -70 -6 -117t-22 -74q-12 -20 -31.5 -29t-46.5 -9h-117z" />
<glyph unicode="~" horiz-adv-x="1001" d="M270 971l27 -4q4 35 19.5 56t35.5 34q20 12 42 17t38 5q29 0 53.5 -12t57.5 -49q33 -35 66.5 -56.5t74.5 -21.5q29 0 57.5 7.5t53.5 23.5q23 16 39 42.5t18 63.5l-27 4q-4 -35 -19 -56t-36 -34q-20 -12 -41.5 -17t-38.5 -5q-29 0 -53.5 12t-56.5 49q-33 35 -67 56.5 t-75 21.5q-29 0 -57.5 -7t-50.5 -24q-25 -16 -41.5 -42.5t-18.5 -63.5z" />
<glyph unicode="&#xa1;" horiz-adv-x="409" d="M166 991q0 16 12 28.5t27 12.5q16 0 28.5 -12.5t12.5 -28.5q0 -18 -12.5 -29.5t-28.5 -11.5q-14 0 -26.5 11.5t-12.5 29.5zM190 -430v1196h29v-1196h-29z" />
<glyph unicode="&#xa2;" horiz-adv-x="788" d="M74 385q0 -80 28.5 -149.5t77.5 -120.5q49 -53 115.5 -86t144.5 -39v-129h29v127q72 0 136.5 23.5t117.5 64.5l-21 20q-47 -37 -107 -58.5t-126 -21.5v740q63 0 120.5 -20.5t104.5 -55.5v-164h29v180q-51 41 -116.5 64.5t-137.5 23.5v113h-29v-115q-78 -6 -144.5 -38.5 t-115.5 -86.5q-49 -53 -77.5 -122.5t-28.5 -149.5zM102 385q0 74 26 138.5t73 113.5q45 49 106.5 80t132.5 37v-738q-72 6 -133 37t-106 80q-47 49 -73 113.5t-26 138.5z" />
<glyph unicode="&#xa3;" horiz-adv-x="1175" d="M53 0h942v252h-28v-223h-736q29 29 38.5 82t9.5 112v414h264v29h-264v366q0 47 14 90t49 76q33 33 90 52.5t143 19.5q61 0 105.5 -8.5t79.5 -26.5t61.5 -50t52.5 -81l21 12q-41 82 -111.5 132t-208.5 50q-147 0 -236 -65.5t-89 -208.5v-358h-133v-29h133v-301 q0 -88 -3 -147.5t-14 -94.5q-10 -35 -31.5 -50t-58.5 -15h-90v-29z" />
<glyph unicode="&#xa4;" horiz-adv-x="1024" d="M223 469l21 -20l84 83q35 -31 81 -48t97 -17q53 0 97 17.5t81 50.5l84 -84l20 20l-83 84q33 37 52 84t19 100q0 51 -17.5 96.5t-47.5 79.5l77 78l-20 21l-78 -78q-35 35 -83 55.5t-101 20.5t-101.5 -19.5t-82.5 -54.5l-78 78l-21 -21l78 -77q-31 -37 -48 -82t-17 -97 q0 -53 18 -100t53 -86zM264 739q0 51 19.5 95.5t52.5 76.5q33 33 77 52.5t93 19.5t93 -19.5t77 -52.5t52.5 -76.5t19.5 -95.5q0 -51 -19.5 -95t-52.5 -77t-77 -52t-93 -19t-93 19.5t-77 51.5q-33 33 -52.5 77t-19.5 95z" />
<glyph unicode="&#xa5;" horiz-adv-x="1306" d="M27 1405h127l503 -838h-309v-28h328v-306h-328v-28h328v-176h-162v-29h356v29h-165v176h325v28h-325v306h325v28h-307l500 838h131v29h-357v-29h191l-473 -795l-23 -53h-2l-24 53l-478 795h195v29h-356v-29z" />
<glyph unicode="&#xa6;" horiz-adv-x="440" d="M209 240v-717h29v717h-29zM209 717h29v717h-29v-717z" />
<glyph unicode="&#xa7;" horiz-adv-x="1024" d="M297 741q0 -33 8 -62.5t25 -55.5l178 -308q35 -59 52.5 -102t17.5 -74q0 -27 -15.5 -46t-38.5 -34q-23 -14 -48 -27.5t-48 -27.5q4 -6 7 -12t7 -12q27 12 55.5 25.5t53.5 31.5q23 18 38 42.5t15 59.5q0 29 -14.5 72t-48.5 104l-131 226q29 -16 59.5 -25.5t60.5 -9.5 q49 0 90.5 19.5t71.5 52.5q29 33 45.5 73.5t16.5 83.5q0 31 -7.5 59.5t-23.5 55.5l-178 309q-35 59 -52.5 102.5t-17.5 73.5q0 27 15.5 46.5t37.5 33.5q23 14 48.5 27.5t48.5 27.5q-4 6 -7.5 12.5t-7.5 12.5q-27 -14 -55.5 -28.5t-52.5 -32.5q-25 -18 -40.5 -42t-15.5 -55 q0 -25 17.5 -70.5t46.5 -101.5q27 -55 61.5 -115.5t69.5 -115.5q-29 16 -59.5 24.5t-65.5 8.5q-49 0 -90 -19.5t-70 -50.5q-29 -33 -44 -74t-15 -82zM326 743q0 35 12 70t37 64q23 29 57.5 46t79.5 17q39 0 77 -14.5t68 -38.5q31 -27 50.5 -66t19.5 -88q0 -37 -14.5 -72.5 t-38.5 -62.5q-27 -29 -63 -45t-76 -16q-55 0 -103.5 24.5t-77.5 75.5q-14 27 -21 53.5t-7 52.5z" />
<glyph unicode="&#xa8;" horiz-adv-x="757" d="M168 1024q0 -16 12.5 -28.5t28.5 -12.5t28.5 12.5t12.5 28.5t-12.5 28.5t-28.5 12.5t-28.5 -12.5t-12.5 -28.5zM506 1024q0 -16 12 -28.5t29 -12.5q16 0 28.5 12.5t12.5 28.5t-12.5 28.5t-28.5 12.5t-28.5 -12.5t-12.5 -28.5z" />
<glyph unicode="&#xa9;" horiz-adv-x="1624" d="M297 762q0 -113 40 -208t112 -165q70 -70 165 -108.5t205 -38.5q111 0 206 38.5t167 108.5q70 70 109.5 165t39.5 208t-39.5 209t-109.5 166q-72 70 -167 108.5t-206 38.5t-206 -39t-164 -108q-72 -70 -112 -166.5t-40 -208.5zM326 760q0 106 38.5 197.5t106.5 158.5 q68 66 157 102.5t189 36.5q102 0 192.5 -36.5t157.5 -102.5q68 -68 107 -159t39 -197q0 -104 -39 -193.5t-107 -154.5q-68 -68 -157.5 -105t-192.5 -37q-100 0 -189 37t-157 105q-68 66 -106.5 154.5t-38.5 193.5zM524 766q0 -68 27 -129.5t72 -106.5t106.5 -69.5 t128.5 -24.5q47 0 89 12t79 35l-8 11q-35 -20 -76 -31.5t-86 -11.5q-66 0 -123 24.5t-100 67.5t-67.5 100t-24.5 123t25.5 124t68.5 103q43 43 100.5 68.5t122.5 25.5q43 0 82 -10t74 -30v-97h14v105q-39 23 -82 34t-88 11q-68 0 -128 -25.5t-105 -70.5t-73 -106.5 t-28 -131.5z" />
<glyph unicode="&#xaa;" horiz-adv-x="1198" d="M170 905q0 -61 22.5 -112.5t61.5 -90.5q39 -41 91 -62.5t112 -21.5q47 0 89 13.5t77 38.5q35 23 61.5 56.5t40.5 72.5v-46.5v-45.5v-80h129v20h-109v533h-14q-4 -41 -5 -84t-1 -84q-33 78 -104.5 129t-163.5 51q-59 0 -111.5 -22.5t-91.5 -61.5t-61.5 -92t-22.5 -111z M190 905q0 53 21.5 102.5t58.5 86.5q35 37 83.5 57t103.5 20t103 -20.5t87 -56.5q37 -37 57.5 -86.5t20.5 -102.5q0 -57 -20.5 -105t-57.5 -83q-39 -37 -87 -57.5t-103 -20.5t-103.5 20.5t-83.5 57.5q-37 35 -58.5 83t-21.5 105z" />
<glyph unicode="&#xab;" horiz-adv-x="1230" d="M240 489l350 -331v32q-72 76 -145.5 150t-145.5 149q72 74 145.5 148t145.5 147v35q-88 -84 -175 -165t-175 -165zM590 489l350 -331v32q-72 76 -145.5 150t-145.5 149q72 74 145.5 148t145.5 147v35q-88 -84 -175 -165t-175 -165z" />
<glyph unicode="&#xac;" horiz-adv-x="1144" d="M205 465h708v-162h29v191h-737v-29z" />
<glyph unicode="&#xad;" horiz-adv-x="614" d="M109 377h376v29h-376v-29z" />
<glyph unicode="&#xae;" horiz-adv-x="1640" d="M297 762q0 -113 40 -208t112 -165q70 -70 165 -108.5t205 -38.5q111 0 206 38.5t167 108.5q70 70 109.5 165t39.5 208t-39.5 209t-109.5 166q-72 70 -167 108.5t-206 38.5t-206 -39t-164 -108q-72 -70 -112 -166.5t-40 -208.5zM326 760q0 106 38.5 197.5t106.5 158.5 q68 66 157 102.5t189 36.5q102 0 192.5 -36.5t157.5 -102.5q68 -68 107 -159t39 -197q0 -104 -39 -193.5t-107 -154.5q-68 -68 -157.5 -105t-192.5 -37q-100 0 -189 37t-157 105q-68 66 -106.5 154.5t-38.5 193.5zM637 430h168v14h-86v316h106q12 0 24.5 1t22.5 3l158 -334 h88v14h-82l-149 322q72 14 108.5 58t36.5 112q0 45 -19.5 78t-47.5 55q-31 20 -65 29.5t-60 9.5h-203v-14h68v-650h-68v-14zM719 774v320h110q82 0 136.5 -47.5t54.5 -110.5q0 -27 -9.5 -55.5t-29.5 -51.5q-23 -25 -59.5 -40t-92.5 -15h-110z" />
<glyph unicode="&#xaf;" horiz-adv-x="817" d="M174 1008h471v28h-471v-28z" />
<glyph unicode="&#xb0;" horiz-adv-x="577" d="M125 1145q0 -35 13.5 -63.5t35.5 -49.5q20 -20 48 -30.5t61 -10.5q31 0 58.5 10.5t47.5 28.5q23 20 36 50t13 65q0 37 -14 67.5t-39 51.5q-18 18 -45 28.5t-57 10.5q-31 0 -57.5 -9.5t-47.5 -27.5q-25 -20 -39 -52t-14 -69zM154 1147q0 27 10 49.5t26 40.5q18 16 42 26.5 t51 10.5t50 -10.5t40 -26.5q16 -16 26.5 -39.5t10.5 -50.5t-9.5 -49.5t-27.5 -40.5q-16 -16 -40 -26.5t-50 -10.5q-25 0 -46.5 8t-39.5 23q-18 18 -30.5 42.5t-12.5 53.5z" />
<glyph unicode="&#xb1;" horiz-adv-x="1073" d="M176 279h737v28h-737v-28zM176 788h354v-356h29v356h354v29h-354v352h-29v-352h-354v-29z" />
<glyph unicode="&#xb2;" horiz-adv-x="815" d="M207 1243q0 -43 12 -71.5t33 -53.5l10 8q-20 23 -30.5 52.5t-10.5 64.5q0 25 7.5 56.5t25.5 58.5t50 44t83 17q25 0 53.5 -9t53.5 -32t41 -59.5t16 -93.5q0 -47 -29.5 -101.5t-77.5 -111.5q-47 -59 -108.5 -120t-126.5 -124h401v129h-12v-115h-352q53 55 109.5 110.5 t103.5 113.5q45 57 75.5 115.5t30.5 115.5q0 43 -13 79t-36 62q-25 27 -57.5 41.5t-71.5 14.5q-43 0 -78 -14.5t-57 -41.5q-23 -27 -34 -61.5t-11 -73.5z" />
<glyph unicode="&#xb3;" horiz-adv-x="858" d="M197 838q29 -31 66.5 -49.5t82.5 -18.5q43 0 80 16t66 45q29 27 45 64t16 80q0 45 -18.5 84t-49.5 67q-31 27 -71.5 41.5t-85.5 12.5l200 254h-321v-82h14v67h275l-213 -276q14 10 29.5 16t31.5 6q39 0 75 -15t62 -40q27 -27 42.5 -61.5t15.5 -73.5t-15.5 -74t-42.5 -59 q-27 -27 -62.5 -42.5t-74.5 -15.5q-43 0 -78 18.5t-59 47.5z" />
<glyph unicode="&#xb4;" horiz-adv-x="446" d="M205 981h33q47 68 92 136.5t92 135.5h-33q-47 -68 -92 -136t-92 -136z" />
<glyph unicode="&#xb5;" horiz-adv-x="1116" d="M78 739h162v-1151h28v512q29 -53 82 -83.5t127 -30.5q115 0 206 58t132 157l4 -92l6 -109h170v29h-157v739h-191v-29h162v-422q0 -66 -28.5 -122t-75.5 -95q-47 -41 -110 -63.5t-132 -22.5q-90 4 -140.5 58.5t-54.5 128.5v567h-190v-29z" />
<glyph unicode="&#xb6;" horiz-adv-x="1075" d="M78 1200q0 -70 25.5 -131t70.5 -106t106.5 -71t131.5 -26v-866h28v1507h305v-1507h250v29h-221v1478h221v29h-583q-70 0 -131.5 -26.5t-106.5 -71.5t-70.5 -106.5t-25.5 -131.5z" />
<glyph unicode="&#xb7;" horiz-adv-x="333" d="M135 573q0 -16 12.5 -28.5t28.5 -12.5t28.5 12.5t12.5 28.5t-12 28.5t-29 12.5q-16 0 -28.5 -12.5t-12.5 -28.5z" />
<glyph unicode="&#xb8;" horiz-adv-x="925" d="M256 -338q20 -59 66.5 -89t99.5 -30q68 0 120 46.5t52 150.5q0 29 -19.5 66.5t-66.5 68.5q-27 16 -55.5 37.5t-28.5 75.5v12h-29v-33q0 -41 27 -63.5t59 -42.5q31 -23 57.5 -53.5t26.5 -88.5q0 -63 -40 -105t-103 -42q-51 0 -87 27.5t-48 70.5q-8 -2 -15.5 -4t-15.5 -4z " />
<glyph unicode="&#xb9;" horiz-adv-x="509" d="M143 1419h113v-639h-80v-12h176v12h-80v654h-129v-15z" />
<glyph unicode="&#xba;" horiz-adv-x="960" d="M186 905q0 -61 22.5 -112.5t61.5 -90.5q39 -41 90.5 -62.5t112.5 -21.5q59 0 112.5 21.5t92.5 62.5q39 39 61.5 90.5t22.5 112.5q0 57 -22.5 110.5t-61.5 94.5q-39 39 -92.5 61.5t-112.5 22.5q-61 0 -112.5 -22.5t-90.5 -61.5q-39 -41 -61.5 -94t-22.5 -111zM207 905 q0 53 20.5 102.5t57.5 86.5t84 57t104 20q55 0 103.5 -20.5t85.5 -56.5q37 -37 57 -86.5t20 -102.5q0 -57 -20.5 -105t-56.5 -83q-37 -37 -85.5 -57.5t-103.5 -20.5q-57 0 -104 20.5t-84 57.5q-37 35 -57.5 83t-20.5 105z" />
<glyph unicode="&#xbb;" horiz-adv-x="1230" d="M240 158v32q72 76 145.5 150t145.5 149q-72 74 -145.5 148t-145.5 147v35q88 -84 175 -165t175 -165zM590 158v32q72 76 145.5 150t145.5 149q-72 74 -145.5 148t-145.5 147v35q88 -84 175 -165t175 -165z" />
<glyph unicode="&#xbc;" horiz-adv-x="1982" d="M283 1403h163v-903h-116v-21h254v21h-117v923h-184v-20zM604 -39h29q143 389 284.5 772t284.5 772h-28q-143 -389 -284.5 -772t-285.5 -772zM1026 279h537v-259h-117v-20h264v20h-127v259h148v22h-148v703zM1073 301l490 639v-639h-490z" />
<glyph unicode="&#xbd;" horiz-adv-x="2189" d="M248 1403h164v-903h-115v-21h252v21h-117v923h-184v-20zM604 -39h29q143 389 284.5 772t284.5 772h-28q-143 -389 -284.5 -772t-285.5 -772zM1204 678q0 -59 17.5 -100t48.5 -76l14 12q-29 31 -44 72t-15 92q0 39 10 83t37 83q27 37 73 62.5t117 25.5q37 0 77 -13.5 t75 -44.5q35 -33 58.5 -86t23.5 -135q0 -68 -41 -144.5t-109 -160.5t-155.5 -171t-182.5 -177h574v184h-21v-164h-499q76 78 155.5 158t147.5 162q66 82 108.5 165t42.5 167q0 61 -18.5 112.5t-50.5 87.5q-35 37 -81 58.5t-104 21.5q-61 0 -110 -21.5t-80 -58.5 q-33 -37 -50.5 -86t-17.5 -108z" />
<glyph unicode="&#xbe;" horiz-adv-x="2613" d="M315 514q43 -47 103.5 -75.5t130.5 -28.5q68 0 126 25.5t103 68.5q43 43 68.5 101.5t25.5 125.5q0 70 -28.5 131.5t-75.5 104.5q-49 41 -113.5 64.5t-134.5 19.5l314 399h-504v-129h22v106h430l-333 -434q23 16 47 25.5t49 9.5q61 0 117.5 -23.5t97.5 -62.5 q41 -41 65.5 -95t24.5 -116q0 -61 -24.5 -115.5t-65.5 -95.5t-97.5 -64.5t-117.5 -23.5q-66 0 -121 27.5t-94 75.5zM942 -39h29q143 389 284.5 773t284.5 773h-29q-143 -389 -284.5 -773t-284.5 -773zM1434 279h536v-259h-119v-20h267v20h-127v259h149v22h-149v703z M1479 301l491 639v-639h-491z" />
<glyph unicode="&#xbf;" horiz-adv-x="839" d="M76 4q0 -82 31 -154.5t84 -125.5q55 -55 129 -87t158 -32q66 0 126 20.5t109 55.5q49 37 86 87t58 109q-6 2 -13.5 3t-13.5 3q-18 -55 -52 -101t-81 -79t-102.5 -51t-116.5 -18q-78 0 -146.5 27.5t-120.5 78.5q-49 49 -77.5 116.5t-28.5 147.5q0 76 28.5 142.5 t92.5 121.5q49 43 97 73t85 58q39 31 62.5 69t23.5 101v199h-29v-160q0 -68 -14 -106.5t-39 -63.5q-27 -25 -60.5 -44t-74.5 -48q-92 -66 -146.5 -148.5t-54.5 -193.5zM439 1012q0 -18 12 -29.5t29 -11.5q14 0 26.5 11t12.5 30q0 16 -12.5 28.5t-26.5 12.5 q-16 0 -28.5 -12.5t-12.5 -28.5z" />
<glyph unicode="&#xc0;" horiz-adv-x="1695" d="M72 0h356v29h-172q66 154 131.5 308.5t130.5 309.5h660q66 -156 131 -310.5t131 -307.5h-172v-29h356v29h-154q-156 369 -311 734t-311 736q-156 -371 -312.5 -736.5t-312.5 -733.5h-151v-29zM530 676q76 178 152.5 352t146.5 354q6 20 11.5 32.5t7.5 19.5l18 -52 l299 -706h-635zM641 1808q47 -68 92.5 -136t92.5 -136h32q-47 68 -92 136.5t-92 135.5h-33z" />
<glyph unicode="&#xc1;" horiz-adv-x="1695" d="M72 0h356v29h-172q66 154 131.5 308.5t130.5 309.5h660q66 -156 131 -310.5t131 -307.5h-172v-29h356v29h-154q-156 369 -311 734t-311 736q-156 -371 -312.5 -736.5t-312.5 -733.5h-151v-29zM530 676q76 178 152.5 352t146.5 354q6 20 11.5 32.5t7.5 19.5l18 -52 l299 -706h-635zM836 1536h33q47 68 92 136.5t92 135.5h-33q-47 -68 -92 -136t-92 -136z" />
<glyph unicode="&#xc2;" horiz-adv-x="1695" d="M72 0h356v29h-172q66 154 131.5 308.5t130.5 309.5h660q66 -156 131 -310.5t131 -307.5h-172v-29h356v29h-154q-156 369 -311 734t-311 736q-156 -371 -312.5 -736.5t-312.5 -733.5h-151v-29zM530 676q76 178 152.5 352t146.5 354q6 20 11.5 32.5t7.5 19.5l18 -52 l299 -706h-635zM602 1536h33q53 78 106.5 158t106.5 157q53 -78 106.5 -157.5t106.5 -157.5h33q-61 92 -122.5 185.5t-123.5 185.5q-61 -92 -122.5 -185.5t-123.5 -185.5z" />
<glyph unicode="&#xc3;" horiz-adv-x="1695" d="M72 0h356v29h-172q66 154 131.5 308.5t130.5 309.5h660q66 -156 131 -310.5t131 -307.5h-172v-29h356v29h-154q-156 369 -311 734t-311 736q-156 -371 -312.5 -736.5t-312.5 -733.5h-151v-29zM530 676q76 178 152.5 352t146.5 354q6 20 11.5 32.5t7.5 19.5l18 -52 l299 -706h-635zM557 1571l27 -4q4 35 19.5 56t35.5 34q20 12 42 17t38 5q29 0 53.5 -12t57.5 -49q33 -35 66.5 -56.5t74.5 -21.5q29 0 57.5 7.5t53.5 23.5q23 16 39 42.5t18 63.5l-27 4q-4 -35 -19 -56t-36 -34q-20 -12 -41.5 -17t-38.5 -5q-29 0 -53.5 12t-56.5 49 q-33 35 -67 56.5t-75 21.5q-29 0 -57.5 -7t-50.5 -24q-25 -16 -41.5 -42.5t-18.5 -63.5z" />
<glyph unicode="&#xc4;" horiz-adv-x="1695" d="M72 0h356v29h-172q66 154 131.5 308.5t130.5 309.5h660q66 -156 131 -310.5t131 -307.5h-172v-29h356v29h-154q-156 369 -311 734t-311 736q-156 -371 -312.5 -736.5t-312.5 -733.5h-151v-29zM530 676q76 178 152.5 352t146.5 354q6 20 11.5 32.5t7.5 19.5l18 -52 l299 -706h-635zM639 1618q0 -16 12.5 -28.5t28.5 -12.5t28.5 12.5t12.5 28.5t-12.5 28.5t-28.5 12.5t-28.5 -12.5t-12.5 -28.5zM977 1618q0 -16 12 -28.5t29 -12.5q16 0 28.5 12.5t12.5 28.5t-12.5 28.5t-28.5 12.5t-28.5 -12.5t-12.5 -28.5z" />
<glyph unicode="&#xc5;" horiz-adv-x="1695" d="M72 0h356v29h-172q66 154 131.5 308.5t130.5 309.5h660q66 -156 131 -310.5t131 -307.5h-172v-29h356v29h-154q-156 369 -311 734t-311 736q-156 -371 -312.5 -736.5t-312.5 -733.5h-151v-29zM530 676q76 178 152.5 352t146.5 354q6 20 11.5 32.5t7.5 19.5l18 -52 l299 -706h-635zM721 1708q0 -31 11 -55.5t32 -42.5q16 -14 38.5 -22.5t47.5 -8.5t47 8t39 23q20 18 31.5 42.5t11.5 55.5t-11.5 55.5t-31.5 42.5q-16 14 -39 22.5t-47 8.5q-31 0 -55.5 -11.5t-43.5 -31.5q-14 -16 -22 -39t-8 -47zM749 1708q0 39 29 69.5t72 30.5 q45 0 72.5 -30.5t27.5 -69.5q0 -41 -29.5 -70.5t-70.5 -29.5q-47 0 -74 31.5t-27 68.5z" />
<glyph unicode="&#xc6;" horiz-adv-x="1587" d="M72 0h356v29h-168q66 154 131.5 308.5t130.5 309.5h301v-647h693v315h-29v-286h-635v680h555v28h-555v668h606v-287h29v316h-664q-150 -354 -297 -703.5t-297 -701.5h-157v-29zM535 676q72 174 147 343t141 345v-688h-288z" />
<glyph unicode="&#xc7;" horiz-adv-x="1249" d="M72 715q0 -147 54 -278.5t150 -229.5q94 -98 222.5 -156.5t275.5 -64.5v-19q0 -41 26.5 -63.5t59.5 -42.5q31 -23 57.5 -53.5t26.5 -88.5q0 -63 -40 -105t-103 -42q-51 0 -87 27.5t-48 70.5l-31 -8q20 -59 66.5 -89t99.5 -30q68 0 120 46.5t52 150.5q0 29 -19.5 66.5 t-66.5 68.5q-23 14 -46.5 30.5t-33.5 51.5q-2 4 -3 11t-1 16q104 0 197.5 27.5t175.5 74.5l-19 25q-80 -47 -171 -73t-189 -26q-143 0 -270.5 55.5t-221.5 151.5q-94 94 -149.5 221t-55.5 273q0 145 55.5 274t151.5 225q94 96 222 152.5t274 56.5q92 0 180 -23.5t166 -68.5 v-338h29v357q-84 49 -177.5 75.5t-197.5 26.5q-152 0 -285 -58.5t-231 -156.5q-100 -100 -157.5 -234.5t-57.5 -285.5z" />
<glyph unicode="&#xc8;" horiz-adv-x="1169" d="M72 0h1026v315h-29v-286h-801v680h721v28h-721v668h772v-287h29v316h-997v-29h168v-1376h-168v-29zM407 1808q47 -68 92.5 -136t92.5 -136h32q-47 68 -92 136.5t-92 135.5h-33z" />
<glyph unicode="&#xc9;" horiz-adv-x="1169" d="M72 0h1026v315h-29v-286h-801v680h721v28h-721v668h772v-287h29v316h-997v-29h168v-1376h-168v-29zM567 1536h33q47 68 92 136.5t92 135.5h-33q-47 -68 -92 -136t-92 -136z" />
<glyph unicode="&#xca;" horiz-adv-x="1169" d="M72 0h1026v315h-29v-286h-801v680h721v28h-721v668h772v-287h29v316h-997v-29h168v-1376h-168v-29zM368 1536h33q53 78 106.5 158t106.5 157q53 -78 106.5 -157.5t106.5 -157.5h33q-61 92 -122.5 185.5t-123.5 185.5q-61 -92 -122.5 -185.5t-123.5 -185.5z" />
<glyph unicode="&#xcb;" horiz-adv-x="1169" d="M72 0h1026v315h-29v-286h-801v680h721v28h-721v668h772v-287h29v316h-997v-29h168v-1376h-168v-29zM397 1618q0 -16 12.5 -28.5t28.5 -12.5t28.5 12.5t12.5 28.5t-12.5 28.5t-28.5 12.5t-28.5 -12.5t-12.5 -28.5zM735 1618q0 -16 12 -28.5t29 -12.5q16 0 28.5 12.5 t12.5 28.5t-12.5 28.5t-28.5 12.5t-28.5 -12.5t-12.5 -28.5z" />
<glyph unicode="&#xcc;" horiz-adv-x="499" d="M30 1808q47 -68 92.5 -136t92.5 -136h32q-47 68 -92 136.5t-92 135.5h-33zM72 0h356v29h-170v1376h170v29h-356v-29h157v-1376h-157v-29z" />
<glyph unicode="&#xcd;" horiz-adv-x="499" d="M72 0h356v29h-170v1376h170v29h-356v-29h157v-1376h-157v-29zM244 1536h33q47 68 92 136.5t92 135.5h-33q-47 -68 -92 -136t-92 -136z" />
<glyph unicode="&#xce;" horiz-adv-x="499" d="M2 1536h33q53 78 106.5 158t106.5 157q53 -78 106.5 -157.5t106.5 -157.5h33q-61 92 -122.5 185.5t-123.5 185.5q-61 -92 -122.5 -185.5t-123.5 -185.5zM72 0h356v29h-170v1376h170v29h-356v-29h157v-1376h-157v-29z" />
<glyph unicode="&#xcf;" horiz-adv-x="499" d="M39 1618q0 -16 12.5 -28.5t28.5 -12.5t28.5 12.5t12.5 28.5t-12.5 28.5t-28.5 12.5t-28.5 -12.5t-12.5 -28.5zM72 0h356v29h-170v1376h170v29h-356v-29h157v-1376h-157v-29zM377 1618q0 -16 12 -28.5t29 -12.5q16 0 28.5 12.5t12.5 28.5t-12.5 28.5t-28.5 12.5 t-28.5 -12.5t-12.5 -28.5z" />
<glyph unicode="&#xd0;" horiz-adv-x="1294" d="M72 0h360q217 0 367.5 66.5t244.5 171.5q94 104 136.5 231t42.5 248q0 164 -57.5 297t-155.5 227q-98 92 -229.5 142.5t-278.5 50.5h-430v-29h149v-668h-131v-28h131v-680h-149v-29zM250 31v678h459v28h-459v668h264q137 0 261 -48t218 -136q94 -90 148.5 -218.5 t54.5 -285.5q0 -117 -40 -238t-128 -221q-90 -100 -232.5 -163.5t-344.5 -63.5h-201z" />
<glyph unicode="&#xd1;" horiz-adv-x="1642" d="M72 0h356v29h-170v1331l-4 53l37 -41l1190 -1438v1471h168v29h-357v-29h160v-1335l6 -66l-39 53l-1136 1377h-211v-29h157v-1376h-157v-29zM553 1571l27 -4q4 35 19.5 56t35.5 34q20 12 42 17t38 5q29 0 53.5 -12t57.5 -49q33 -35 66.5 -56.5t74.5 -21.5q29 0 57.5 7.5 t53.5 23.5q23 16 39 42.5t18 63.5l-27 4q-4 -35 -19 -56t-36 -34q-20 -12 -41.5 -17t-38.5 -5q-29 0 -53.5 12t-56.5 49q-33 35 -67 56.5t-75 21.5q-29 0 -57.5 -7t-50.5 -24q-25 -16 -41.5 -42.5t-18.5 -63.5z" />
<glyph unicode="&#xd2;" horiz-adv-x="1609" d="M72 715q0 -152 57 -285t158 -231q98 -100 231 -157.5t285 -57.5t286 57.5t234 157.5q98 98 156.5 231t58.5 285t-58.5 286t-156.5 234q-100 98 -234.5 156.5t-285.5 58.5q-152 0 -285 -58.5t-231 -156.5q-100 -100 -157.5 -234.5t-57.5 -285.5zM100 713q0 145 55.5 274 t151.5 225q94 96 222 152.5t274 56.5q145 0 273 -56t224 -153q96 -96 152.5 -224t56.5 -273t-56 -273.5t-153 -222.5q-98 -96 -228 -151.5t-275 -55.5q-143 0 -270.5 55.5t-221.5 151.5q-94 94 -149.5 221t-55.5 273zM581 1808q47 -68 92.5 -136t92.5 -136h32 q-47 68 -92 136.5t-92 135.5h-33z" />
<glyph unicode="&#xd3;" horiz-adv-x="1609" d="M72 715q0 -152 57 -285t158 -231q98 -100 231 -157.5t285 -57.5t286 57.5t234 157.5q98 98 156.5 231t58.5 285t-58.5 286t-156.5 234q-100 98 -234.5 156.5t-285.5 58.5q-152 0 -285 -58.5t-231 -156.5q-100 -100 -157.5 -234.5t-57.5 -285.5zM100 713q0 145 55.5 274 t151.5 225q94 96 222 152.5t274 56.5q145 0 273 -56t224 -153q96 -96 152.5 -224t56.5 -273t-56 -273.5t-153 -222.5q-98 -96 -228 -151.5t-275 -55.5q-143 0 -270.5 55.5t-221.5 151.5q-94 94 -149.5 221t-55.5 273zM840 1536h33q47 68 92 136.5t92 135.5h-33 q-47 -68 -92 -136t-92 -136z" />
<glyph unicode="&#xd4;" horiz-adv-x="1609" d="M72 715q0 -152 57 -285t158 -231q98 -100 231 -157.5t285 -57.5t286 57.5t234 157.5q98 98 156.5 231t58.5 285t-58.5 286t-156.5 234q-100 98 -234.5 156.5t-285.5 58.5q-152 0 -285 -58.5t-231 -156.5q-100 -100 -157.5 -234.5t-57.5 -285.5zM100 713q0 145 55.5 274 t151.5 225q94 96 222 152.5t274 56.5q145 0 273 -56t224 -153q96 -96 152.5 -224t56.5 -273t-56 -273.5t-153 -222.5q-98 -96 -228 -151.5t-275 -55.5q-143 0 -270.5 55.5t-221.5 151.5q-94 94 -149.5 221t-55.5 273zM567 1536h33q53 78 106.5 158t106.5 157 q53 -78 106.5 -157.5t106.5 -157.5h33q-61 92 -122.5 185.5t-123.5 185.5q-61 -92 -122.5 -185.5t-123.5 -185.5z" />
<glyph unicode="&#xd5;" horiz-adv-x="1609" d="M72 715q0 -152 57 -285t158 -231q98 -100 231 -157.5t285 -57.5t286 57.5t234 157.5q98 98 156.5 231t58.5 285t-58.5 286t-156.5 234q-100 98 -234.5 156.5t-285.5 58.5q-152 0 -285 -58.5t-231 -156.5q-100 -100 -157.5 -234.5t-57.5 -285.5zM100 713q0 145 55.5 274 t151.5 225q94 96 222 152.5t274 56.5q145 0 273 -56t224 -153q96 -96 152.5 -224t56.5 -273t-56 -273.5t-153 -222.5q-98 -96 -228 -151.5t-275 -55.5q-143 0 -270.5 55.5t-221.5 151.5q-94 94 -149.5 221t-55.5 273zM526 1571l27 -4q4 35 19.5 56t35.5 34q20 12 42 17t38 5 q29 0 53.5 -12t57.5 -49q33 -35 66.5 -56.5t74.5 -21.5q29 0 57.5 7.5t53.5 23.5q23 16 39 42.5t18 63.5l-27 4q-4 -35 -19 -56t-36 -34q-20 -12 -41.5 -17t-38.5 -5q-29 0 -53.5 12t-56.5 49q-33 35 -67 56.5t-75 21.5q-29 0 -57.5 -7t-50.5 -24q-25 -16 -41.5 -42.5 t-18.5 -63.5z" />
<glyph unicode="&#xd6;" horiz-adv-x="1609" d="M72 715q0 -152 57 -285t158 -231q98 -100 231 -157.5t285 -57.5t286 57.5t234 157.5q98 98 156.5 231t58.5 285t-58.5 286t-156.5 234q-100 98 -234.5 156.5t-285.5 58.5q-152 0 -285 -58.5t-231 -156.5q-100 -100 -157.5 -234.5t-57.5 -285.5zM100 713q0 145 55.5 274 t151.5 225q94 96 222 152.5t274 56.5q145 0 273 -56t224 -153q96 -96 152.5 -224t56.5 -273t-56 -273.5t-153 -222.5q-98 -96 -228 -151.5t-275 -55.5q-143 0 -270.5 55.5t-221.5 151.5q-94 94 -149.5 221t-55.5 273zM602 1618q0 -16 12.5 -28.5t28.5 -12.5t28.5 12.5 t12.5 28.5t-12.5 28.5t-28.5 12.5t-28.5 -12.5t-12.5 -28.5zM940 1618q0 -16 12 -28.5t29 -12.5q16 0 28.5 12.5t12.5 28.5t-12.5 28.5t-28.5 12.5t-28.5 -12.5t-12.5 -28.5z" />
<glyph unicode="&#xd7;" horiz-adv-x="1024" d="M266 20l21 -20l250 252l251 -252l21 20l-252 252l252 250l-21 21l-251 -250l-248 248l-21 -21l248 -248z" />
<glyph unicode="&#xd8;" horiz-adv-x="1609" d="M72 715q0 -162 64.5 -301.5t174.5 -239.5q-37 -43 -72.5 -87t-72.5 -87q4 -4 9 -8t9 -8q37 43 73 87t73 87q96 -82 217 -128t256 -46q152 0 286 57t234 158q98 98 156.5 231t58.5 285q0 172 -72.5 318.5t-195.5 248.5q33 39 63.5 76t63.5 76q-4 4 -9.5 8t-9.5 8 q-33 -39 -63.5 -77t-63.5 -77q-94 72 -207.5 113t-240.5 41q-152 0 -285 -58.5t-231 -156.5q-100 -100 -157.5 -234.5t-57.5 -285.5zM100 713q0 145 55.5 274t151.5 225q94 96 222 152.5t274 56.5q121 0 229.5 -39t198.5 -108q-227 -272 -451.5 -539.5t-451.5 -539.5 q-104 96 -166 229t-62 289zM346 178q301 360 451.5 540.5l451.5 541.5q119 -98 189.5 -239.5t70.5 -305.5q0 -145 -56 -273.5t-153 -222.5q-98 -96 -228 -151.5t-275 -55.5q-129 0 -244 44t-207 122z" />
<glyph unicode="&#xd9;" horiz-adv-x="1380" d="M72 1405h157v-942q0 -117 35 -207t96 -150q61 -61 146.5 -91.5t183.5 -30.5t182.5 30.5t145.5 91.5q61 59 97 149.5t36 207.5v942h158v29h-357v-29h170v-936q0 -111 -32.5 -196t-90.5 -142q-57 -59 -137 -89t-172 -30q-94 0 -174 30t-137 89q-57 57 -89 142t-32 196v936 h170v29h-356v-29zM487 1808q47 -68 92.5 -136t92.5 -136h32q-47 68 -92 136.5t-92 135.5h-33z" />
<glyph unicode="&#xda;" horiz-adv-x="1380" d="M72 1405h157v-942q0 -117 35 -207t96 -150q61 -61 146.5 -91.5t183.5 -30.5t182.5 30.5t145.5 91.5q61 59 97 149.5t36 207.5v942h158v29h-357v-29h170v-936q0 -111 -32.5 -196t-90.5 -142q-57 -59 -137 -89t-172 -30q-94 0 -174 30t-137 89q-57 57 -89 142t-32 196v936 h170v29h-356v-29zM694 1536h33q47 68 92 136.5t92 135.5h-33q-47 -68 -92 -136t-92 -136z" />
<glyph unicode="&#xdb;" horiz-adv-x="1380" d="M72 1405h157v-942q0 -117 35 -207t96 -150q61 -61 146.5 -91.5t183.5 -30.5t182.5 30.5t145.5 91.5q61 59 97 149.5t36 207.5v942h158v29h-357v-29h170v-936q0 -111 -32.5 -196t-90.5 -142q-57 -59 -137 -89t-172 -30q-94 0 -174 30t-137 89q-57 57 -89 142t-32 196v936 h170v29h-356v-29zM450 1536h33q53 78 106.5 158t106.5 157q53 -78 106.5 -157.5t106.5 -157.5h33q-61 92 -122.5 185.5t-123.5 185.5q-61 -92 -122.5 -185.5t-123.5 -185.5z" />
<glyph unicode="&#xdc;" horiz-adv-x="1380" d="M72 1405h157v-942q0 -117 35 -207t96 -150q61 -61 146.5 -91.5t183.5 -30.5t182.5 30.5t145.5 91.5q61 59 97 149.5t36 207.5v942h158v29h-357v-29h170v-936q0 -111 -32.5 -196t-90.5 -142q-57 -59 -137 -89t-172 -30q-94 0 -174 30t-137 89q-57 57 -89 142t-32 196v936 h170v29h-356v-29zM477 1620q0 -16 12.5 -28.5t28.5 -12.5t28.5 12.5t12.5 28.5t-12.5 28.5t-28.5 12.5t-28.5 -12.5t-12.5 -28.5zM815 1620q0 -16 12 -28.5t29 -12.5q16 0 28.5 12.5t12.5 28.5t-12.5 28.5t-28.5 12.5t-28.5 -12.5t-12.5 -28.5z" />
<glyph unicode="&#xdd;" horiz-adv-x="1470" d="M72 1405h127q131 -217 261 -434t261 -434v-508h-162v-29h356v29h-165v508q129 217 259 433t259 435h131v29h-357v-29h191l-473 -795l-23 -53h-2l-24 53q-117 201 -237 397.5t-241 397.5h195v29h-356v-29zM762 1536h33q47 68 92 136.5t92 135.5h-33q-47 -68 -92 -136 t-92 -136z" />
<glyph unicode="&#xde;" horiz-adv-x="985" d="M72 0h356v29h-182v331h229q211 0 324.5 100.5t113.5 270.5q0 98 -42 168t-103 113t-133 63.5t-131 20.5h-258v309h182v29h-356v-29h145v-1376h-145v-29zM246 389v678h237q86 0 159 -27.5t128 -72.5q53 -47 84 -107.5t31 -128.5q0 -55 -18.5 -115.5t-63.5 -109.5 q-47 -51 -125 -84t-197 -33h-235z" />
<glyph unicode="&#xdf;" horiz-adv-x="1110" d="M72 0h198v881q0 100 29 181t78 138q47 57 110.5 88t133.5 31q55 0 103 -22.5t83 -59.5q33 -39 52.5 -88t19.5 -102q0 -104 -77 -170t-181 -66v-31q80 0 150.5 -30.5t123.5 -81.5q53 -53 84 -122t31 -147t-32 -148.5t-85 -123.5t-125 -85t-154 -32q-55 0 -105 14.5 t-95 43.5l-13 -23q47 -29 102.5 -45t114.5 -16q86 0 163 32.5t134 89.5q55 55 89 131t34 162q0 74 -24.5 138.5t-67.5 117.5q-43 51 -101.5 88t-125.5 54q84 29 136 97.5t52 158.5q0 59 -22.5 112.5t-61.5 94.5q-39 39 -91 62.5t-111 25.5q-78 -4 -146.5 -36t-120.5 -91 q-53 -59 -82.5 -147.5t-29.5 -201.5v-86h-133v-28h133v-729h-170v-29z" />
<glyph unicode="&#xe0;" d="M72 385q0 -84 30.5 -155.5t85.5 -125.5q53 -55 125 -85.5t156 -30.5q63 0 121.5 18.5t107.5 52.5q47 33 84 79t60 102q0 -33 -1 -65t-1 -64v-111h178v29h-150v739h-20q-4 -59 -6 -117.5t-2 -118.5q-45 111 -144.5 181.5t-226.5 70.5q-84 0 -155.5 -31.5t-125.5 -84.5 q-55 -53 -85.5 -127t-30.5 -156zM100 385q0 76 29 143.5t80 118.5q49 51 115.5 80t144.5 29q76 0 143.5 -29t118.5 -80t80 -118.5t29 -143.5q0 -78 -29 -144.5t-80 -115.5q-51 -51 -118.5 -80t-143.5 -29q-78 0 -144.5 29t-115.5 80q-51 49 -80 115.5t-29 144.5zM293 1253 q47 -68 92.5 -136t92.5 -136h32q-47 68 -92 136.5t-92 135.5h-33z" />
<glyph unicode="&#xe1;" d="M72 385q0 -84 30.5 -155.5t85.5 -125.5q53 -55 125 -85.5t156 -30.5q63 0 121.5 18.5t107.5 52.5q47 33 84 79t60 102q0 -33 -1 -65t-1 -64v-111h178v29h-150v739h-20q-4 -59 -6 -117.5t-2 -118.5q-45 111 -144.5 181.5t-226.5 70.5q-84 0 -155.5 -31.5t-125.5 -84.5 q-55 -53 -85.5 -127t-30.5 -156zM100 385q0 76 29 143.5t80 118.5q49 51 115.5 80t144.5 29q76 0 143.5 -29t118.5 -80t80 -118.5t29 -143.5q0 -78 -29 -144.5t-80 -115.5q-51 -51 -118.5 -80t-143.5 -29q-78 0 -144.5 29t-115.5 80q-51 49 -80 115.5t-29 144.5zM475 981h33 q47 68 92 136.5t92 135.5h-33q-47 -68 -92 -136t-92 -136z" />
<glyph unicode="&#xe2;" d="M72 385q0 -84 30.5 -155.5t85.5 -125.5q53 -55 125 -85.5t156 -30.5q63 0 121.5 18.5t107.5 52.5q47 33 84 79t60 102q0 -33 -1 -65t-1 -64v-111h178v29h-150v739h-20q-4 -59 -6 -117.5t-2 -118.5q-45 111 -144.5 181.5t-226.5 70.5q-84 0 -155.5 -31.5t-125.5 -84.5 q-55 -53 -85.5 -127t-30.5 -156zM100 385q0 76 29 143.5t80 118.5q49 51 115.5 80t144.5 29q76 0 143.5 -29t118.5 -80t80 -118.5t29 -143.5q0 -78 -29 -144.5t-80 -115.5q-51 -51 -118.5 -80t-143.5 -29q-78 0 -144.5 29t-115.5 80q-51 49 -80 115.5t-29 144.5zM288 981h33 q53 78 106.5 158t106.5 157q53 -78 106.5 -157.5t106.5 -157.5h33q-61 92 -122.5 185.5t-123.5 185.5q-61 -92 -122.5 -185.5t-123.5 -185.5z" />
<glyph unicode="&#xe3;" d="M72 385q0 -84 30.5 -155.5t85.5 -125.5q53 -55 125 -85.5t156 -30.5q63 0 121.5 18.5t107.5 52.5q47 33 84 79t60 102q0 -33 -1 -65t-1 -64v-111h178v29h-150v739h-20q-4 -59 -6 -117.5t-2 -118.5q-45 111 -144.5 181.5t-226.5 70.5q-84 0 -155.5 -31.5t-125.5 -84.5 q-55 -53 -85.5 -127t-30.5 -156zM100 385q0 76 29 143.5t80 118.5q49 51 115.5 80t144.5 29q76 0 143.5 -29t118.5 -80t80 -118.5t29 -143.5q0 -78 -29 -144.5t-80 -115.5q-51 -51 -118.5 -80t-143.5 -29q-78 0 -144.5 29t-115.5 80q-51 49 -80 115.5t-29 144.5zM188 971 l27 -4q4 35 19.5 56t35.5 34q20 12 42 17t38 5q29 0 53.5 -12t57.5 -49q33 -35 66.5 -56.5t74.5 -21.5q29 0 57.5 7.5t53.5 23.5q23 16 39 42.5t18 63.5l-27 4q-4 -35 -19 -56t-36 -34q-20 -12 -41.5 -17t-38.5 -5q-29 0 -53.5 12t-56.5 49q-33 35 -67 56.5t-75 21.5 q-29 0 -57.5 -7t-50.5 -24q-25 -16 -41.5 -42.5t-18.5 -63.5z" />
<glyph unicode="&#xe4;" d="M72 385q0 -84 30.5 -155.5t85.5 -125.5q53 -55 125 -85.5t156 -30.5q63 0 121.5 18.5t107.5 52.5q47 33 84 79t60 102q0 -33 -1 -65t-1 -64v-111h178v29h-150v739h-20q-4 -59 -6 -117.5t-2 -118.5q-45 111 -144.5 181.5t-226.5 70.5q-84 0 -155.5 -31.5t-125.5 -84.5 q-55 -53 -85.5 -127t-30.5 -156zM100 385q0 76 29 143.5t80 118.5q49 51 115.5 80t144.5 29q76 0 143.5 -29t118.5 -80t80 -118.5t29 -143.5q0 -78 -29 -144.5t-80 -115.5q-51 -51 -118.5 -80t-143.5 -29q-78 0 -144.5 29t-115.5 80q-51 49 -80 115.5t-29 144.5zM285 1024 q0 -16 12.5 -28.5t28.5 -12.5t28.5 12.5t12.5 28.5t-12.5 28.5t-28.5 12.5t-28.5 -12.5t-12.5 -28.5zM623 1024q0 -16 12 -28.5t29 -12.5q16 0 28.5 12.5t12.5 28.5t-12.5 28.5t-28.5 12.5t-28.5 -12.5t-12.5 -28.5z" />
<glyph unicode="&#xe5;" d="M72 385q0 -84 30.5 -155.5t85.5 -125.5q53 -55 125 -85.5t156 -30.5q63 0 121.5 18.5t107.5 52.5q47 33 84 79t60 102q0 -33 -1 -65t-1 -64v-111h178v29h-150v739h-20q-4 -59 -6 -117.5t-2 -118.5q-45 111 -144.5 181.5t-226.5 70.5q-84 0 -155.5 -31.5t-125.5 -84.5 q-55 -53 -85.5 -127t-30.5 -156zM100 385q0 76 29 143.5t80 118.5q49 51 115.5 80t144.5 29q76 0 143.5 -29t118.5 -80t80 -118.5t29 -143.5q0 -78 -29 -144.5t-80 -115.5q-51 -51 -118.5 -80t-143.5 -29q-78 0 -144.5 29t-115.5 80q-51 49 -80 115.5t-29 144.5zM373 1106 q0 -31 11 -55.5t32 -42.5q16 -14 38.5 -22.5t47.5 -8.5t47 8t39 23q20 18 31.5 42.5t11.5 55.5t-11.5 55.5t-31.5 42.5q-16 14 -39 22.5t-47 8.5q-31 0 -55.5 -11.5t-43.5 -31.5q-14 -16 -22 -39t-8 -47zM401 1106q0 39 29 69.5t72 30.5q45 0 72.5 -30.5t27.5 -69.5 q0 -41 -29.5 -70.5t-70.5 -29.5q-47 0 -74 31.5t-27 68.5z" />
<glyph unicode="&#xe6;" horiz-adv-x="1187" d="M72 197q0 -63 23.5 -105.5t64.5 -66.5q43 -25 102.5 -35t130.5 -10q66 0 117 10t88 30q37 -18 80 -27t92 -9q80 0 149.5 28.5t122.5 77.5l-18 23q-49 -47 -114.5 -74t-139.5 -27q-37 0 -74 7.5t-71 21.5q47 37 65.5 89t18.5 132v98q102 41 203.5 83t203.5 83 q-18 53 -51 98.5t-74 77.5q-45 37 -101 57.5t-120 20.5q-45 0 -86 -9t-78 -26q-35 16 -89 25.5t-126 9.5q-33 0 -69.5 -6t-71.5 -16t-64.5 -23.5t-48.5 -29.5q6 -6 13.5 -12.5t13.5 -12.5q16 12 42.5 25.5t57.5 23.5t63.5 16.5t61.5 6.5q94 0 151.5 -15.5t88.5 -48.5 q31 -31 41 -79t10 -111v-107h-299q-59 0 -114.5 -9t-98.5 -34q-43 -23 -69.5 -59.5t-26.5 -91.5zM100 199q0 70 48.5 104.5t113.5 48.5q63 12 128 11t97 -1h193v-147q0 -61 -24.5 -101t-63.5 -63q-41 -25 -92 -34t-103 -9q-47 0 -99 7.5t-95 27.5q-45 20 -74 58.5t-29 97.5z M635 725q33 14 66.5 20.5t68.5 6.5q102 0 185 -58.5t124 -152.5q-92 -37 -185 -75t-185 -75v103q0 86 -16.5 142t-57.5 89z" />
<glyph unicode="&#xe7;" horiz-adv-x="792" d="M72 385q0 -82 30.5 -153.5t83.5 -125.5q51 -55 122 -85.5t153 -32.5v-13q0 -41 26.5 -67.5t59.5 -46.5q31 -23 57.5 -53.5t26.5 -88.5q0 -63 -40 -105t-104 -42q-49 0 -85.5 26.5t-49.5 71.5l-30 -8q20 -61 65 -90t100 -29q68 0 120 46.5t52 150.5q0 29 -19 66.5 t-67 68.5q-25 16 -53 42t-31 71q61 0 127 26.5t105 61.5l-21 20q-47 -37 -106 -58.5t-125 -21.5q-78 0 -144.5 29t-115.5 80q-51 49 -80 115.5t-29 144.5q0 76 29 143.5t80 118.5q49 51 115.5 80t144.5 29q63 0 119.5 -20.5t103.5 -55.5v-164h29v180q-51 41 -115.5 64.5 t-136.5 23.5q-84 0 -155.5 -31.5t-125.5 -84.5q-55 -53 -85.5 -127t-30.5 -156z" />
<glyph unicode="&#xe8;" horiz-adv-x="890" d="M72 385q0 -84 30.5 -155.5t85.5 -127.5q53 -53 125 -83.5t156 -30.5q80 0 149.5 28.5t122.5 77.5l-18 23q-49 -47 -114.5 -74t-139.5 -27q-119 0 -211 64.5t-133 169.5q174 72 345 140.5t345 139.5q-20 55 -53 100.5t-74 78.5q-45 37 -101.5 56t-117.5 19 q-84 0 -155.5 -31.5t-125.5 -84.5q-55 -53 -85.5 -127t-30.5 -156zM105.5 450.5q17.5 86.5 68.5 153.5q49 68 126 110t169 42q102 0 185 -58.5t124 -152.5q-166 -68 -331.5 -134.5t-331.5 -134.5q-27 88 -9.5 174.5zM258 1253q47 -68 92.5 -136t92.5 -136h32 q-47 68 -92 136.5t-92 135.5h-33z" />
<glyph unicode="&#xe9;" horiz-adv-x="890" d="M72 385q0 -84 30.5 -155.5t85.5 -127.5q53 -53 125 -83.5t156 -30.5q80 0 149.5 28.5t122.5 77.5l-18 23q-49 -47 -114.5 -74t-139.5 -27q-119 0 -211 64.5t-133 169.5q174 72 345 140.5t345 139.5q-20 55 -53 100.5t-74 78.5q-45 37 -101.5 56t-117.5 19 q-84 0 -155.5 -31.5t-125.5 -84.5q-55 -53 -85.5 -127t-30.5 -156zM105.5 450.5q17.5 86.5 68.5 153.5q49 68 126 110t169 42q102 0 185 -58.5t124 -152.5q-166 -68 -331.5 -134.5t-331.5 -134.5q-27 88 -9.5 174.5zM477 981h33q47 68 92 136.5t92 135.5h-33 q-47 -68 -92 -136t-92 -136z" />
<glyph unicode="&#xea;" horiz-adv-x="890" d="M72 385q0 -84 30.5 -155.5t85.5 -127.5q53 -53 125 -83.5t156 -30.5q80 0 149.5 28.5t122.5 77.5l-18 23q-49 -47 -114.5 -74t-139.5 -27q-119 0 -211 64.5t-133 169.5q174 72 345 140.5t345 139.5q-20 55 -53 100.5t-74 78.5q-45 37 -101.5 56t-117.5 19 q-84 0 -155.5 -31.5t-125.5 -84.5q-55 -53 -85.5 -127t-30.5 -156zM105.5 450.5q17.5 86.5 68.5 153.5q49 68 126 110t169 42q102 0 185 -58.5t124 -152.5q-166 -68 -331.5 -134.5t-331.5 -134.5q-27 88 -9.5 174.5zM225 981h33q53 78 106.5 158t106.5 157 q53 -78 106.5 -157.5t106.5 -157.5h33q-61 92 -122.5 185.5t-123.5 185.5q-61 -92 -122.5 -185.5t-123.5 -185.5z" />
<glyph unicode="&#xeb;" horiz-adv-x="890" d="M72 385q0 -84 30.5 -155.5t85.5 -127.5q53 -53 125 -83.5t156 -30.5q80 0 149.5 28.5t122.5 77.5l-18 23q-49 -47 -114.5 -74t-139.5 -27q-119 0 -211 64.5t-133 169.5q174 72 345 140.5t345 139.5q-20 55 -53 100.5t-74 78.5q-45 37 -101.5 56t-117.5 19 q-84 0 -155.5 -31.5t-125.5 -84.5q-55 -53 -85.5 -127t-30.5 -156zM105.5 450.5q17.5 86.5 68.5 153.5q49 68 126 110t169 42q102 0 185 -58.5t124 -152.5q-166 -68 -331.5 -134.5t-331.5 -134.5q-27 88 -9.5 174.5zM270 1024q0 -16 12.5 -28.5t28.5 -12.5t28.5 12.5 t12.5 28.5t-12.5 28.5t-28.5 12.5t-28.5 -12.5t-12.5 -28.5zM608 1024q0 -16 12 -28.5t29 -12.5q16 0 28.5 12.5t12.5 28.5t-12.5 28.5t-28.5 12.5t-28.5 -12.5t-12.5 -28.5z" />
<glyph unicode="&#xec;" horiz-adv-x="499" d="M49 1253q47 -68 92.5 -136t92.5 -136h32q-47 68 -92 136.5t-92 135.5h-33zM72 0h356v29h-160v739h-196v-29h168v-710h-168v-29z" />
<glyph unicode="&#xed;" horiz-adv-x="499" d="M72 0h356v29h-160v739h-196v-29h168v-710h-168v-29zM242 981h33q47 68 92 136.5t92 135.5h-33q-47 -68 -92 -136t-92 -136z" />
<glyph unicode="&#xee;" horiz-adv-x="499" d="M12 981h33q53 78 106.5 158t106.5 157q53 -78 106.5 -157.5t106.5 -157.5h33q-61 92 -122.5 185.5t-123.5 185.5q-61 -92 -122.5 -185.5t-123.5 -185.5zM72 0h356v29h-160v739h-196v-29h168v-710h-168v-29z" />
<glyph unicode="&#xef;" horiz-adv-x="499" d="M47 1024q0 -16 12.5 -28.5t28.5 -12.5t28.5 12.5t12.5 28.5t-12.5 28.5t-28.5 12.5t-28.5 -12.5t-12.5 -28.5zM72 0h356v29h-160v739h-196v-29h168v-710h-168v-29zM385 1024q0 -16 12 -28.5t29 -12.5q16 0 28.5 12.5t12.5 28.5t-12.5 28.5t-28.5 12.5t-28.5 -12.5 t-12.5 -28.5z" />
<glyph unicode="&#xf0;" horiz-adv-x="940" d="M72 385q0 -84 30.5 -155.5t85.5 -125.5q53 -55 125 -85.5t156 -30.5q82 0 156 30.5t127 85.5q53 53 84.5 125t31.5 156q0 111 -33.5 228.5t-91.5 234.5q-57 117 -132.5 229.5t-159.5 210.5q37 41 72.5 80t72.5 80q-4 4 -8 7t-8 7q-35 -41 -72 -78.5t-72 -78.5 q-49 55 -98 100t-98 82l-13 -19q53 -41 100.5 -87t92.5 -93q-39 -41 -78 -84t-78 -84l17 -16l153 166q86 -98 148.5 -192.5t107.5 -180.5t73 -160.5t40 -132.5q-53 82 -141.5 131t-192.5 49q-84 0 -155.5 -31.5t-125.5 -84.5q-55 -53 -85.5 -127t-30.5 -156zM100 385 q0 76 29 143.5t80 118.5q49 51 115.5 80t144.5 29q76 0 143.5 -29t118.5 -80t80 -118.5t29 -143.5q0 -78 -29 -144.5t-80 -115.5q-51 -51 -118.5 -80t-143.5 -29q-78 0 -144.5 29t-115.5 80q-51 49 -80 115.5t-29 144.5z" />
<glyph unicode="&#xf1;" horiz-adv-x="1069" d="M72 0h356v29h-166v422q0 66 27.5 122t77.5 97q47 39 109.5 61.5t131.5 22.5q90 -4 140.5 -58.5t54.5 -128.5v-538h-162v-29h356v29h-166v524q-4 102 -66.5 165.5t-170.5 63.5q-117 0 -207 -59t-131 -156q0 27 -1 46.5t-1 45.5l-4 109h-170v-29h153v-710h-161v-29z M268 951l27 -4q4 35 19.5 56t35.5 34q20 12 42 17t38 5q29 0 53.5 -12t57.5 -49q33 -35 66.5 -56.5t74.5 -21.5q29 0 57.5 7.5t53.5 23.5q23 16 39 42.5t18 63.5l-27 4q-4 -35 -19 -56t-36 -34q-20 -12 -41.5 -17t-38.5 -5q-29 0 -53.5 12t-56.5 49q-33 35 -67 56.5 t-75 21.5q-29 0 -57.5 -7t-50.5 -24q-25 -16 -41.5 -42.5t-18.5 -63.5z" />
<glyph unicode="&#xf2;" horiz-adv-x="944" d="M74 385q0 -84 30.5 -155.5t85.5 -125.5q53 -55 125 -85.5t156 -30.5q82 0 156 30.5t129 85.5q53 53 84.5 125t31.5 156q0 82 -31.5 155.5t-84.5 129.5q-55 53 -129 84.5t-156 31.5q-84 0 -155.5 -31.5t-125.5 -84.5q-55 -55 -85.5 -129t-30.5 -156zM102 385 q0 76 29 143.5t80 118.5q49 51 115.5 80t144.5 29q76 0 143.5 -29t118.5 -80t80 -118.5t29 -143.5q0 -78 -29 -144.5t-80 -115.5q-51 -51 -118.5 -80t-143.5 -29q-78 0 -144.5 29t-115.5 80q-51 49 -80 115.5t-29 144.5zM272 1253q47 -68 92.5 -136t92.5 -136h32 q-47 68 -92 136.5t-92 135.5h-33z" />
<glyph unicode="&#xf3;" horiz-adv-x="944" d="M74 385q0 -84 30.5 -155.5t85.5 -125.5q53 -55 125 -85.5t156 -30.5q82 0 156 30.5t129 85.5q53 53 84.5 125t31.5 156q0 82 -31.5 155.5t-84.5 129.5q-55 53 -129 84.5t-156 31.5q-84 0 -155.5 -31.5t-125.5 -84.5q-55 -55 -85.5 -129t-30.5 -156zM102 385 q0 76 29 143.5t80 118.5q49 51 115.5 80t144.5 29q76 0 143.5 -29t118.5 -80t80 -118.5t29 -143.5q0 -78 -29 -144.5t-80 -115.5q-51 -51 -118.5 -80t-143.5 -29q-78 0 -144.5 29t-115.5 80q-51 49 -80 115.5t-29 144.5zM473 981h33q47 68 92 136.5t92 135.5h-33 q-47 -68 -92 -136t-92 -136z" />
<glyph unicode="&#xf4;" horiz-adv-x="944" d="M74 385q0 -84 30.5 -155.5t85.5 -125.5q53 -55 125 -85.5t156 -30.5q82 0 156 30.5t129 85.5q53 53 84.5 125t31.5 156q0 82 -31.5 155.5t-84.5 129.5q-55 53 -129 84.5t-156 31.5q-84 0 -155.5 -31.5t-125.5 -84.5q-55 -55 -85.5 -129t-30.5 -156zM102 385 q0 76 29 143.5t80 118.5q49 51 115.5 80t144.5 29q76 0 143.5 -29t118.5 -80t80 -118.5t29 -143.5q0 -78 -29 -144.5t-80 -115.5q-51 -51 -118.5 -80t-143.5 -29q-78 0 -144.5 29t-115.5 80q-51 49 -80 115.5t-29 144.5zM235 981h33q53 78 106.5 158t106.5 157 q53 -78 106.5 -157.5t106.5 -157.5h33q-61 92 -122.5 185.5t-123.5 185.5q-61 -92 -122.5 -185.5t-123.5 -185.5z" />
<glyph unicode="&#xf5;" horiz-adv-x="944" d="M74 385q0 -84 30.5 -155.5t85.5 -125.5q53 -55 125 -85.5t156 -30.5q82 0 156 30.5t129 85.5q53 53 84.5 125t31.5 156q0 82 -31.5 155.5t-84.5 129.5q-55 53 -129 84.5t-156 31.5q-84 0 -155.5 -31.5t-125.5 -84.5q-55 -55 -85.5 -129t-30.5 -156zM102 385 q0 76 29 143.5t80 118.5q49 51 115.5 80t144.5 29q76 0 143.5 -29t118.5 -80t80 -118.5t29 -143.5q0 -78 -29 -144.5t-80 -115.5q-51 -51 -118.5 -80t-143.5 -29q-78 0 -144.5 29t-115.5 80q-51 49 -80 115.5t-29 144.5zM202 971l27 -4q4 35 19.5 56t35.5 34q20 12 42 17 t38 5q29 0 53.5 -12t57.5 -49q33 -35 66.5 -56.5t74.5 -21.5q29 0 57.5 7.5t53.5 23.5q23 16 39 42.5t18 63.5l-27 4q-4 -35 -19 -56t-36 -34q-20 -12 -41.5 -17t-38.5 -5q-29 0 -53.5 12t-56.5 49q-33 35 -67 56.5t-75 21.5q-29 0 -57.5 -7t-50.5 -24q-25 -16 -41.5 -42.5 t-18.5 -63.5z" />
<glyph unicode="&#xf6;" horiz-adv-x="944" d="M74 385q0 -84 30.5 -155.5t85.5 -125.5q53 -55 125 -85.5t156 -30.5q82 0 156 30.5t129 85.5q53 53 84.5 125t31.5 156q0 82 -31.5 155.5t-84.5 129.5q-55 53 -129 84.5t-156 31.5q-84 0 -155.5 -31.5t-125.5 -84.5q-55 -55 -85.5 -129t-30.5 -156zM102 385 q0 76 29 143.5t80 118.5q49 51 115.5 80t144.5 29q76 0 143.5 -29t118.5 -80t80 -118.5t29 -143.5q0 -78 -29 -144.5t-80 -115.5q-51 -51 -118.5 -80t-143.5 -29q-78 0 -144.5 29t-115.5 80q-51 49 -80 115.5t-29 144.5zM270 1024q0 -16 12.5 -28.5t28.5 -12.5t28.5 12.5 t12.5 28.5t-12.5 28.5t-28.5 12.5t-28.5 -12.5t-12.5 -28.5zM608 1024q0 -16 12 -28.5t29 -12.5q16 0 28.5 12.5t12.5 28.5t-12.5 28.5t-28.5 12.5t-28.5 -12.5t-12.5 -28.5z" />
<glyph unicode="&#xf7;" horiz-adv-x="1026" d="M139 430h738v29h-738v-29zM473 186q0 -16 12.5 -28.5t28.5 -12.5t28.5 12.5t12.5 28.5t-12.5 28.5t-28.5 12.5t-28.5 -12t-12.5 -29zM473 698q0 -16 12.5 -28.5t28.5 -12.5t28.5 12.5t12.5 28.5t-12.5 28.5t-28.5 12.5t-28.5 -12t-12.5 -29z" />
<glyph unicode="&#xf8;" horiz-adv-x="937" d="M72 385q0 -86 31.5 -160.5t89.5 -128.5q-20 -25 -40 -48t-40 -48q4 -4 9 -8t9 -8q20 25 40 48t40 48q53 -43 118.5 -67.5t139.5 -24.5q82 0 155.5 30.5t127.5 85.5q53 53 84.5 125t31.5 156q0 92 -40 173t-105 134q16 18 31.5 38t31.5 38q-4 4 -9 8t-9 8 q-16 -18 -31.5 -37.5t-31.5 -37.5q-49 35 -109.5 55t-126.5 20q-84 0 -155.5 -31.5t-125.5 -84.5q-55 -53 -85.5 -127t-30.5 -156zM100 385q0 76 29 143.5t80 118.5q49 51 115.5 80t144.5 29q59 0 114.5 -18.5t100.5 -51.5q-119 -141 -236.5 -283.5t-236.5 -283.5 q-51 51 -81 119.5t-30 146.5zM229 102q119 141 238 283.5t238 284.5q61 -51 98 -125t37 -160q0 -78 -29 -144.5t-80 -115.5q-51 -51 -118.5 -80t-143.5 -29q-68 0 -128.5 21.5t-111.5 64.5z" />
<glyph unicode="&#xf9;" horiz-adv-x="1060" d="M72 739h161v-524q4 -102 66.5 -165.5t171.5 -63.5q115 0 206 58.5t132 156.5l4 -92l6 -109h170v29h-158v739h-190v-29h162v-422q0 -66 -29 -122t-76 -95q-47 -41 -109.5 -63.5t-131.5 -22.5q-90 4 -140.5 58.5t-54.5 128.5v567h-190v-29zM311 1253q47 -68 92.5 -136 t92.5 -136h32q-47 68 -92 136.5t-92 135.5h-33z" />
<glyph unicode="&#xfa;" horiz-adv-x="1060" d="M72 739h161v-524q4 -102 66.5 -165.5t171.5 -63.5q115 0 206 58.5t132 156.5l4 -92l6 -109h170v29h-158v739h-190v-29h162v-422q0 -66 -29 -122t-76 -95q-47 -41 -109.5 -63.5t-131.5 -22.5q-90 4 -140.5 58.5t-54.5 128.5v567h-190v-29zM473 981h33q47 68 92 136.5 t92 135.5h-33q-47 -68 -92 -136t-92 -136z" />
<glyph unicode="&#xfb;" horiz-adv-x="1060" d="M72 739h161v-524q4 -102 66.5 -165.5t171.5 -63.5q115 0 206 58.5t132 156.5l4 -92l6 -109h170v29h-158v739h-190v-29h162v-422q0 -66 -29 -122t-76 -95q-47 -41 -109.5 -63.5t-131.5 -22.5q-90 4 -140.5 58.5t-54.5 128.5v567h-190v-29zM299 981h33q53 78 106.5 158 t106.5 157q53 -78 106.5 -157.5t106.5 -157.5h33q-61 92 -122.5 185.5t-123.5 185.5q-61 -92 -122.5 -185.5t-123.5 -185.5z" />
<glyph unicode="&#xfc;" horiz-adv-x="1060" d="M72 739h161v-524q4 -102 66.5 -165.5t171.5 -63.5q115 0 206 58.5t132 156.5l4 -92l6 -109h170v29h-158v739h-190v-29h162v-422q0 -66 -29 -122t-76 -95q-47 -41 -109.5 -63.5t-131.5 -22.5q-90 4 -140.5 58.5t-54.5 128.5v567h-190v-29zM322 1024q0 -16 12.5 -28.5 t28.5 -12.5t28.5 12.5t12.5 28.5t-12.5 28.5t-28.5 12.5t-28.5 -12.5t-12.5 -28.5zM660 1024q0 -16 12 -28.5t29 -12.5q16 0 28.5 12.5t12.5 28.5t-12.5 28.5t-28.5 12.5t-28.5 -12.5t-12.5 -28.5z" />
<glyph unicode="&#xfd;" horiz-adv-x="1208" d="M72 739h147q92 -188 185.5 -374.5t187.5 -372.5q-59 -117 -118.5 -237t-119.5 -238h-166v-29h357v29h-152q154 307 304.5 611t303.5 611h136v29h-285v-29h113q-90 -180 -179.5 -360t-175.5 -350q-90 178 -178 354t-176 356h145v29h-329v-29zM611 981h33q47 68 92 136.5 t92 135.5h-33q-47 -68 -92 -136t-92 -136z" />
<glyph unicode="&#xfe;" horiz-adv-x="1019" d="M33 -483v-29h356v29h-168v608q0 29 -1 55.5t-1 55.5q20 -55 57 -101.5t86 -79.5q47 -35 105.5 -53t122.5 -18q82 0 154.5 31.5t127.5 84.5q53 53 84 126t31 157q0 82 -30.5 154.5t-84.5 128.5q-55 53 -127.5 83.5t-154.5 30.5q-129 0 -229.5 -70.5t-143.5 -183.5 q0 33 1 66t1 65v850h170v29h-356v-29h157v-1990h-157zM219 383q0 76 28.5 143.5t80.5 118.5q51 49 117.5 78t144.5 29q76 0 143.5 -29t118.5 -78q49 -51 77.5 -118.5t28.5 -143.5q0 -78 -28.5 -144.5t-77.5 -117.5q-51 -51 -118.5 -80t-143.5 -29q-78 0 -144.5 29t-117.5 80 t-80 117.5t-29 144.5z" />
<glyph unicode="&#xff;" horiz-adv-x="1208" d="M72 739h147q92 -188 185.5 -374.5t187.5 -372.5q-59 -117 -118.5 -237t-119.5 -238h-166v-29h357v29h-152q154 307 304.5 611t303.5 611h136v29h-285v-29h113q-90 -180 -179.5 -360t-175.5 -350q-90 178 -178 354t-176 356h145v29h-329v-29zM404 1024q0 -16 12.5 -28.5 t28.5 -12.5t28.5 12.5t12.5 28.5t-12.5 28.5t-28.5 12.5t-28.5 -12.5t-12.5 -28.5zM742 1024q0 -16 12 -28.5t29 -12.5q16 0 28.5 12.5t12.5 28.5t-12.5 28.5t-28.5 12.5t-28.5 -12.5t-12.5 -28.5z" />
<glyph unicode="&#x152;" horiz-adv-x="1878" d="M125 715q0 -152 57.5 -285t157.5 -231q98 -100 231.5 -157.5t284.5 -57.5q39 0 78 4t78 12h747v182h-28v-153h-693v680h613v28h-613v668h664v-152h29v183l-721 -2q-39 8 -77 12t-77 4q-152 0 -285 -58.5t-231 -156.5q-100 -100 -157.5 -234.5t-57.5 -285.5zM154 713 q0 145 55 274t151 225q94 96 222.5 152.5t273.5 56.5q39 0 77 -4t77 -12v-1376q-39 -8 -79 -12.5t-81 -4.5q-143 0 -270 55.5t-222 151.5q-94 94 -149 221.5t-55 272.5z" />
<glyph unicode="&#x153;" horiz-adv-x="1343" d="M92 385q0 -84 31 -155.5t86 -125.5q53 -55 125 -85.5t155 -30.5q63 0 121 17.5t105 49.5q47 -33 104.5 -50t120.5 -17q80 0 150.5 28.5t123.5 77.5l-22 21q-49 -47 -113.5 -73t-138.5 -26q-119 0 -211 64.5t-133 169.5q78 33 167 68.5t179 72.5t178 73t166 66 q-23 55 -54.5 101.5t-74.5 81.5t-97 54t-120 19q-63 0 -120.5 -18t-104.5 -51q-47 33 -104.5 51t-121.5 18q-84 0 -155.5 -31.5t-124.5 -84.5q-55 -55 -86 -129t-31 -156zM121 385q0 76 28.5 143.5t79.5 118.5q49 51 115.5 80t144.5 29q55 0 106.5 -15.5t94.5 -44.5 q-68 -55 -107.5 -136t-39.5 -175q0 -96 40 -176t107 -135q-45 -29 -95 -43.5t-106 -14.5q-78 0 -144 29t-116 80q-51 49 -79.5 115.5t-28.5 144.5zM571 385q0 76 29 143.5t80 118.5q49 51 115.5 80t144.5 29q111 0 187.5 -59.5t119.5 -151.5q-76 -31 -161 -66t-171 -67 q-86 -35 -169.5 -70t-159.5 -66q-6 25 -10.5 52.5t-4.5 56.5z" />
<glyph unicode="&#x2c6;" horiz-adv-x="921" d="M229 981h33l213 193l213 -193h33l-246 248z" />
<glyph unicode="&#x2dc;" horiz-adv-x="1214" d="M350 946l27 -4q4 35 19.5 56.5t35.5 33.5t42 17.5t38 5.5q29 0 53.5 -12.5t57.5 -49.5q33 -35 66.5 -56.5t74.5 -21.5q29 0 57.5 7.5t52.5 23.5q23 16 39.5 43t18.5 64l-27 4q-4 -35 -19.5 -56.5t-35.5 -33.5t-42 -17.5t-38 -5.5q-29 0 -53.5 12.5t-57.5 49.5 q-33 35 -66.5 56t-74.5 21q-29 0 -57.5 -7t-50.5 -23q-25 -16 -41.5 -43t-18.5 -64z" />
<glyph unicode="&#x2000;" horiz-adv-x="953" />
<glyph unicode="&#x2001;" horiz-adv-x="1907" />
<glyph unicode="&#x2002;" horiz-adv-x="953" />
<glyph unicode="&#x2003;" horiz-adv-x="1907" />
<glyph unicode="&#x2004;" horiz-adv-x="635" />
<glyph unicode="&#x2005;" horiz-adv-x="476" />
<glyph unicode="&#x2006;" horiz-adv-x="317" />
<glyph unicode="&#x2007;" horiz-adv-x="317" />
<glyph unicode="&#x2008;" horiz-adv-x="238" />
<glyph unicode="&#x2009;" horiz-adv-x="381" />
<glyph unicode="&#x200a;" horiz-adv-x="105" />
<glyph unicode="&#x2010;" horiz-adv-x="614" d="M109 377h376v29h-376v-29z" />
<glyph unicode="&#x2011;" horiz-adv-x="614" d="M109 377h376v29h-376v-29z" />
<glyph unicode="&#x2012;" horiz-adv-x="614" d="M109 377h376v29h-376v-29z" />
<glyph unicode="&#x2013;" horiz-adv-x="1042" d="M205 367h616v28h-616v-28z" />
<glyph unicode="&#x2014;" horiz-adv-x="1433" d="M203 367h1028v28h-1028v-28z" />
<glyph unicode="&#x2018;" horiz-adv-x="335" d="M82 1456q-16 -82 9.5 -156.5t84.5 -128.5l12 37q-43 41 -62.5 101.5t-4.5 132.5q-10 4 -19.5 7t-19.5 7z" />
<glyph unicode="&#x2019;" horiz-adv-x="335" d="M121 1208l12 -37q59 53 84.5 128t9.5 157q-10 -4 -19 -7t-20 -7q14 -72 -5 -132.5t-62 -101.5z" />
<glyph unicode="&#x201a;" horiz-adv-x="299" d="M41 -59l12 -37q59 53 84.5 127.5t9.5 156.5q-10 -4 -19 -7t-19 -7q14 -72 -5.5 -132t-62.5 -101z" />
<glyph unicode="&#x201c;" horiz-adv-x="509" d="M63 1456q-16 -82 9.5 -156.5t85.5 -128.5l12 37q-43 41 -62.5 101.5t-5.5 132.5q-10 4 -19 7t-20 7zM276 1456q-16 -82 9.5 -156.5t85.5 -128.5l12 37q-43 41 -62.5 101.5t-5.5 132.5q-10 4 -19 7t-20 7z" />
<glyph unicode="&#x201d;" horiz-adv-x="507" d="M90 1208l12 -37q59 53 85 128t10 157q-10 -4 -19.5 -7t-19.5 -7q14 -72 -5.5 -132.5t-62.5 -101.5zM303 1208l12 -37q59 53 85 128t10 157q-10 -4 -19.5 -7t-19.5 -7q14 -72 -5.5 -132.5t-62.5 -101.5z" />
<glyph unicode="&#x201e;" horiz-adv-x="479" d="M41 -59l12 -37q59 53 84.5 127.5t9.5 156.5q-10 -4 -19 -7t-19 -7q14 -72 -5.5 -132t-62.5 -101zM254 -59l12 -37q59 53 84.5 127.5t9.5 156.5q-10 -4 -19 -7t-19 -7q14 -72 -5.5 -132t-62.5 -101z" />
<glyph unicode="&#x2022;" horiz-adv-x="980" d="M356 614q0 -31 12.5 -56.5t32.5 -43.5q18 -16 40.5 -24.5t47.5 -8.5q27 0 51.5 9.5t41.5 25.5q20 18 31.5 44t11.5 54q0 31 -11.5 56.5t-29.5 44.5q-18 16 -43 25.5t-52 9.5q-29 0 -54 -11.5t-44 -29.5q-16 -18 -25.5 -43t-9.5 -52z" />
<glyph unicode="&#x2026;" horiz-adv-x="1046" d="M147 41q0 -16 12.5 -28.5t28.5 -12.5t28.5 12.5t12.5 28.5t-12 28.5t-29 12.5q-16 0 -28.5 -12.5t-12.5 -28.5zM481 41q0 -16 12.5 -28.5t28.5 -12.5t28.5 12.5t12.5 28.5t-12 28.5t-29 12.5q-16 0 -28.5 -12.5t-12.5 -28.5zM815 41q0 -16 12.5 -28.5t28.5 -12.5 t28.5 12.5t12.5 28.5t-12.5 28.5t-28.5 12.5t-28.5 -12.5t-12.5 -28.5z" />
<glyph unicode="&#x202f;" horiz-adv-x="381" />
<glyph unicode="&#x2039;" horiz-adv-x="802" d="M240 489l350 -331v32q-72 76 -145.5 150t-145.5 149q72 74 145.5 148t145.5 147v35q-88 -84 -175 -165t-175 -165z" />
<glyph unicode="&#x203a;" horiz-adv-x="802" d="M239 158v32q72 76 145.5 150t145.5 149q-72 74 -145.5 148t-145.5 147v35q88 -84 175 -165t175 -165z" />
<glyph unicode="&#x205f;" horiz-adv-x="476" />
<glyph unicode="&#x20ac;" horiz-adv-x="1138" d="M98 776h133q-2 -29 -4 -55.5t-2 -50.5v-42.5t2 -39.5h-127v-29h131q14 -123 62.5 -227.5t120.5 -179.5q72 -78 162 -122t192 -44q66 0 127 17t119 52l-25 17q-51 -29 -105.5 -43.5t-111.5 -14.5q-90 0 -175 39t-155 111q-70 70 -118 170t-62 225h506v29h-508 q-2 20 -3 40.5t-1 43.5q0 27 2 52.5t4 51.5h506v29h-502q18 119 63.5 215t112.5 164q68 66 154 100.5t184 34.5q51 0 99.5 -10.5t93.5 -30.5l12 20q-10 8 -65.5 29t-137.5 21q-129 0 -224 -50.5t-161 -128.5q-68 -78 -105.5 -175t-53.5 -189h-140v-29z" />
<glyph unicode="&#x25fc;" horiz-adv-x="768" d="M0 0v768h768v-768h-768z" />
</font>
</defs>
</svg>
