<?xml version="1.0" standalone="no"?>
<!DOCTYPE svg PUBLIC "-//W3C//DTD SVG 1.1//EN" "http://www.w3.org/Graphics/SVG/1.1/DTD/svg11.dtd" >
<svg xmlns="http://www.w3.org/2000/svg" xmlns:xlink="http://www.w3.org/1999/xlink" version="1.1">
<metadata>
Created by FontForge 20170731 at Thu Oct 28 13:25:27 2021
 By Aleksey,,,
Copyright 2010 Adobe Systems Incorporated. All rights reserved.
</metadata>
<defs>
<font id="Regular" horiz-adv-x="1210" >
  <font-face 
    font-family="Noir"
    font-weight="800"
    font-stretch="normal"
    units-per-em="2048"
    panose-1="0 0 0 0 0 0 0 0 0 0"
    ascent="1638"
    descent="-410"
    x-height="1024"
    cap-height="1432"
    bbox="14 -541 1845 1569"
    underline-thickness="102"
    underline-position="-307"
    unicode-range="U+000D-FB02"
  />
<missing-glyph horiz-adv-x="1024" 
 />
    <glyph glyph-name=".notdef" horiz-adv-x="1024" 
 />
    <glyph glyph-name=".null" horiz-adv-x="0" 
 />
    <glyph glyph-name=".null" horiz-adv-x="0" 
 />
    <glyph glyph-name="nonmarkingreturn" horiz-adv-x="682" 
 />
    <glyph glyph-name="CR" unicode="&#xd;" horiz-adv-x="864" 
 />
    <glyph glyph-name="space" unicode=" " horiz-adv-x="692" 
 />
    <glyph glyph-name="exclam" unicode="!" horiz-adv-x="432" 
d="M293 0v164h-158v-164h158zM160 432h106l29 1002h-164z" />
    <glyph glyph-name="quotedbl" unicode="&#x22;" horiz-adv-x="614" 
d="M127 1264v-168q1 1 24 17t41 31t35 41t17 52v197h-178v-170h61zM424 1264l-2 -168q2 1 18.5 12t31 22.5t31.5 28t27 37t11 41.5v197h-179v-170h62z" />
    <glyph glyph-name="numbersign" unicode="#" horiz-adv-x="1812" 
d="M1577 791h-344l-82 -279h346l-53 -147h-336l-113 -365h-141l107 365h-289l-111 -365h-145l106 365h-356l53 147h346l80 279h-344l51 147h338l107 369h151l-108 -369h286l107 369h156l-111 -369h352zM1001 512l82 279h-286l-82 -279h286z" />
    <glyph glyph-name="percent" unicode="%" horiz-adv-x="1404" 
d="M963 1434h161l-714 -1434h-160zM627 1153q0 -118 -85 -201.5t-204 -83.5q-118 0 -201.5 83t-83.5 202t83.5 204t201.5 85t203.5 -85t85.5 -204zM176 1153q0 -66 48 -113t114 -47q69 0 116.5 47t47.5 113q0 68 -47.5 116t-116.5 48q-66 0 -114 -48.5t-48 -115.5zM1343 274
q0 -118 -82.5 -201t-201.5 -83t-203 83t-84 201t84 202.5t203 84.5q118 0 201 -84t83 -203zM895 274q0 -66 47.5 -113.5t116.5 -47.5q66 0 114 47.5t48 113.5q0 67 -48 115.5t-114 48.5q-69 0 -116.5 -48t-47.5 -116z" />
    <glyph glyph-name="ampersand" unicode="&#x26;" horiz-adv-x="1294" 
d="M1204 432h-182l-100 -113l-398 420q36 32 96.5 74t103.5 74t86 75t66 97.5t23 120.5q0 124 -96.5 201t-253.5 77q-180 0 -291 -92t-111 -252q0 -98 37 -180.5t138 -173.5q-131 -92 -198 -185.5t-67 -209.5q0 -180 122.5 -284t332.5 -104q126 0 216 34t194 124l122 -135
h183l-217 233q2 -2 50.5 48t95.5 101zM412 657l413 -424q-72 -76 -141.5 -102.5t-177.5 -26.5q-136 0 -220.5 62t-84.5 184q0 88 44 149t167 158zM776 1167q0 -33 -19.5 -65t-74 -77t-91.5 -71t-131 -89q-23 -15 -34 -23q-43 39 -70 70t-42.5 53.5t-22.5 52t-8.5 49.5
t-1.5 61q0 91 71 150t183 59q122 0 181.5 -40.5t59.5 -129.5z" />
    <glyph glyph-name="quotesingle" unicode="'" horiz-adv-x="364" 
d="M162 1253v-153q2 1 22.5 16t36.5 28.5t32 37t17 47.5v205h-176v-181h68z" />
    <glyph glyph-name="parenleft" unicode="(" horiz-adv-x="698" 
d="M602 1442v123q-77 -25 -132 -60.5t-120 -103.5q-136 -140 -207 -313t-71 -357q0 -306 176 -559q166 -231 354 -293v119q-190 118 -296.5 312.5t-106.5 420.5q0 214 110 408t293 303z" />
    <glyph glyph-name="parenright" unicode=")" horiz-adv-x="747" 
d="M115 2v-119q78 25 132 60t118 104q136 140 207 311t71 355q0 310 -174 557q-160 226 -354 293v-123q189 -115 294 -307t105 -418q0 -212 -108.5 -406t-290.5 -307z" />
    <glyph glyph-name="asterisk" unicode="*" horiz-adv-x="581" 
d="M375 1217l131 100l-172 -4l-47 162l-54 -162l-163 6l131 -102l-54 -162l138 96l139 -96z" />
    <glyph glyph-name="plus" unicode="+" horiz-adv-x="829" 
d="M330 924v-234h-230v-143h230v-234h155v234h234v143h-234v234h-155z" />
    <glyph glyph-name="comma" unicode="," horiz-adv-x="368" 
d="M170 0v-164q1 1 16 10.5t30 21.5t31.5 28t27 36.5t10.5 40.5v195h-172v-168h57z" />
    <glyph glyph-name="hyphen" unicode="-" horiz-adv-x="829" 
d="M760 557v121h-690v-121h690z" />
    <glyph glyph-name="period" unicode="." horiz-adv-x="432" 
d="M309 0v168h-168v-168h168z" />
    <glyph glyph-name="slash" unicode="/" horiz-adv-x="905" 
d="M731 1432h158l-715 -1432h-158z" />
    <glyph glyph-name="zero" unicode="0" horiz-adv-x="1079" 
d="M965 328v735q0 90 -28 160t-70.5 112t-100.5 68.5t-111.5 36.5t-109.5 10q-72 0 -133.5 -12t-117 -39.5t-94.5 -70t-62 -107.5t-23 -148v-723q0 -93 27.5 -162.5t68.5 -107.5t100.5 -61t111.5 -30t114 -7q196 0 312 86.5t116 259.5zM829 1085v-727q0 -247 -292 -247
q-283 0 -283 254v710q0 63 25 110.5t67.5 74t91.5 39t103 12.5q56 0 106 -13t91.5 -39.5t66 -71t24.5 -102.5z" />
    <glyph glyph-name="one" unicode="1" horiz-adv-x="557" 
d="M383 0v1434h-289v-129h150v-1305h139z" />
    <glyph glyph-name="two" unicode="2" horiz-adv-x="1118" 
d="M1026 0v143l-649 -2l538 564q109 130 109 296q0 157 -117 289q-124 130 -274 150q-51 11 -92 6q-196 -9 -315.5 -123t-157.5 -326h149q0 44 23.5 98.5t63.5 105t103 84.5t134 34q57 0 117.5 -23.5t110.5 -64.5t82 -101.5t32 -128.5q0 -52 -25 -120.5t-80 -126.5
l-723 -754h971z" />
    <glyph glyph-name="three" unicode="3" horiz-adv-x="1064" 
d="M801 752q86 -51 140 -137.5t54 -186.5q0 -242 -198 -365q-127 -73 -279 -73q-189 0 -323 119q-71 63 -104.5 129.5t-33.5 156.5h150q2 -97 96.5 -179.5t224.5 -82.5q74 0 145 32.5t121 97.5t50 147q0 133 -70 200.5t-172 67.5h-92v131q3 0 37 1t43 1q82 0 163 87.5
t81 168.5q0 110 -79 182t-214 72q-69 0 -129 -26t-98 -65.5t-59.5 -84.5t-21.5 -86h-143q35 200 146.5 292.5t306.5 92.5q170 0 303 -105q131 -116 131 -282t-176 -305z" />
    <glyph glyph-name="four" unicode="4" 
d="M1130 205v127h-159v1124l-924 -1251h791v-205h131v205h161zM451 332l-156 -4l113 145l358 490l74 108l-2 -123v-534l2 -86l-95 4h-294z" />
    <glyph glyph-name="five" unicode="5" horiz-adv-x="1110" 
d="M1020 504q0 -214 -109 -336q-150 -157 -325 -178l-64 -2h-28q-65 0 -116.5 21.5t-119.5 68.5q-58 39 -105.5 111.5t-66 120.5t-20.5 65h141q35 -103 127 -181.5t190 -78.5q102 0 186.5 53t130.5 138.5t46 182.5q0 139 -96.5 236.5t-235.5 97.5q-89 0 -180.5 -41.5
t-136.5 -105.5l-103 61l266 697h592v-138l-508 -4l-141 -381q26 16 85 28.5t138 15t168.5 -28.5t155.5 -97q71 -71 100 -147t29 -178z" />
    <glyph glyph-name="six" unicode="6" horiz-adv-x="1091" 
d="M643 891q168 -31 273.5 -155t105.5 -290q0 -192 -137 -325t-338 -133q-200 0 -336.5 133.5t-136.5 324.5q0 145 67 242l4 2q4 8 146.5 196.5t282.5 373.5l141 184l112 -92l-268 -348l-84 -113q84 14 168 0zM547 113q141 0 241.5 97t100.5 232t-100.5 231.5t-241.5 96.5
q-140 0 -240 -96.5t-100 -231.5t100 -232t240 -97z" />
    <glyph glyph-name="seven" unicode="7" horiz-adv-x="1116" 
d="M1065 1432h-969v-142h729l-626 -1290h170z" />
    <glyph glyph-name="eight" unicode="8" horiz-adv-x="1034" 
d="M760 743q86 -60 141 -145.5t55 -181.5q0 -174 -129.5 -302t-314.5 -128q-184 0 -313 126.5t-129 299.5q0 94 54 180.5t136 148.5q-70 61 -115 141t-45 165q0 167 118 283t290 116q173 0 291.5 -115.5t118.5 -283.5q0 -82 -44.5 -162t-113.5 -142zM508 1315
q-109 0 -186.5 -76t-77.5 -182q0 -116 76.5 -189t187.5 -73q113 0 189.5 73t76.5 189q0 106 -78 182t-188 76zM512 117q123 0 211 87t88 204q0 114 -87.5 194t-211.5 80q-123 0 -210 -80t-87 -194q0 -117 87.5 -204t209.5 -87z" />
    <glyph glyph-name="nine" unicode="9" horiz-adv-x="1118" 
d="M899 1321q158 -133 158 -328q0 -126 -68 -245q-55 -93 -149 -209l-418 -539h-203l432 545q-16 -13 -57 -13q-122 0 -225 35.5t-168 102.5q-119 122 -119 317q0 202 137 328q138 129 332 129q191 0 348 -123zM567 666q149 0 246.5 96.5t97.5 232.5q0 133 -105 227.5
t-239 94.5q-142 0 -245 -95.5t-103 -228.5q0 -136 103 -231.5t245 -95.5z" />
    <glyph glyph-name="colon" unicode=":" horiz-adv-x="518" 
d="M371 0v180h-178v-180h178zM371 762v180h-178v-180h178z" />
    <glyph glyph-name="semicolon" unicode=";" horiz-adv-x="442" 
d="M180 0v-186q1 1 14.5 10t25.5 17.5t28.5 24t28 30t20 34t8.5 37.5v191h-172v-158h47zM299 782v160h-162v-160h162z" />
    <glyph glyph-name="less" unicode="&#x3c;" horiz-adv-x="669" 
d="M594 1022l-363 -510l361 -512h-156l-358 512l358 510h158z" />
    <glyph glyph-name="equal" unicode="=" horiz-adv-x="886" 
d="M760 684v117h-635v-117h635zM760 451v120h-635v-120h635z" />
    <glyph glyph-name="greater" unicode="&#x3e;" horiz-adv-x="653" 
d="M74 1024l366 -512l-364 -512h160l354 512l-354 512h-162z" />
    <glyph glyph-name="question" unicode="?" horiz-adv-x="1009" 
d="M436 0v164h156v-164h-156zM516 1448q185 0 308.5 -124t123.5 -310q0 -84 -38.5 -153.5t-131.5 -158.5q-108 -102 -147.5 -171.5t-42.5 -159.5h-150v20q0 185 205 369q100 92 131 142.5t31 119.5q0 120 -88 203.5t-211 83.5q-82 0 -153.5 -40t-112.5 -110
q-23 -37 -32.5 -75t-10.5 -107h-138v37q0 180 134 307t323 127z" />
    <glyph glyph-name="at" unicode="@" horiz-adv-x="1370" 
d="M1315 408q0 -126 -51 -250q0 -1 -1 -3.5t-1 -4.5q-41 -99 -113 -161.5t-154 -35.5q-38 15 -58.5 45t-22.5 53l-1 23v67v29q-7 -12 -47 -47q-84 -66 -207 -66q-140 0 -238.5 99.5t-98.5 240.5t98.5 240.5t238.5 99.5q56 0 115 -25t96 -59q9 -10 16.5 -17.5t13.5 -12
t9 -7.5v39v74h97v-655q0 -8 8 -19t26 -18t47 12q27 21 33 29q113 142 113 330q0 150 -74 276.5t-201 200t-276 73.5t-276.5 -73.5t-202 -200t-74.5 -276.5q0 -149 74.5 -276.5t202 -202t276.5 -74.5q92 0 180 32l43 -69q-106 -41 -223 -41q-129 0 -246 50t-201 134t-134 201
t-50 246q0 171 84 316.5t229.5 230.5t317.5 85q171 0 317 -85t231 -230.5t85 -316.5zM655 145q103 0 184 74t81 174q0 101 -80.5 179.5t-182.5 78.5q-101 0 -176 -77t-75 -181q0 -101 74 -174.5t175 -73.5z" />
    <glyph glyph-name="A" unicode="A" horiz-adv-x="1175" 
d="M1008 0q-56 133 -107 264h-641l-98 -264h-148l570 1460l581 -1460h-157zM590 389l266 -2q-41 113 -55 154q-57 137 -82 207l-133 362q-70 -195 -142 -371q-5 -13 -18 -50.5t-27 -76t-28 -71.5l-60 -152h279z" />
    <glyph glyph-name="B" unicode="B" horiz-adv-x="1148" 
d="M864 776q92 -36 149.5 -127t57.5 -209q0 -183 -106.5 -311.5t-264.5 -128.5h54h-633v1436h616h-26q116 -5 211.5 -102t95.5 -242q0 -98 -47.5 -181t-110.5 -120l-22 -9q14 -4 26 -6zM653 1311h-385v-467l363 2q99 0 166 78t67 161q0 37 -13.5 76t-38 73t-66.5 55.5
t-93 21.5zM674 133q89 0 169.5 92.5t80.5 194.5q0 55 -15 104.5t-47 93t-90 69.5t-135 26h-369v-580h453h-47z" />
    <glyph glyph-name="C" unicode="C" horiz-adv-x="1470" 
d="M1235 381l160 -59q-100 -158 -264 -251.5t-357 -93.5q-147 0 -275.5 59t-218 159t-141 236.5t-51.5 287.5q0 203 87 371.5t245 268t354 99.5q181 0 336.5 -83.5t259.5 -227.5l-129 -70q-75 108 -203 174t-264 66q-114 0 -216 -55t-169.5 -141.5t-107 -192.5t-39.5 -209
q0 -126 47 -239.5t123 -191t171 -122.5t191 -45q150 0 268.5 73t192.5 187z" />
    <glyph glyph-name="D" unicode="D" horiz-adv-x="1212" 
d="M467 1434q190 0 347 -97.5t246 -262.5t89 -359t-89 -358t-246 -260.5t-347 -96.5h-143h-189v1434h189h143zM451 139q148 0 274 80.5t198 213t72 282.5q0 152 -72 284.5t-198 212.5t-274 80h-162v-1151z" />
    <glyph glyph-name="E" unicode="E" horiz-adv-x="1038" 
d="M950 1286h-663v-684h569v-131h-569v-326h663v-145h-815v1432h815v-146z" />
    <glyph glyph-name="F" unicode="F" horiz-adv-x="995" 
d="M928 1305h-637v-705h508v-127h-508v-473h-154v1432h86h115h590v-127z" />
    <glyph glyph-name="G" unicode="G" horiz-adv-x="1591" 
d="M1518 739q2 -14 2 -26q0 -223 -89.5 -391t-249.5 -257.5t-368 -89.5q-198 0 -367.5 99.5t-268.5 271t-99 373.5q0 151 58.5 288.5t157.5 237t235 158.5t284 59q182 0 339.5 -66t258.5 -212l-129 -97q-164 220 -469 220q-111 0 -216 -46t-183.5 -124.5t-126 -188
t-47.5 -229.5q0 -111 42 -216t115 -186.5t182 -131.5t234 -50q220 0 351.5 111.5t185.5 345.5h-416v147h584z" />
    <glyph glyph-name="H" unicode="H" horiz-adv-x="1267" 
d="M979 1432h149v-1432h-149v469h-692v-469h-148v1434h148v-834h692v832z" />
    <glyph glyph-name="I" unicode="I" horiz-adv-x="391" 
d="M270 0v1432h-151v-1432h151z" />
    <glyph glyph-name="J" unicode="J" horiz-adv-x="722" 
d="M451 1430h145v-918q0 -258 -57 -354q-53 -82 -125 -124t-174 -42q-100 0 -187 49l90 106q50 -20 80 -20q119 0 173.5 98.5t54.5 311.5v893z" />
    <glyph glyph-name="K" unicode="K" horiz-adv-x="1083" 
d="M485 686l-45 53l131 150l457 543h-194l-469 -555l-95 -115v133v537h-143l2 -1432h147v584l54 55l14 18l59 -79l424 -576h181z" />
    <glyph glyph-name="L" unicode="L" horiz-adv-x="1026" 
d="M283 156h661v-156h-616h-133h-62v1432h150v-1276z" />
    <glyph glyph-name="M" unicode="M" horiz-adv-x="1636" 
d="M1499 0v1458l-670 -729l-688 729v-1458h150l2 889l-6 190l168 -194l374 -371l410 447l117 139l-2 -211v-889h145z" />
    <glyph glyph-name="N" unicode="N" horiz-adv-x="1384" 
d="M131 6v1454l809 -917l168 -191v373v709h145v-1450l-845 962l-136 160l4 -154v-946h-145z" />
    <glyph glyph-name="O" unicode="O" horiz-adv-x="1572" 
d="M782 1456q195 0 360.5 -98.5t262 -268t96.5 -370.5q0 -151 -57 -288.5t-153 -237t-229.5 -158t-279.5 -58.5t-278.5 58.5t-228 158t-152.5 237t-57 288.5q0 201 96 370.5t261 268t359 98.5zM782 125q115 0 221 47t183 126t122.5 189.5t45.5 231.5q0 160 -77 297.5
t-209 218t-286 80.5q-153 0 -284 -80.5t-208 -218t-77 -297.5q0 -162 77 -299t208 -216t284 -79z" />
    <glyph glyph-name="P" unicode="P" horiz-adv-x="1146" 
d="M795 430q-9 -5 -27 -12t-81.5 -19t-135.5 -12h-275v-387h-145v1434h166h33h288v-2q202 -6 322.5 -151.5t120.5 -379.5q0 -160 -69 -284.5t-197 -186.5zM276 1286v-751h322q145 9 228 119.5t83 260.5q0 97 -28.5 173.5t-95.5 130.5t-167 67h-342z" />
    <glyph glyph-name="Q" unicode="Q" horiz-adv-x="1572" 
d="M1499 713q0 -151 -56 -287t-155 -240l150 -186h-185l-75 94q-183 -123 -398 -123q-145 0 -277 59t-228 158.5t-152.5 237t-56.5 287.5q0 201 96 371.5t260 269t358 98.5q195 0 360.5 -98.5t262 -268.5t96.5 -372zM780 117q168 0 307 90l-145 184h184l70 -86
q74 80 116 185.5t42 222.5q0 121 -45.5 231t-123 190t-183.5 127.5t-222 47.5q-153 0 -284.5 -80t-209 -217.5t-77.5 -298.5q0 -162 77.5 -299.5t209 -217t284.5 -79.5z" />
    <glyph glyph-name="R" unicode="R" horiz-adv-x="1134" 
d="M799 430l-35 -14l293 -410h-180l-273 381h-49h-274v-387h-146v1434h166h33h289v-2q202 -6 322 -151.5t120 -379.5q0 -160 -69 -284.5t-197 -186.5zM281 535h321q146 9 231 120t85 260q0 96 -29.5 173t-97.5 131t-168 67h-342v-751z" />
    <glyph glyph-name="S" unicode="S" horiz-adv-x="1142" 
d="M590 778q221 -12 359 -124.5t138 -284.5q0 -122 -74.5 -214.5t-197.5 -137.5t-270 -37q-177 10 -312 101t-178 224l154 35q27 -81 127 -148t209 -67q70 0 136 15t122.5 44t90.5 79t34 114q0 111 -100 184.5t-240 73.5q-13 0 -17 2q-205 14 -339 127.5t-134 298.5
q0 113 71 205.5t192.5 142.5t263.5 43q148 -10 266 -73.5t182 -163.5l-158 -50q-34 52 -129 98t-172 46q-152 0 -253.5 -64.5t-104.5 -169.5q-10 -134 79 -212t255 -87z" />
    <glyph glyph-name="T" unicode="T" horiz-adv-x="1028" 
d="M16 1434h998v-131h-432v-1303h-152v1303h-414v131z" />
    <glyph glyph-name="U" unicode="U" horiz-adv-x="1187" 
d="M954 1434h99h26v-938q0 -140 -61.5 -256.5t-173 -185t-248.5 -68.5t-248.5 68.5t-173 185t-61.5 256.5v938h26h99h14v-979q0 -85 50.5 -162.5t130 -122.5t163.5 -45t163.5 45t130 122.5t50.5 162.5v979h14z" />
    <glyph glyph-name="V" unicode="V" horiz-adv-x="1167" 
d="M1143 1434h-154l-309 -783l-115 -303l-102 301l-283 785h-147l524 -1467z" />
    <glyph glyph-name="W" unicode="W" horiz-adv-x="1882" 
d="M1845 1434l-547 -1463l-354 1030l-387 -1030l-524 1463h153l279 -803l98 -269l88 254l299 824l256 -762l94 -281l127 355l263 682h155z" />
    <glyph glyph-name="X" unicode="X" horiz-adv-x="1212" 
d="M760 629l-62 98l70 104l381 601h-174l-256 -406l-115 -170l-112 170l-242 406h-164l350 -601l64 -104l-68 -109l-373 -618h170l267 440l104 168l105 -176l256 -432h176z" />
    <glyph glyph-name="Y" unicode="Y" horiz-adv-x="1159" 
d="M1143 1434h-156l-328 -539l-79 -127l-80 129l-328 537h-154l424 -684l72 -109l-2 -158v-483h145v483l-2 158l54 84z" />
    <glyph glyph-name="Z" unicode="Z" horiz-adv-x="1159" 
d="M1096 1434h-1004l2 -134h748l-803 -1300h1057v143l-793 -2z" />
    <glyph glyph-name="underscore" unicode="_" horiz-adv-x="894" 
d="M807 -70v138h-721v-138h721z" />
    <glyph glyph-name="grave" unicode="`" horiz-adv-x="497" 
d="M225 1290h2l-2 -162q2 1 23.5 16.5t39 30t34.5 39.5t18 50v170h-160v-144h45z" />
    <glyph glyph-name="a" unicode="a" horiz-adv-x="1243" 
d="M975 1024h147v-1024h-137v109v41q-15 -23 -80 -70q-132 -103 -321 -103q-142 0 -263 71t-191.5 192t-70.5 262q0 143 70.5 264.5t191.5 192.5t263 71q86 0 176.5 -38t152.5 -89q16 -20 62 -59v65v115zM575 111q162 0 287 115.5t125 271.5q0 103 -56.5 196t-150.5 149
t-198 56q-159 0 -275.5 -119.5t-116.5 -279.5q0 -156 114.5 -272.5t270.5 -116.5z" />
    <glyph glyph-name="b" unicode="b" horiz-adv-x="1228" 
d="M262 2h-149v1432h139v-537v-45q13 26 76 72q117 98 313 98q139 0 257 -68.5t186.5 -187.5t68.5 -260q0 -212 -150 -362t-362 -150q-88 0 -176 38t-143 91q-58 51 -60 53v-63v-111zM647 897q-158 0 -280.5 -114.5t-122.5 -266.5q0 -156 121 -274.5t278 -118.5
q156 0 267.5 113t111.5 270q0 158 -110.5 274.5t-264.5 116.5z" />
    <glyph glyph-name="c" unicode="c" horiz-adv-x="1052" 
d="M856 289l141 -53q-68 -110 -183 -178t-247 -68q-139 0 -254 70.5t-180 190t-65 259.5t65 260.5t180.5 192t253.5 71.5q123 0 232.5 -61t179.5 -160l-121 -78q-123 158 -291 158q-159 0 -259.5 -107t-100.5 -276q0 -100 46 -189t128 -143.5t180 -54.5q89 0 166 49t129 117
z" />
    <glyph glyph-name="d" unicode="d" 
d="M1098 2h-146v111v63q-10 -9 -59 -53q-56 -53 -145.5 -91t-174.5 -38q-139 0 -258 68.5t-188.5 186.5t-69.5 257q0 141 69.5 260t188.5 187.5t258 68.5q191 0 314 -98q60 -47 74 -72v45v537h137v-1432zM969 516q0 152 -124 266.5t-282 114.5q-154 0 -262 -116.5
t-108 -274.5q0 -157 110 -270t266 -113q157 0 278.5 118.5t121.5 274.5z" />
    <glyph glyph-name="e" unicode="e" horiz-adv-x="1142" 
d="M899 322h170q-68 -159 -204.5 -248.5t-289.5 -89.5q-106 0 -203 42t-166.5 113t-111 168.5t-41.5 204.5q0 106 41.5 203t111 168t166.5 113t203 42q141 0 261 -71t190 -192.5t70 -262.5q0 -39 -2 -59h-189h-102h-604q0 -78 53 -157t141.5 -131t181.5 -52q105 0 190.5 61
t133.5 148zM207 633q-8 -24 -8 -53l37 2h651l63 -2q0 34 -14 65q-48 125 -141 193.5t-220 68.5q-124 0 -224.5 -76t-143.5 -198z" />
    <glyph glyph-name="f" unicode="f" horiz-adv-x="780" 
d="M621 1022v-137h-254v-885h-148v885h-143v137h143v197v10q0 105 69.5 172.5t180.5 73.5q33 1 61 -2t51.5 -12t39.5 -15t34 -20.5t24.5 -19.5t21.5 -21t16 -17l-117 -82q-33 35 -73.5 45.5t-67.5 3.5q-34 -9 -63 -40t-29 -76v-197h254z" />
    <glyph glyph-name="g" unicode="g" horiz-adv-x="1249" 
d="M989 10v121q-70 -64 -182.5 -104.5t-220.5 -40.5q-142 0 -263 70t-191.5 191t-70.5 263q0 145 70.5 266.5t191.5 191.5t263 70q117 0 217.5 -40.5t146.5 -84.5q5 -6 35 -32v45v112h145v-1034q0 -112 -43.5 -214t-115.5 -174t-168 -114.5t-197 -42.5q-368 0 -497 342
l159 41q31 -101 117.5 -166t212.5 -65q108 0 199 56.5t141.5 148t50.5 194.5zM590 129q171 0 294.5 109t123.5 270q0 108 -58 198.5t-153.5 141.5t-206.5 51q-167 0 -277 -112t-110 -279q0 -164 110 -271.5t277 -107.5z" />
    <glyph glyph-name="h" unicode="h" horiz-adv-x="1179" 
d="M270 0v575q3 132 109 220t246 88q158 0 242.5 -85.5t84.5 -222.5v-450v-123h146v573q0 215 -131 334t-342 119q-76 0 -164.5 -24t-138.5 -68q-44 -34 -52 -45v70v473h-147v-1434h147z" />
    <glyph glyph-name="i" unicode="i" horiz-adv-x="366" 
d="M113 1024h147v-1024h-147v1024zM258 1434v-146h-149v146h149z" />
    <glyph glyph-name="j" unicode="j" horiz-adv-x="423" 
d="M297 -152v-8q0 -99 -68 -168t-172 -73v153q34 9 61.5 49t24.5 105v80v73v947h154v-947v-73v-138zM295 1434v-150h-154v150h154z" />
    <glyph glyph-name="k" unicode="k" horiz-adv-x="892" 
d="M434 532l-28 39l90 101l338 354l-175 -4l-311 -324l-76 -75l2 67v742h-145v-1432h145v436l15 15l24 22l43 -57l318 -416h178z" />
    <glyph glyph-name="l" unicode="l" horiz-adv-x="395" 
d="M274 0v1434h-153v-1434h153z" />
    <glyph glyph-name="m" unicode="m" horiz-adv-x="1910" 
d="M289 590v-590h-156v1024h156v-45l-4 -70q4 4 15 16t19.5 20t16.5 13q37 31 113 52.5t153 21.5q134 0 213.5 -39.5t142.5 -122.5q2 -3 10.5 -15.5t12.5 -18.5q5 5 13 17.5t12 16.5q25 33 49.5 56.5t64 50.5t95 41t124.5 14q218 0 337.5 -114.5t119.5 -323.5v-592h-147v123
v459q0 135 -77.5 211.5t-215.5 76.5q-136 0 -217.5 -74.5t-85.5 -207.5v-6v-582h-6h-140v535v57q0 120 -84.5 199t-218.5 79q-139 0 -227 -75t-88 -207z" />
    <glyph glyph-name="n" unicode="n" horiz-adv-x="1216" 
d="M283 0v616q3 129 107 205t247 76q157 0 251.5 -78.5t94.5 -214.5v-479v-123h141v555q0 108 -28 193t-86 149.5t-155 98.5t-228 34q-198 0 -299 -86q-8 -6 -45 -49v55v72h-150v-1024h150z" />
    <glyph glyph-name="o" unicode="o" horiz-adv-x="1206" 
d="M1145 512q0 -147 -72.5 -271.5t-197 -197t-271.5 -72.5q-146 0 -271.5 72.5t-199.5 197t-74 271.5q0 146 74 271.5t199.5 198.5t271.5 73q147 0 271.5 -73.5t197 -198.5t72.5 -271zM211 512q0 -171 113 -284t280 -113q165 0 277 113t112 284t-112 285t-277 114
q-167 0 -280 -114t-113 -285z" />
    <glyph glyph-name="p" unicode="p" horiz-adv-x="1267" 
d="M131 1028h152v-115v-61q14 14 61 53q54 52 144.5 91.5t177.5 39.5q106 0 202 -42t166 -112t111 -167t41 -203t-41 -202.5t-111 -166.5t-166 -111.5t-202 -41.5q-193 0 -318 102q-64 50 -76 70v-43v-547h-141v1456zM264 506q0 -103 58 -193t152.5 -142t199.5 -52
q155 0 267 118.5t112 276.5q0 159 -113 275t-272 116q-103 0 -196.5 -55t-150.5 -147.5t-57 -196.5z" />
    <glyph glyph-name="q" unicode="q" horiz-adv-x="1257" 
d="M975 1026h151v-1458h-141v549v41q-17 -24 -78 -68q-123 -106 -315 -106q-143 0 -264 71t-190.5 192t-69.5 263t70 263t190.5 191t263.5 70q87 0 177.5 -39t143.5 -92q60 -49 62 -53v63v113zM584 117q160 0 284.5 115.5t124.5 271.5q0 159 -123.5 279t-283.5 120
q-159 0 -272 -115.5t-113 -273.5q0 -161 112.5 -279t270.5 -118z" />
    <glyph glyph-name="r" unicode="r" horiz-adv-x="647" 
d="M268 932q65 52 88 64q64 33 210 34h18v-147l-51 1q-155 -9 -224 -109q-31 -45 -41 -105v-670h-141v1024h141v-92z" />
    <glyph glyph-name="s" unicode="s" horiz-adv-x="843" 
d="M436 565q164 -9 254 -84t90 -209q0 -74 -35 -131.5t-91.5 -90.5t-122.5 -48t-132 -10q-259 12 -350 225l141 43q27 -56 85.5 -98.5t132.5 -46.5q83 -3 159 39.5t76 113.5q0 73 -58 119t-155 51q-3 0 -7 1t-7 1q-156 15 -244.5 105.5t-79.5 220.5q6 120 115 198.5
t250 69.5q204 -9 297 -157l-117 -74q-27 40 -81 70t-105 30q-105 0 -166.5 -42.5t-61.5 -112.5q0 -85 63 -132.5t150 -50.5z" />
    <glyph glyph-name="t" unicode="t" horiz-adv-x="864" 
d="M793 1024v-141h-289v-883h-150v883h-284v141h284v408h150v-408h289z" />
    <glyph glyph-name="u" unicode="u" 
d="M598 -20q-152 0 -268.5 69t-176 184t-59.5 256v537h142v-145v-428q0 -127 108 -228.5t254 -101.5q74 0 153.5 43.5t135 120.5t55.5 162v12v420v145h143v-1026h-143v129q-62 -67 -156.5 -108t-187.5 -41z" />
    <glyph glyph-name="v" unicode="v" horiz-adv-x="985" 
d="M803 1024h153l-475 -1061l-448 1061h149l207 -506l92 -233l101 231z" />
    <glyph glyph-name="w" unicode="w" horiz-adv-x="1603" 
d="M1427 1024h158l-405 -1049l-314 658l-55 115l-53 -117l-312 -656l-426 1049h154l234 -627l45 -112l96 192l264 567l264 -542l86 -183l37 109z" />
    <glyph glyph-name="x" unicode="x" horiz-adv-x="907" 
d="M575 420h-2l-38 63l86 131l243 412h-166l-200 -354l-45 -78l-45 84l-203 348h-154l275 -467l41 -72l-35 -53l-281 -434h160l180 274l60 95l43 -70l184 -299h158z" />
    <glyph glyph-name="y" unicode="y" horiz-adv-x="1032" 
d="M993 1024h-145l-297 -651l-66 -156l-49 131l-248 676h-147l328 -868l32 -90l-43 -109l-110 -244h158z" />
    <glyph glyph-name="z" unicode="z" horiz-adv-x="868" 
d="M811 1026h-748v-117h404h131l-68 -104l-493 -805h776v125h-448h-115l69 115z" />
    <glyph glyph-name="braceleft" unicode="{" horiz-adv-x="557" 
d="M274 944l15 328q0 101 38 137t148 37v123h-33q-149 0 -213.5 -68t-64.5 -215v-336q0 -83 -15.5 -116.5t-76.5 -63.5v-98q58 -29 75 -64.5t17 -120.5v-311q0 -163 62.5 -234t215.5 -71h33v119q-113 1 -149.5 38.5t-36.5 147.5l-15 311q0 93 -16 140t-61 90
q56 54 66.5 89.5t10.5 137.5z" />
    <glyph glyph-name="bar" unicode="|" horiz-adv-x="309" 
d="M102 1538h105v-1647h-105v1647z" />
    <glyph glyph-name="braceright" unicode="}" horiz-adv-x="585" 
d="M285 492l-15 -324q0 -106 -37 -141.5t-149 -36.5v-121h33q149 0 214.5 67.5t65.5 213.5v335q0 84 15.5 118t74.5 65v96q-57 31 -73.5 66t-16.5 120v307q0 166 -63 237t-217 71h-33v-119q113 -3 149.5 -39t36.5 -143l15 -316q0 -93 16 -139t61 -88q-56 -57 -66.5 -92
t-10.5 -137z" />
    <glyph glyph-name="guillemotleft" unicode="&#xab;" horiz-adv-x="1001" 
d="M557 1024l-362 -512l360 -512h-156l-358 512l358 512h158zM942 1024l-364 -512l362 -512h-156l-358 512l358 512h158z" />
    <glyph glyph-name="acute" unicode="&#xb4;" horiz-adv-x="475" 
d="M219 1245l-4 -160q1 1 10 6.5t15.5 10t17.5 13t19.5 16t18.5 18.5t17 21.5t11.5 23t5.5 25.5v215h-185v-189h74z" />
    <glyph glyph-name="guillemotright" unicode="&#xbb;" horiz-adv-x="1009" 
d="M436 1024l365 -512l-363 -512h158l356 512l-356 512h-160zM51 1024l365 -512l-363 -512h158l356 512l-356 512h-160z" />
    <glyph glyph-name="Adieresis" unicode="&#xc4;" horiz-adv-x="1136" 
d="M299 1362v139h143l-2 -139h-141zM678 1362v139h143v-139h-143zM936 0q-47 117 -94 236h-570l-88 -236h-131l504 1298l520 -1298h-141zM567 348l236 -4q-37 100 -49 133q-17 42 -72 187l-123 323q-60 -174 -121 -330q-7 -17 -30 -79t-39 -101l-50 -129h248z" />
    <glyph glyph-name="Odieresis" unicode="&#xd6;" horiz-adv-x="1343" 
d="M410 1360v141h143v-141h-143zM786 1360v141h140v-141h-140zM672 1290q171 0 316.5 -88.5t230 -239.5t84.5 -327q0 -133 -50 -254t-134.5 -208.5t-201.5 -139t-245 -51.5q-130 0 -247.5 51.5t-202.5 139t-135 208.5t-50 254q0 132 50 253t135 209t203 140.5t247 52.5z
M672 109q135 0 250.5 70t183.5 191.5t68 264.5t-68 264.5t-183.5 191.5t-250.5 70q-137 0 -253.5 -70.5t-184.5 -191.5t-68 -264t68 -264t184.5 -191.5t253.5 -70.5z" />
    <glyph glyph-name="Udieresis" unicode="&#xdc;" horiz-adv-x="1069" 
d="M279 1360v139h139v-139h-139zM653 1360v139h142v-139h-142zM848 1272h88h22v-840q0 -190 -123 -322.5t-309 -132.5t-309 132.5t-123 322.5v840h21h90h14v-879q0 -114 95 -202.5t212 -88.5t211 88.5t94 202.5v879h17z" />
    <glyph glyph-name="agrave" unicode="&#xe0;" horiz-adv-x="1261" 
d="M981 1024h152v-1016h-144v103v43q-16 -27 -76 -70q-119 -100 -319 -100q-106 0 -203 41t-167 111t-111 167t-41 203q0 144 69.5 265t190 191t262.5 70q90 0 181 -38.5t145 -92.5q20 -19 61 -53v63v113zM588 115q104 0 198 52t151.5 141.5t57.5 191.5q0 158 -121.5 278.5
t-281.5 120.5q-157 0 -273 -118.5t-116 -276.5q0 -159 113 -274t272 -115zM393 1395l318 -262l69 81l-313 265z" />
    <glyph glyph-name="adieresis" unicode="&#xe4;" horiz-adv-x="1228" 
d="M315 1133v167h168v-167h-168zM760 1133v167h164v-167h-164zM961 1024h151v-1018h-143v107v43q-22 -31 -76 -70q-122 -100 -318 -100q-107 0 -204 41.5t-167.5 111t-112.5 166.5t-42 203t42 203.5t112.5 168t168 112.5t203.5 42q85 0 175.5 -39.5t148.5 -91.5
q61 -54 62 -55v63v113zM565 117q161 0 285.5 115t124.5 270q0 156 -123.5 276.5t-280.5 120.5q-159 0 -275 -117.5t-116 -275.5t114 -273.5t271 -115.5z" />
    <glyph glyph-name="egrave" unicode="&#xe8;" horiz-adv-x="1185" 
d="M911 324h170q-68 -160 -203.5 -249t-287.5 -89q-107 0 -204 42t-166.5 112.5t-110.5 167t-41 202.5q0 143 69 264.5t189.5 192.5t263.5 71q141 0 260.5 -71t188.5 -192.5t69 -264.5q0 -34 -2 -57h-188h-103h-602q0 -77 53 -155.5t141.5 -130.5t182.5 -52q103 0 188.5 61
t132.5 148zM221 635q-8 -24 -8 -55l35 4h651l64 -4q0 35 -15 65q-48 125 -139.5 194.5t-218.5 69.5q-125 0 -225 -76t-144 -198zM360 1378l310 -258l73 80l-311 264z" />
    <glyph glyph-name="eacute" unicode="&#xe9;" horiz-adv-x="1193" 
d="M913 326h170q-69 -161 -203.5 -250.5t-289.5 -89.5q-106 0 -202 42t-166 113t-111 168t-41 203q0 143 69.5 265t189.5 193.5t261 71.5q142 0 263 -71.5t191 -193.5t70 -265q0 -9 -1 -28t-1 -29h-192h-99h-610q0 -120 119.5 -229t259.5 -109q107 0 193 61t130 148z
M223 637q-8 -24 -8 -55l37 4h651l66 -4q0 33 -19 67q-48 125 -140 193.5t-220 68.5q-123 0 -224 -76.5t-143 -197.5zM827 1384l-315 -260l-70 82l312 262z" />
    <glyph glyph-name="odieresis" unicode="&#xf6;" horiz-adv-x="1179" 
d="M285 1133v163h166v-163h-166zM723 1133v163h164v-163h-164zM592 1053q147 0 271.5 -72.5t197 -197t72.5 -271.5t-72.5 -272t-197 -198t-271.5 -73t-272 73t-198 198t-73 272t73 271.5t198 197t272 72.5zM592 119q169 0 283 114.5t114 278.5q0 165 -114 278t-283 113
q-171 0 -285 -113t-114 -278q0 -164 114.5 -278.5t284.5 -114.5z" />
    <glyph glyph-name="divide" unicode="&#xf7;" horiz-adv-x="825" 
d="M485 778v146h-139v-146h139zM485 293v143h-139v-143h139zM721 561v103h-625v-103h625z" />
    <glyph glyph-name="udieresis" unicode="&#xfc;" horiz-adv-x="1159" 
d="M268 1128v160h158v-160h-158zM690 1128v160h162v-160h-162zM571 -12q-150 0 -264 68t-172.5 181t-58.5 252v533h137v-145v-426q0 -125 106 -224.5t252 -99.5q73 0 151 42.5t132.5 118.5t54.5 161v14v411v148h144v-1016h-144v127q-63 -64 -155 -104.5t-183 -40.5z" />
    <glyph glyph-name="dotaccent" unicode="&#x2d9;" horiz-adv-x="1024" 
 />
    <glyph glyph-name="endash" unicode="&#x2013;" horiz-adv-x="1173" 
d="M47 567v92h1071v-92h-1071z" />
    <glyph glyph-name="emdash" unicode="&#x2014;" horiz-adv-x="1323" 
d="M63 569v93h1194v-93h-1194z" />
    <glyph glyph-name="quoteleft" unicode="&#x2018;" horiz-adv-x="479" 
d="M217 1468l2 -153h-69v-180h176v208q-1 18 -10.5 35.5t-25.5 32.5t-28.5 25t-28 21t-16.5 11z" />
    <glyph glyph-name="quoteright" unicode="&#x2019;" horiz-adv-x="444" 
d="M199 1251l-4 -155q1 1 22.5 16.5t38 29t32.5 38t17 47.5v207h-178v-183h72z" />
    <glyph glyph-name="quotesinglbase" unicode="&#x201a;" horiz-adv-x="378" 
d="M174 0v-139l8 5q7 5 12.5 8.5t15.5 11t17.5 14.5t16.5 16.5t14.5 18.5t9.5 20t4 22v170h-143v-147h45z" />
    <glyph glyph-name="quotedblright" unicode="&#x201d;" horiz-adv-x="655" 
d="M164 1243v-160l13 9q13 9 23 16.5t25 21.5t24.5 26.5t17 29.5t7.5 33v215h-184v-191h74zM446 1243l-4 -160l8 5q9 6 14 9.5t15.5 11t17.5 14t17 15.5t16.5 18t13 19.5t10 21.5t3.5 22v215h-186v-191h75z" />
    <glyph glyph-name="fraction" unicode="&#x2044;" horiz-adv-x="915" 
d="M739 1432h158l-715 -1432h-157z" />
    <glyph glyph-name="Euro" unicode="&#x20ac;" horiz-adv-x="1615" 
d="M1389 379l153 -55q-97 -158 -258 -250t-352 -92q-261 0 -445.5 167t-226.5 426h-209v84h197v56q0 45 4 65h-201v84h209q45 255 229.5 420.5t442.5 165.5q178 0 333 -83t257 -224l-131 -72q-74 107 -200.5 173.5t-258.5 66.5q-94 0 -179.5 -37.5t-150 -100.5t-111 -142.5
t-69.5 -166.5h579v-84h-598q-2 -20 -2 -65q0 -40 2 -56h598v-84h-585q45 -198 194.5 -325t321.5 -127q147 0 264 71.5t193 184.5z" />
    <glyph glyph-name="fi" unicode="&#xfb01;" horiz-adv-x="888" 
d="M676 1036h149v-1036h-149v1036zM563 844v-121h-250v-963h-155v963h-140v121h140v346v10q0 107 70.5 174t181.5 72q46 2 83 -3.5t66 -21t42.5 -24.5t36.5 -32l24 -24l-113 -84q-35 35 -77 46.5t-69 5.5q-33 -8 -61.5 -41.5t-28.5 -77.5v-346h250z" />
    <glyph glyph-name="fl" unicode="&#xfb02;" horiz-adv-x="880" 
d="M676 1239h149v-1239h-149v1239zM563 848v-125h-250v-963h-155v963h-140v125h140v344v8q0 107 71.5 174t182.5 72q33 1 61 -1.5t51.5 -11t39.5 -15t33.5 -20.5t24.5 -19.5t21.5 -21t15.5 -16.5l-114 -86q-33 38 -73.5 50t-68.5 4q-32 -7 -61 -40.5t-29 -76.5v-344h250z
" />
  </font>
</defs>
</svg>
