<?xml version="1.0" standalone="no"?>
<!DOCTYPE svg PUBLIC "-//W3C//DTD SVG 1.1//EN" "http://www.w3.org/Graphics/SVG/1.1/DTD/svg11.dtd" >
<svg xmlns="http://www.w3.org/2000/svg" xmlns:xlink="http://www.w3.org/1999/xlink" version="1.1">
<metadata></metadata>
<defs>
<font id="sansitaregular" horiz-adv-x="1107" >
<font-face units-per-em="2048" ascent="1638" descent="-410" />
<missing-glyph horiz-adv-x="358" />
<glyph unicode="&#xfb01;" horiz-adv-x="1116" d="M10 952v92h146l6 111q8 168 124.5 244t311.5 76q158 0 279.5 -44.5t121.5 -154.5q0 -59 -49 -94t-114 -35q-63 0 -105 29q18 49 19 90q0 63 -46.5 90.5t-115.5 27.5q-111 0 -160 -56t-49 -173v-111h594v-876q0 -100 63 -135q-16 -31 -53 -47.5t-78 -16.5q-78 0 -117.5 45 t-39.5 127v811h-367v-952l-225 -25v977h-146z" />
<glyph unicode="&#xfb02;" horiz-adv-x="1124" d="M10 952v92h146l6 111q20 319 434 320q143 0 242 -31l135 14v-1290q0 -100 63 -135q-16 -31 -53 -47.5t-78 -16.5q-78 0 -117.5 45t-39.5 127v1051q0 100 -34 146t-126 46q-125 0 -167 -60t-42 -169v-111h223v-92h-221v-952l-225 -25v977h-146z" />
<glyph horiz-adv-x="0" />
<glyph unicode="&#xd;" horiz-adv-x="358" />
<glyph horiz-adv-x="0" />
<glyph horiz-adv-x="0" />
<glyph unicode=" "  horiz-adv-x="358" />
<glyph unicode="&#x09;" horiz-adv-x="358" />
<glyph unicode="&#xa0;" horiz-adv-x="358" />
<glyph unicode="!" horiz-adv-x="501" d="M92 86q0 63 44 97t112 34q67 0 108 -32.5t41 -94.5q0 -63 -44 -97t-111 -34q-68 0 -109 33t-41 94zM133 1350q23 20 56.5 31.5t66.5 11.5q68 0 98.5 -34t30.5 -104q0 -82 -12 -233l-49 -594q-25 -18 -68 -18q-57 0 -75.5 30.5t-22.5 100.5z" />
<glyph unicode="&#x22;" horiz-adv-x="786" d="M94 1442q45 12 88 12q90 0 126 -42t36 -136q0 -68 -26.5 -150t-55.5 -120h-139q0 276 -29 436zM442 1442q45 12 88 12q90 0 127 -42t37 -136q0 -68 -26.5 -148.5t-57.5 -121.5h-139q0 276 -29 436z" />
<glyph unicode="#" d="M-4 436q0 47 26.5 75t73.5 28h150v292h-232q-18 41 -18 72q0 47 26.5 75t73.5 28h150v245q0 53 29.5 80t82.5 27q47 0 80 -21v-331h232v245q0 53 30.5 80t83.5 27q45 -1 78 -21v-331h230q18 -41 18 -72q0 -47 -25.5 -75t-72.5 -28h-150v-292h230q18 -41 18 -72 q0 -47 -25.5 -74.5t-72.5 -27.5h-150v-259q0 -53 -29.5 -79.5t-82.5 -26.5q-47 0 -80 20v345h-232v-259q0 -53 -30.5 -79.5t-83.5 -26.5q-45 0 -78 20v345h-232q-18 41 -18 71zM438 539h232v292h-232v-292z" />
<glyph unicode="$" d="M123 254q0 74 43 120t115 46t106 -33q-16 -45 -16 -102q0 -195 186 -195q90 0 147.5 50t57.5 136q0 63 -34 114.5t-84 89.5t-138 91q-106 66 -173 117t-114 130t-47 188q0 156 94 236.5t226 103.5v81q0 57 21.5 88t72.5 31q47 0 82 -18v-180q127 -14 216 -80t89 -201 q0 -74 -43 -120t-117 -46q-72 0 -106 33q16 45 16 102q0 180 -160 181q-78 0 -122 -38t-44 -112t37 -129t90.5 -96t145.5 -99q102 -61 165.5 -111t107.5 -123t44 -171q0 -176 -105.5 -264t-252.5 -111v-86q0 -117 -97 -117q-51 0 -79 19v180q-133 16 -231.5 84t-98.5 211z " />
<glyph unicode="%" horiz-adv-x="1890" d="M90 977q0 190 81 296.5t255 106.5q332 0 332 -391q0 -199 -78 -307.5t-254 -108.5q-336 0 -336 404zM289 981q0 -141 24.5 -223t112.5 -82q86 0 109.5 83t23.5 222q0 131 -25.5 216t-107.5 85q-84 0 -110.5 -85t-26.5 -216zM442 14l779 1311q23 41 45 61.5t57 20.5 q29 0 57.5 -21.5t49.5 -52.5l-777 -1310q-25 -41 -47 -61.5t-57 -20.5q-29 0 -57.5 21.5t-49.5 51.5zM1133 365q0 190 80.5 296.5t254.5 106.5q332 0 332 -391q0 -199 -77.5 -307.5t-254.5 -108.5q-336 0 -335 404zM1331 369q0 -141 23.5 -223.5t113.5 -82.5q86 0 110 83 t24 223q0 131 -26 216t-108 85q-84 0 -110.5 -85t-26.5 -216z" />
<glyph unicode="&#x26;" horiz-adv-x="1394" d="M82 377q0 238 237 342q-94 182 -94 325q0 170 117 259.5t307 89.5q375 0 375 -258q0 -74 -43 -120t-115 -46t-106 32q16 45 16 103q0 145 -145 145q-84 0 -129 -49t-45 -147q0 -113 67.5 -250t176 -270.5t229.5 -233.5q29 86 28 205q0 135 -88 229q25 14 62 23.5t67 9.5 q106 0 152.5 -63.5t46.5 -176.5q0 -82 -31.5 -167t-91.5 -160q104 -47 176 -47q70 0 115 22q29 -29 29 -78q0 -70 -50.5 -103.5t-132.5 -33.5q-61 0 -136 25.5t-152 72.5q-152 -102 -332 -102q-227 0 -368.5 107.5t-141.5 314.5zM334 414q0 -144 84 -227t227 -83 q90 0 158 35q-111 88 -219.5 207t-190.5 244q-27 -25 -43 -71t-16 -105z" />
<glyph unicode="'" horiz-adv-x="438" d="M94 1442q45 12 88 12q90 0 126 -42t36 -136q0 -68 -26.5 -150t-55.5 -120h-139q0 276 -29 436z" />
<glyph unicode="(" horiz-adv-x="768" d="M223 614q0 262 79 499t209 381t271 144q70 0 97 -43q-197 -143 -299.5 -399t-102.5 -582t102.5 -581.5t299.5 -399.5q-27 -43 -97 -43q-141 0 -271 144.5t-209 381t-79 498.5z" />
<glyph unicode=")" horiz-adv-x="765" d="M-111 -365q197 143 300.5 399.5t103.5 579.5q0 324 -102.5 581t-301.5 400q37 43 111 43q150 0 275.5 -142t197.5 -378.5t72 -503.5q0 -266 -72 -501.5t-197.5 -378t-275.5 -142.5q-74 0 -111 43z" />
<glyph unicode="*" horiz-adv-x="874" d="M39 1083q0 23 6 43q23 68 102 68q41 0 113 -23q59 -20 113 -49l-37 277q41 29 88 28q63 0 85.5 -53t22.5 -137q0 -49 -10 -115l246 117q39 -27 55 -74q6 -18 6 -32q0 -82 -153 -132q-49 -14 -94 -22l186 -197q-14 -45 -55 -75q-27 -18 -54 -19q-66 0 -145 111 q-35 43 -76 131l-147 -273q-49 0 -88 29q-41 29 -41 74q0 59 65 143q31 43 72 84l-254 47q-6 25 -6 49z" />
<glyph unicode="+" d="M129 477q0 47 26.5 75t73.5 28h217v270q0 53 31 79.5t84 26.5q45 0 78 -20v-356h319q19 -41 19 -72q0 -47 -26.5 -74.5t-73.5 -27.5h-238v-287q0 -53 -29.5 -80t-83.5 -27q-47 0 -80 21v373h-299q-18 41 -18 71z" />
<glyph unicode="," horiz-adv-x="481" d="M86 -233q76 113 76 249q0 45 -10.5 81t-32.5 77q47 27 114 27q80 0 121 -46t41 -130q0 -66 -30.5 -129.5t-84 -103.5t-116.5 -40q-43 0 -78 15z" />
<glyph unicode="-" horiz-adv-x="841" d="M98 475q0 94 117 100l506 17q10 -16 16 -40t6 -42q0 -49 -30.5 -72.5t-87.5 -27.5l-504 -17q-23 31 -23 82z" />
<glyph unicode="." horiz-adv-x="493" d="M92 86q0 63 44 97t112 34q67 0 108 -32.5t41 -94.5q0 -63 -44 -97t-111 -34q-68 0 -109 33t-41 94z" />
<glyph unicode="/" horiz-adv-x="671" d="M74 -317q0 20 6 63l317 1880q25 8 76 8q125 0 125 -92q0 -20 -6 -63l-318 -1880q-25 -8 -75 -9q-125 0 -125 93z" />
<glyph unicode="0" d="M76 670q0 315 109.5 519t365.5 204q258 0 368.5 -193.5t110.5 -505.5q0 -317 -111.5 -528t-367.5 -211t-365.5 199.5t-109.5 515.5zM334 680q0 -270 42 -426t175 -156q135 0 178 156t43 426q0 252 -44 410.5t-177 158.5q-131 0 -174 -157.5t-43 -411.5z" />
<glyph unicode="1" d="M72 1069q225 88 606 315l65 -32v-1200h279v-152h-887v152h369v938q-160 -96 -220.5 -126t-101.5 -30q-111 0 -110 135z" />
<glyph unicode="2" d="M57 150q211 164 432 397q111 127 169.5 229.5t58.5 220.5q0 98 -67.5 152.5t-174.5 54.5q-231 0 -325 -264q-41 18 -57.5 55t-22.5 107q10 92 73.5 157.5t157.5 99.5t195 34q223 0 351 -100.5t128 -293.5q0 -113 -48 -215t-162 -225t-325 -299q-37 -31 -73 -67l637 2 l-15 -195h-917z" />
<glyph unicode="3" d="M59 225q0 82 52 107q92 -188 346 -189q145 0 222 61.5t77 184.5q0 121 -80 178.5t-219 57.5q-53 0 -103 -7v130q152 4 248 69.5t96 194.5q0 94 -68.5 142t-193.5 48q-104 0 -176 -51t-102 -152q-43 14 -61.5 44t-18.5 77q0 88 59.5 149.5t151.5 91.5t190 30 q211 0 337 -82t126 -248q0 -113 -62.5 -203t-168.5 -139q137 -27 220 -113t83 -217t-70 -229.5t-194.5 -151.5t-288.5 -53q-168 0 -285 66.5t-117 203.5z" />
<glyph unicode="4" d="M20 381q0 45 46 115l587 856h240v-906h182l-14 -151h-168v-295h-240v295h-557q-35 0 -55.5 23.5t-20.5 62.5zM227 446h426v619z" />
<glyph unicode="5" d="M55 225q0 82 51 107q96 -188 365 -189q129 0 200.5 70t71.5 197q0 133 -97 194.5t-265 61.5q-109 0 -260 -29l53 715h727l14 -207h-575l-25 -330q92 10 189 10q498 0 497 -415q0 -131 -67.5 -234.5t-187 -162t-267.5 -58.5q-184 0 -304 67.5t-120 202.5z" />
<glyph unicode="6" d="M76 629q0 201 65.5 376t196.5 281.5t317 106.5q111 0 198 -47.5t87 -135.5q0 -29 -13.5 -49t-39.5 -39q-82 84 -215 84q-168 0 -251 -124t-91 -326q33 78 117.5 121t187.5 43q182 0 280.5 -130.5t98.5 -328.5q0 -143 -56.5 -259t-161 -181.5t-243.5 -65.5 q-477 0 -477 674zM348 446q6 -143 53.5 -245.5t151.5 -102.5q106 0 154.5 104.5t48.5 243.5q0 123 -51.5 222.5t-151.5 99.5t-148.5 -91t-56.5 -231z" />
<glyph unicode="7" d="M74 1157l14 195h967l14 -150l-565 -1247l-271 45l601 1159z" />
<glyph unicode="8" d="M76 332q0 117 81 215t203 155q-113 82 -176 163t-63 186q0 166 123 254t311 88q186 0 304 -80t118 -242q0 -108 -71.5 -193t-186.5 -147q141 -82 227 -176t86 -221q0 -193 -131 -286t-348 -93q-211 0 -344 95t-133 282zM336 332q0 -109 56.5 -171.5t160.5 -62.5 q102 0 156.5 55.5t54.5 157.5q0 62 -39 115t-94.5 94t-157.5 105q-63 -55 -100 -133t-37 -160zM389 1071q0 -76 55.5 -136.5t157.5 -127.5q61 47 95 115.5t34 148.5t-49 129t-127 49t-122 -48t-44 -130z" />
<glyph unicode="9" d="M76 887q0 143 56 259t160.5 181.5t244.5 65.5q477 0 477 -674q0 -201 -65.5 -376t-196.5 -281.5t-318 -106.5q-111 0 -197.5 47t-86.5 135q0 29 13 49.5t40 38.5q82 -84 215 -84q172 0 253 123t89 328q-39 -80 -121 -122t-184 -42q-182 0 -280.5 130t-98.5 329zM334 901 q0 -127 48 -224t155 -97q111 0 157.5 91t46.5 230t-49 243.5t-155 104.5q-107 0 -155 -104.5t-48 -243.5z" />
<glyph unicode=":" horiz-adv-x="514" d="M104 0zM104 86q0 63 44 97t112 34q67 0 108 -32.5t41 -94.5q0 -63 -44 -97t-111 -34q-68 0 -109 33t-41 94zM104 952q0 63 44 97t112 34q67 0 108 -32.5t41 -94.5q0 -63 -44 -97t-111 -34q-68 0 -109 33t-41 94z" />
<glyph unicode=";" horiz-adv-x="526" d="M111 0zM111 -233q76 113 76 249q0 45 -10.5 81t-32.5 77q47 27 114 27q80 0 121 -46t41 -130q0 -66 -30.5 -129.5t-84 -103.5t-116.5 -40q-43 0 -78 15zM117 952q0 63 44 97t112 34q67 0 108 -32.5t41 -94.5q0 -63 -44 -97t-111 -34q-68 0 -109 33t-41 94z" />
<glyph unicode="&#x3c;" d="M176 563l488 371q37 27 62.5 40t53.5 13q51 0 82 -28.5t31 -79.5l-416 -316l354 -264q27 -23 44.5 -53.5t17.5 -61.5q0 -49 -35 -73.5t-88 -24.5z" />
<glyph unicode="=" d="M129 283q0 47 26.5 74.5t73.5 27.5h729q18 -41 19 -72q0 -47 -26.5 -74.5t-73.5 -27.5h-730q-18 41 -18 72zM129 612q0 47 26.5 75t73.5 28h729q18 -41 19 -72q0 -47 -26.5 -74.5t-73.5 -27.5h-730q-18 40 -18 71z" />
<glyph unicode="&#x3e;" d="M215 195l416 315l-355 264q-27 23 -44 53.5t-17 61.5q0 49 35 73.5t88 24.5l594 -477l-488 -371q-43 -29 -65.5 -41t-50.5 -12q-51 0 -82 28.5t-31 80.5z" />
<glyph unicode="?" horiz-adv-x="847" d="M4 1159q0 129 123 181.5t283 52.5q180 0 290.5 -68t110.5 -219q0 -80 -31.5 -148.5t-76 -121t-117.5 -123.5q-92 -90 -135 -148.5t-43 -130.5q-8 -8 -32 -13t-44 -5q-49 0 -72.5 24.5t-23.5 73.5q0 51 32.5 100.5t106.5 135.5q92 104 141 184t49 172q0 74 -40 119 t-122 45q-72 0 -114.5 -35t-42.5 -107q0 -37 18 -100q-31 -23 -90 -22q-78 0 -124 38.5t-46 114.5zM176 86q0 63 44 97t112 34q67 0 108 -32.5t41 -94.5q0 -63 -44 -97t-111 -34q-68 0 -109 33t-41 94z" />
<glyph unicode="@" horiz-adv-x="1699" d="M90 508q0 211 92 375t264 256t404 92q221 0 392 -73t269.5 -218t98.5 -354q0 -131 -47 -235.5t-138.5 -165t-218.5 -60.5q-70 0 -130 23.5t-91 74.5q-55 -98 -205 -98q-104 0 -173.5 60.5t-69.5 158.5q0 238 413 238v112q0 72 -17.5 108t-74.5 36q-96 0 -96 -97 q0 -35 12 -69q-23 -16 -74 -17q-55 0 -92 28t-37 79q0 80 89.5 125t213.5 45q145 0 205 -62.5t60 -212.5v-348q0 -45 19.5 -66.5t68.5 -21.5q106 0 149 84t43 230q0 279 -145.5 425t-423.5 146q-176 0 -304 -75t-195.5 -210t-67.5 -313q0 -276 148.5 -425t424.5 -149 q109 0 195 17.5t141 68.5q35 -23 35 -69q0 -78 -109.5 -115t-259.5 -37q-225 0 -399 84t-271.5 244t-97.5 381zM737 350q0 -49 27 -79.5t74 -30.5q57 0 84.5 42t27.5 105v100q-213 0 -213 -137z" />
<glyph unicode="A" horiz-adv-x="1030" d="M0 0l375 1352h305l350 -1352h-242l-81 344h-402l-80 -344h-225zM342 496h330l-166 702z" />
<glyph unicode="B" horiz-adv-x="1105" d="M123 10v1333q242 16 385 17q209 0 326.5 -71.5t117.5 -248.5q0 -86 -51 -162.5t-131 -121.5q135 -27 208 -123t73 -238q0 -137 -76 -230t-202 -139t-273 -46q-172 0 -377 30zM362 135q75 -12 138 -12q143 0 220 65.5t77 200.5q0 154 -83 208t-259 54q-55 0 -93 -6v-510z M362 797q48 -6 105 -6q121 0 180.5 55t59.5 174q0 197 -213 197q-63 0 -132 -11v-409z" />
<glyph unicode="C" horiz-adv-x="1048" d="M70 670q0 328 126 525.5t406 197.5q180 0 287.5 -72t107.5 -227q0 -74 -43 -120t-116 -46q-72 0 -107 33q16 45 17 102q0 186 -164 186q-156 0 -206 -162.5t-50 -406.5t53 -390.5t223 -146.5q106 0 182 59.5t109 164.5q43 -14 61.5 -44t18.5 -77q0 -92 -56.5 -157.5 t-145.5 -99.5t-189 -34q-279 0 -396.5 192.5t-117.5 522.5z" />
<glyph unicode="D" horiz-adv-x="1155" d="M123 10v1333q242 17 426 17q536 0 536 -649q0 -731 -585 -731q-172 0 -377 30zM362 135q74 -12 138 -12q143 0 217 71.5t96.5 189.5t22.5 296q0 238 -63.5 387.5t-237.5 149.5q-76 0 -173 -11v-1071z" />
<glyph unicode="E" horiz-adv-x="897" d="M123 0v1352h686v-152h-447v-430h386v-152h-386v-466h476l-15 -152h-700z" />
<glyph unicode="F" horiz-adv-x="854" d="M123 0v1352h686v-152h-447v-459h386v-151h-386v-590h-239z" />
<glyph unicode="G" horiz-adv-x="1118" d="M70 670q0 332 132 527.5t423 195.5q182 0 294.5 -72t112.5 -227q0 -74 -43 -120t-117 -46q-68 0 -106 33q16 45 16 102q0 88 -45 137t-131 49q-164 0 -221 -162.5t-57 -406.5q0 -250 57 -407.5t231 -157.5q96 0 177 26l-9 480l224 28v-610q-74 -39 -188.5 -61.5 t-209.5 -22.5q-291 0 -415.5 189.5t-124.5 525.5z" />
<glyph unicode="H" horiz-adv-x="1183" d="M123 0v1352h239v-592h459v592h240v-1352h-240v608h-459v-608h-239z" />
<glyph unicode="I" horiz-adv-x="485" d="M123 0v1352h239v-1352h-239z" />
<glyph unicode="J" horiz-adv-x="485" d="M-78 -231q119 0 160 96t41 256v1231h239v-1157q0 -232 -60 -377.5t-228 -145.5q-59 0 -105.5 24.5t-46.5 72.5z" />
<glyph unicode="K" horiz-adv-x="1013" d="M123 0v1352h239v-1352h-239zM406 684l374 668h248l-393 -629l422 -723h-262z" />
<glyph unicode="L" horiz-adv-x="819" d="M123 0v1352h239v-1200h447l-14 -152h-672z" />
<glyph unicode="M" horiz-adv-x="1492" d="M123 0v1352h360l273 -973l270 973h344v-1352h-240v1128l-327 -1128h-160l-328 1133v-1133h-192z" />
<glyph unicode="N" horiz-adv-x="1163" d="M123 0v1352h182l543 -926v926h192v-1352h-182l-543 926v-926h-192z" />
<glyph unicode="O" horiz-adv-x="1189" d="M70 670q0 328 123.5 525.5t402.5 197.5q524 -1 524 -699q0 -739 -524 -739q-287 0 -406.5 190.5t-119.5 524.5zM328 680q0 -256 51 -419t217 -163q164 0 215 163t51 419q0 244 -53 406.5t-213 162.5q-162 0 -215 -162.5t-53 -406.5z" />
<glyph unicode="P" horiz-adv-x="1013" d="M123 0v1343q242 16 385 17q233 0 359 -91t126 -298q0 -178 -104.5 -288t-280.5 -110q-66 0 -115 21.5t-49 73.5q156 0 230 71.5t74 223.5q0 129 -62.5 191.5t-191.5 62.5q-63 0 -132 -11v-1206h-239z" />
<glyph unicode="Q" horiz-adv-x="1189" d="M70 670q0 328 123.5 525.5t402.5 197.5q524 -1 524 -699q0 -739 -524 -739q209 -47 346 -47q51 0 90 9t72 36q47 -66 47 -119q0 -66 -44 -96.5t-118 -30.5q-68 0 -136.5 17.5t-158.5 48.5q-82 27 -138 41t-107 14q-76 0 -113 -16q-14 14 -22.5 33.5t-8.5 37.5 q0 90 133 90q-199 49 -283.5 230.5t-84.5 466.5zM328 680q0 -256 51 -419t217 -163q164 0 215 163t51 419q0 244 -53 406.5t-213 162.5q-162 0 -215 -162.5t-53 -406.5z" />
<glyph unicode="R" horiz-adv-x="1087" d="M123 0v1343q242 16 385 17q485 0 485 -379q0 -139 -70.5 -237.5t-193.5 -133.5l356 -610h-262l-364 647q-12 23 -13 41q154 0 228 68.5t74 216.5q0 123 -62.5 183.5t-191.5 60.5q-63 0 -132 -11v-1206h-239z" />
<glyph unicode="S" horiz-adv-x="966" d="M41 254q0 74 43 120t115 46t106 -33q-14 -41 -14 -102q0 -195 184 -195q90 0 147.5 50t57.5 136q0 68 -35 123.5t-87 98.5t-142 104q-106 72 -171 128t-110 135t-45 182q0 164 116 255t294 91q176 0 283.5 -68t107.5 -217q0 -74 -43 -120t-117 -46q-72 0 -106 33 q16 45 16 102q0 180 -160 180q-78 0 -122 -37.5t-44 -111.5q0 -68 35 -123t87 -98t143 -105q106 -72 170.5 -128t109.5 -135t45 -181q0 -182 -125 -282.5t-323 -100.5q-180 0 -298 72.5t-118 226.5z" />
<glyph unicode="T" horiz-adv-x="821" d="M-31 1200v152h891l-14 -152h-316v-1200h-239v1200h-322z" />
<glyph unicode="U" horiz-adv-x="1120" d="M113 494v858h239v-836q0 -135 13.5 -220t62.5 -141.5t150 -56.5q100 0 149 60.5t61.5 150.5t12.5 230v813h207v-791q0 -207 -36 -337t-132.5 -199.5t-278.5 -69.5q-176 0 -273.5 58.5t-136 175t-38.5 305.5z" />
<glyph unicode="V" horiz-adv-x="980" d="M-10 1352h241l269 -1198l266 1198h225l-360 -1352h-307z" />
<glyph unicode="W" horiz-adv-x="1628" d="M-10 1352h241l240 -1198l238 1198h227l240 -1198l237 1198h225l-331 -1352h-308l-198 971l-199 -971h-307z" />
<glyph unicode="X" horiz-adv-x="1056" d="M2 0l406 690l-377 662h262l260 -471l242 471h245l-385 -656l400 -696h-262l-283 508l-262 -508h-246z" />
<glyph unicode="Y" horiz-adv-x="1032" d="M2 1352h262l266 -555l252 555h246l-393 -727v-625h-240v600z" />
<glyph unicode="Z" horiz-adv-x="860" d="M8 150l570 1050h-533l14 152h760l15 -150l-570 -1050h588l-14 -152h-815z" />
<glyph unicode="[" horiz-adv-x="616" d="M164 -389v2007h522q12 -25 12 -62q0 -74 -90 -73h-205v-1737h205q90 0 90 -74q0 -37 -12 -61h-522z" />
<glyph unicode="\" horiz-adv-x="671" d="M74 1542q0 92 125 92q50 0 75 -8l318 -1880q6 -43 6 -63q0 -92 -125 -93q-51 0 -76 9l-317 1880q-6 43 -6 63z" />
<glyph unicode="]" horiz-adv-x="616" d="M-82 -328q0 74 90 74h205v1737h-205q-90 0 -90 73q0 37 12 62h525v-2007h-525q-12 25 -12 61z" />
<glyph unicode="^" horiz-adv-x="978" d="M14 705q133 76 233.5 248.5t158.5 398.5h208q54 -238 139 -394.5t212 -252.5q-33 -100 -127 -101q-100 0 -193.5 120t-163.5 376q-94 -262 -176 -379t-166 -117q-92 0 -125 101z" />
<glyph unicode="_" horiz-adv-x="1040" d="M14 -193q0 53 31 76t90 23h875q16 -31 16 -82q0 -98 -119 -98h-874q-19 28 -19 81z" />
<glyph unicode="`" horiz-adv-x="489" d="M20 1438q0 41 28 73.5t69 42.5l352 -311l-51 -72l-225 101q-74 33 -123.5 71.5t-49.5 94.5z" />
<glyph unicode="a" horiz-adv-x="1024" d="M76 264q0 332 592 332v178q0 102 -31 152.5t-117 50.5q-72 0 -119 -38t-47 -105q0 -43 17 -93q-28 -22 -78 -22h-4q-74 0 -117 37t-43 106q0 98 110.5 160.5t295.5 62.5q135 0 212.5 -39.5t111.5 -122.5t34 -223v-532q0 -100 63 -135q-16 -31 -47.5 -47.5t-72.5 -16.5 q-59 0 -98.5 34t-47.5 91q-39 -71 -113.5 -105t-168.5 -34q-141 0 -236.5 86t-95.5 223zM322 272q0 -82 44 -131t121 -49q91 0 136 68.5t45 171.5v162q-346 0 -346 -222z" />
<glyph unicode="b" horiz-adv-x="1073" d="M143 51v1383l226 24v-231q0 -223 -21 -328q39 86 117 136t172 50q195 0 283 -155.5t88 -392.5q0 -262 -113 -422t-346 -160q-100 0 -212 25.5t-194 70.5zM369 139q90 -61 190 -61q125 0 164 127t39 321q0 174 -38 288t-155 114q-119 0 -159.5 -111.5t-40.5 -284.5v-393z " />
<glyph unicode="c" horiz-adv-x="913" d="M66 496q0 264 117.5 426.5t355.5 162.5q139 0 229 -57t90 -176q0 -70 -43 -106.5t-117 -36.5q-23 0 -46 6t-38 16q16 49 17 92q0 141 -123 142q-205 -1 -205 -447q0 -182 46 -293.5t179 -111.5q90 0 155 48t87 136q35 -16 50.5 -37.5t15.5 -58.5q0 -74 -48.5 -130.5 t-124 -86t-155.5 -29.5q-225 0 -333.5 146.5t-108.5 394.5z" />
<glyph unicode="d" horiz-adv-x="1079" d="M66 524q0 258 111.5 409.5t346.5 151.5q98 0 178 -26v375l226 24v-1290q0 -100 63 -135q-16 -31 -48 -47.5t-73 -16.5q-59 0 -98 34t-47 91q-33 -68 -105.5 -103.5t-156.5 -35.5q-209 0 -303 159.5t-94 409.5zM311 535q0 -182 45 -312.5t166 -130.5q90 0 135 68.5 t45 171.5v567q-94 64 -188 64q-125 0 -164 -119t-39 -309z" />
<glyph unicode="e" horiz-adv-x="937" d="M66 496q0 264 117.5 426.5t357.5 162.5q152 0 244 -78.5t92 -222.5q0 -178 -124 -249.5t-337 -71.5q-59 0 -113 4q6 -162 54.5 -258t170.5 -96q90 0 159 46t108 130q47 -22 47 -88q0 -74 -49.5 -130.5t-127 -86t-157.5 -29.5q-225 0 -333.5 146.5t-108.5 394.5zM303 569 q61 -4 90 -4q258 0 258 207q0 84 -35.5 140.5t-107.5 56.5q-111 0 -156 -116t-49 -284z" />
<glyph unicode="f" horiz-adv-x="641" d="M10 952v92h146l6 111q18 319 364 320q129 0 222.5 -40t93.5 -135q0 -70 -43 -106.5t-117 -36.5q-53 0 -82 23q16 49 16 92q0 53 -25.5 82.5t-76.5 29.5q-80 0 -107.5 -60t-27.5 -169v-111h223v-92h-221v-952l-225 -25v977h-146z" />
<glyph unicode="g" horiz-adv-x="1062" d="M74 596q0 231 112.5 360t333.5 129q102 0 207 -38l201 22v-862q0 -199 -36 -332t-133 -209t-272 -76q-145 0 -248.5 57.5t-103.5 176.5q0 70 43 106.5t117 36.5q53 0 82 -22q-14 -43 -15 -92q0 -141 144 -142q94 0 139 64.5t55.5 154.5t10.5 228v55q-39 -57 -106.5 -86 t-143.5 -29q-201 0 -294 135.5t-93 362.5zM315 606q0 -166 42 -268t163 -102q92 0 137 67.5t45 171.5v422q-96 66 -190 66q-113 0 -155 -100.5t-42 -256.5z" />
<glyph unicode="h" horiz-adv-x="1089" d="M143 0v1434l226 24v-231q0 -223 -21 -328q43 92 121 139t182 47q172 0 239.5 -95t67.5 -290v-532q0 -100 64 -135q-16 -31 -53 -47.5t-78 -16.5q-80 0 -119 45t-39 127v531q0 129 -28.5 192.5t-126.5 63.5q-125 0 -167 -110.5t-42 -285.5v-532h-226z" />
<glyph unicode="i" horiz-adv-x="499" d="M94 1343q0 63 44 97.5t112 34.5q67 0 109 -33t42 -94q0 -63 -44 -97t-113 -34q-68 0 -109 32.5t-41 93.5zM131 141v903h225v-876q0 -100 64 -135q-16 -31 -53 -47.5t-80 -16.5q-78 0 -117 45t-39 127z" />
<glyph unicode="j" horiz-adv-x="505" d="M-59 -319q115 0 158.5 92t43.5 241v1030h228v-972q0 -482 -287 -482q-57 0 -100 22.5t-43 68.5zM102 1343q0 63 44 97.5t112 34.5t110 -33t42 -94q0 -63 -44 -97t-114 -34q-68 0 -109 32.5t-41 93.5z" />
<glyph unicode="k" horiz-adv-x="976" d="M143 0v1434l226 24v-1458h-226zM397 573l342 471h238l-354 -434l362 -610h-262z" />
<glyph unicode="l" horiz-adv-x="516" d="M139 141v1293l226 24v-1290q0 -100 63 -135q-16 -31 -54 -47.5t-79 -16.5q-78 0 -117 45t-39 127z" />
<glyph unicode="m" horiz-adv-x="1656" d="M135 0v1044l189 25l10 -184q39 98 120 149t189 51q121 0 188.5 -48t96.5 -142q80 190 291 190q172 0 239.5 -95t67.5 -290v-532q0 -100 63 -135q-16 -31 -53 -47.5t-78 -16.5q-80 0 -119 45t-39 127v531q0 129 -28.5 192.5t-126.5 63.5q-117 0 -156 -110.5t-39 -285.5 v-532h-225v672q0 129 -28.5 192.5t-127.5 63.5q-125 0 -167 -110.5t-42 -285.5v-532h-225z" />
<glyph unicode="n" horiz-adv-x="1081" d="M135 0v1044l189 25l10 -184q39 98 120 149t189 51q172 0 239.5 -95t67.5 -290v-532q0 -100 64 -135q-16 -31 -53 -47.5t-78 -16.5q-80 0 -119 45t-39 127v531q0 129 -28.5 192.5t-127.5 63.5q-125 0 -167 -110.5t-42 -285.5v-532h-225z" />
<glyph unicode="o" horiz-adv-x="1030" d="M66 516q0 254 110.5 411.5t337.5 157.5q229 0 340 -148.5t111 -399.5q0 -268 -106.5 -425t-344.5 -157q-233 0 -340.5 149.5t-107.5 411.5zM311 526q0 -199 38 -323.5t165 -124.5t166 125t39 323q0 182 -42 309.5t-163 127.5q-203 0 -203 -437z" />
<glyph unicode="p" horiz-adv-x="1071" d="M143 -395v1439l189 25l10 -184q86 200 305 200h2q193 0 275 -154.5t82 -393.5q0 -262 -113 -422t-346 -160q-98 0 -178 27v-353zM369 141q94 -63 188 -63q125 0 164 127t39 321q0 182 -35 292t-156 110q-106 0 -153 -85t-47 -214v-488z" />
<glyph unicode="q" horiz-adv-x="1073" d="M66 524q0 258 111.5 409.5t344.5 151.5q102 0 207 -38l201 22v-1438l-225 -24v207q0 164 22 280q-33 -68 -105.5 -103.5t-156.5 -35.5q-209 0 -304 159.5t-95 409.5zM311 535q0 -180 45 -311.5t168 -131.5q90 0 135.5 68.5t45.5 171.5v565q-97 66 -191 66 q-125 0 -164 -119t-39 -309z" />
<glyph unicode="r" horiz-adv-x="808" d="M135 0v1044l189 25l10 -184q29 92 100.5 146t165.5 54q102 0 162.5 -59t60.5 -162q0 -166 -159 -166q-53 0 -82 23q14 53 14 92q0 115 -96 115q-88 0 -114 -118t-26 -282v-528h-225z" />
<glyph unicode="s" horiz-adv-x="909" d="M82 176q0 70 43 106.5t117 36.5q53 0 82 -22q-16 -49 -17 -92q0 -66 41 -104t111 -38q76 0 115.5 40t39.5 118q0 80 -54 130t-167 112q-90 51 -144 90t-93 99.5t-39 146.5q0 137 110.5 211.5t268.5 74.5q145 0 238 -52t93 -171q0 -70 -44 -106.5t-117 -36.5q-53 0 -82 22 q16 49 16 93q0 68 -34 105.5t-99 37.5q-61 0 -98 -32t-37 -91q0 -80 54 -130t167 -112q90 -49 144.5 -88t93 -99t38.5 -146q0 -156 -111.5 -240t-283.5 -84q-150 0 -251 51t-101 170z" />
<glyph unicode="t" horiz-adv-x="583" d="M8 1014q92 37 175 98.5t141 134.5h63v-203h188v-92h-192v-745q0 -61 22.5 -92t71.5 -39q-10 -47 -54 -77t-101 -30q-166 0 -166 189v794h-146z" />
<glyph unicode="u" horiz-adv-x="1089" d="M131 483v561h225v-550q0 -125 9.5 -206t50.5 -138.5t125 -57.5q90 0 135 68.5t45 171.5v712h225v-876q0 -100 64 -135q-16 -31 -48 -47.5t-73 -16.5q-59 0 -98 34t-48 91q-33 -68 -105.5 -103.5t-156.5 -35.5q-147 0 -224 64.5t-101.5 176t-24.5 287.5z" />
<glyph unicode="v" horiz-adv-x="864" d="M0 1044h233l209 -907l209 907h215l-305 -1044h-278z" />
<glyph unicode="w" horiz-adv-x="1415" d="M0 1044h233l187 -907l186 907h223l187 -907l186 907h215l-282 -1044h-279l-162 735l-155 -735h-279z" />
<glyph unicode="x" horiz-adv-x="913" d="M10 0l342 518l-317 526h262l188 -339l172 339h238l-322 -493l332 -551h-262l-205 367l-192 -367h-236z" />
<glyph unicode="y" horiz-adv-x="866" d="M16 1044h234l194 -808l209 808h213l-465 -1439l-225 26l203 467h-103z" />
<glyph unicode="z" horiz-adv-x="778" d="M20 125l474 780l-455 -26l16 165h674l14 -120l-479 -787l494 17l-15 -154h-708z" />
<glyph unicode="{" horiz-adv-x="671" d="M63 573l5 115q147 0 147 236v446q0 100 21.5 157.5t75 84t153.5 26.5q78 0 166 -14v-92h-49q-78 0 -102.5 -53.5t-24.5 -171.5v-422q0 -111 -39 -173.5t-127 -74.5q74 -6 107.5 -41t41.5 -82t8 -125v-428q0 -111 24 -186.5t99 -75.5h49l-6 -94q-98 -14 -159 -15 q-104 0 -156.5 37t-68 99.5t-15.5 162.5v449q0 115 -27.5 175t-122.5 60z" />
<glyph unicode="|" horiz-adv-x="520" d="M154 -410h213v2048h-213v-2048z" />
<glyph unicode="}" horiz-adv-x="778" d="M41 1532h49q78 0 102.5 -53.5t24.5 -171.5v-422q0 -111 39 -173.5t125 -74.5q-74 -6 -107.5 -41t-41 -81t-7.5 -126v-428q0 -111 -23.5 -186.5t-99.5 -75.5h-49l6 -94q98 -14 160 -15q104 0 156.5 37t67 98.5t14.5 163.5v449q0 115 27.5 175t123.5 60l-4 115 q-76 0 -112.5 61.5t-36.5 174.5v446q0 100 -20.5 157.5t-74 84t-153.5 26.5q-78 0 -166 -14v-92z" />
<glyph unicode="~" d="M164 479q0 -27 13 -55.5t36 -50.5q12 20 51 34.5t82 14.5q33 0 85 -10.5t106 -22.5q168 -41 241 -41q74 0 119 29t45 80q0 27 -13.5 55.5t-35.5 50.5q-12 -20 -51 -34.5t-82 -14.5q-33 0 -86 10.5t-107 22.5q-164 41 -239 41q-74 0 -119 -29t-45 -80z" />
<glyph unicode="&#xa1;" horiz-adv-x="501" d="M98 954q0 63 44 97t112 34t108.5 -32.5t40.5 -94.5q0 -63 -44 -97t-111 -34q-68 0 -109 33t-41 94zM117 -211q0 82 12 234l49 593q25 18 68 19q57 0 75.5 -31t22.5 -100l25 -809q-23 -20 -56.5 -31.5t-66.5 -11.5q-68 0 -98.5 33.5t-30.5 103.5z" />
<glyph unicode="&#xa2;" d="M152 629q0 248 100 387t268 182v90q0 57 21.5 88t72.5 31q45 0 82 -18v-170q117 -2 213.5 -54.5t96.5 -179.5q0 -70 -43 -106.5t-119 -36.5q-53 0 -82 22q16 49 16 92q0 141 -125 142q-264 0 -264 -447q0 -182 58.5 -293.5t228.5 -111.5q90 0 154.5 48t87.5 136 q34 -16 49.5 -37.5t15.5 -58.5q0 -72 -45 -126t-110.5 -84t-129.5 -36v-72q0 -117 -96 -116q-51 0 -80 18v182q-168 37 -269 165t-101 364z" />
<glyph unicode="&#xa3;" d="M106 752q0 70 87 69h63v211q0 162 97.5 241t271.5 79q176 0 276 -50.5t100 -193.5q0 -74 -43 -120t-114 -46q-72 0 -107 33q16 45 17 102q0 92 -31 138.5t-111 46.5t-107.5 -60.5t-27.5 -169.5v-211h332q12 -25 12 -59q0 -70 -86 -70h-258v-262q0 -180 -115 -256h584 l-14 -174h-799l-14 129q78 29 107.5 83t29.5 148v332h-137q-12 25 -13 60z" />
<glyph unicode="&#xa4;" d="M47 1040l109 129l211 -192q82 49 186 49t186 -49l209 192l109 -129l-207 -178q43 -76 43 -182q0 -110 -43 -184l174 -168l-137 -127l-164 178q-76 -35 -172 -35t-170 35l-162 -178l-137 127l172 170q-41 78 -41 182q0 100 43 182zM362 684q0 -88 49.5 -145.5t139.5 -57.5 q92 0 142 57.5t50 145.5q0 90 -52 148.5t-138 58.5t-138.5 -58.5t-52.5 -148.5z" />
<glyph unicode="&#xa5;" d="M39 1352h262l266 -555l252 555h248l-387 -713h250q12 -25 12 -59q0 -70 -86 -70h-184v-145h258q12 -25 12 -60q0 -70 -86 -69h-184v-236h-240v236h-262q-12 25 -12 59q0 70 86 70h188v145h-262q-12 25 -12 59q0 70 86 70h166z" />
<glyph unicode="&#xa6;" horiz-adv-x="522" d="M154 0h215v557h-215v-557zM154 795h215v557h-215v-557z" />
<glyph unicode="&#xa7;" horiz-adv-x="1013" d="M98 518q0 100 58.5 175t171.5 145q-70 57 -109 123.5t-39 154.5q0 84 52.5 147.5t138.5 96.5t186 33q133 0 234.5 -55.5t101.5 -168.5q0 -70 -42 -104.5t-110 -34.5q-53 0 -84 23q8 35 9 82q0 72 -33 112.5t-105 40.5q-61 0 -98 -31.5t-37 -91.5q0 -78 58.5 -138 t177.5 -142q94 -68 151.5 -116t97.5 -113.5t40 -147.5q0 -100 -61.5 -177t-172.5 -145q72 -57 111 -120.5t39 -149.5q0 -133 -109 -208t-270 -75q-135 0 -233.5 54.5t-98.5 167.5q0 72 41 106.5t108 34.5q55 0 86 -23q-10 -45 -10 -79q0 -74 38 -115t108 -41q59 0 93 31.5 t34 89.5q0 82 -58.5 142t-179.5 142q-94 68 -149.5 114t-95.5 112.5t-40 148.5zM309 584q0 -74 38 -130.5t84 -91t157 -108.5q59 43 88 85t29 103q0 94 -60.5 158t-183.5 143l-37 25q-57 -41 -86 -83t-29 -101z" />
<glyph unicode="&#xa8;" horiz-adv-x="755" d="M20 1217zM20 1343q0 63 44.5 97.5t111.5 34.5q68 0 110 -33t42 -94q0 -63 -44 -97t-114 -34q-68 0 -109 32.5t-41 93.5zM428 1343q0 63 44.5 97.5t111.5 34.5q68 0 110 -33t42 -94q0 -63 -44 -97t-114 -34q-68 0 -109 32.5t-41 93.5z" />
<glyph unicode="&#xa9;" horiz-adv-x="1636" d="M90 539q0 207 94.5 371.5t261 257t373.5 92.5t374 -92.5t261 -257.5t94 -371q0 -209 -93 -368t-258 -246t-378 -87t-378 87t-258 246t-93 368zM283 539q0 -266 139 -420t397 -154t397.5 153.5t139.5 420.5q0 174 -63.5 308t-184.5 210t-289 76t-288.5 -76t-184 -210 t-63.5 -308zM498 539q0 190 89 304.5t265 114.5q102 0 170 -43t68 -133q0 -49 -37 -76.5t-92 -27.5q-45 0 -72 16q12 31 12 66q0 49 -15.5 74.5t-56.5 25.5q-74 0 -101.5 -93t-27.5 -212q0 -125 32 -200.5t124 -75.5q61 0 107.5 30.5t62.5 87.5q25 -10 36 -25.5t11 -39.5 q0 -82 -71.5 -129t-167.5 -47q-168 0 -252 101t-84 282z" />
<glyph unicode="&#xaa;" horiz-adv-x="890" d="M98 793q0 238 412 237v113q0 72 -17.5 107.5t-74.5 35.5q-96 0 -96 -96q0 -35 12 -70q-23 -16 -74 -16q-55 0 -91 27.5t-36 78.5q0 80 89 125t212 45q146 0 206 -62.5t60 -211.5v-377q0 -72 45 -96q-27 -53 -98 -53q-43 0 -70.5 24.5t-31.5 67.5q-55 -98 -205 -99 q-104 0 -173 60.5t-69 159.5zM121 393q0 39 20.5 60.5t59.5 21.5h549q14 -32 14 -61q0 -39 -20.5 -60.5t-59.5 -21.5h-549q-14 33 -14 61zM297 799q0 -49 26.5 -80t73.5 -31q57 0 85 42t28 106v100q-213 0 -213 -137z" />
<glyph unicode="&#xab;" horiz-adv-x="1009" d="M78 649l246 393h192l-166 -393l166 -391h-194zM483 649l250 393h199l-176 -393l166 -391h-195z" />
<glyph unicode="&#xac;" d="M72 479q0 47 26.5 75t73.5 28h780v-559q-49 -23 -82 -23q-55 0 -85.5 28.5t-30.5 82.5v297h-664q-18 41 -18 71z" />
<glyph unicode="&#xad;" horiz-adv-x="841" d="M98 475q0 94 117 100l506 17q10 -16 16 -40t6 -42q0 -49 -30.5 -72.5t-87.5 -27.5l-504 -17q-23 31 -23 82z" />
<glyph unicode="&#xae;" horiz-adv-x="1636" d="M90 672q0 207 94.5 371.5t261 257t373.5 92.5t374 -92.5t261 -257t94 -371.5q0 -209 -93 -368t-258 -246t-378 -87t-378 87t-258 246t-93 368zM283 672q0 -266 139 -420t397 -154t397.5 154t139.5 420q0 174 -63.5 308t-184.5 210t-289 76t-288.5 -76t-184 -210 t-63.5 -308zM553 311v768q139 8 266 8q144 0 223.5 -48t79.5 -169q0 -80 -40 -135t-115 -76l184 -348h-201l-168 365q-6 10 -6 22q78 0 115 38t37 122q0 137 -131 137q-16 0 -58 -4v-680h-186z" />
<glyph unicode="&#xaf;" horiz-adv-x="604" d="M20 1327q0 45 28 69.5t77 24.5h442q17 -41 17 -78q0 -43 -30 -66.5t-89 -23.5h-430q-14 33 -15 74z" />
<glyph unicode="&#xb0;" horiz-adv-x="743" d="M29 1083q0 147 95 232.5t247 85.5q154 0 249 -85t95 -233q0 -145 -97.5 -235t-246.5 -90q-97 0 -174.5 41t-122.5 114.5t-45 169.5zM219 1083q0 -92 37 -151.5t115 -59.5q80 0 116.5 59.5t36.5 151.5q0 88 -37.5 145.5t-115.5 57.5q-76 0 -114 -57.5t-38 -145.5z" />
<glyph unicode="&#xb1;" d="M180 571q0 49 25.5 76t75.5 27h176v174q0 53 29.5 79.5t82.5 26.5q47 0 80 -20v-260h258q19 -41 19 -72q0 -49 -26 -75.5t-75 -26.5h-176v-152q0 -53 -29.5 -79.5t-82.5 -26.5q-47 0 -80 20v238h-258q-18 41 -19 71zM215 94q0 96 92 96h561q14 -39 15 -65q0 -96 -92 -96 h-562q-14 39 -14 65z" />
<glyph unicode="&#xb2;" horiz-adv-x="737" d="M102 690l205 217q57 63 90 117.5t33 116.5q0 109 -102 108q-61 0 -105.5 -34.5t-62.5 -96.5q-47 14 -47 82q0 88 72.5 133t174.5 45q123 0 190.5 -56t67.5 -173q0 -63 -23.5 -112.5t-74.5 -106t-172 -174.5q-16 -10 -27.5 -20.5t-21.5 -18.5h336l-8 -133h-516z" />
<glyph unicode="&#xb3;" horiz-adv-x="743" d="M102 715q0 63 33 78q51 -104 184 -105q59 0 96.5 32t37.5 89q0 121 -144 121q-39 0 -61 -4v96q78 0 126 35t48 104q0 43 -27.5 65.5t-75.5 22.5q-55 0 -93 -29.5t-56 -84.5q-45 16 -45 88q0 76 66.5 114.5t158.5 38.5q115 0 182.5 -44t67.5 -142q0 -66 -35 -117t-96 -78 q80 -16 126 -63t46 -123q0 -123 -91 -185.5t-231 -62.5q-92 0 -154.5 38t-62.5 116z" />
<glyph unicode="&#xb4;" horiz-adv-x="489" d="M20 1243l353 311q41 -10 68.5 -42.5t27.5 -73.5q0 -55 -49 -94t-125 -72l-223 -101z" />
<glyph unicode="&#xb5;" horiz-adv-x="1101" d="M143 0zM143 -393v1437l226 25v-575q0 -125 9 -206t50 -138.5t125 -57.5q90 0 135 68.5t45 171.5v712h225v-876q1 -100 64 -135q-16 -31 -48 -47.5t-73 -16.5q-59 0 -98 34t-47 91q-33 -68 -105.5 -103.5t-156.5 -35.5q-70 0 -125 16v-340z" />
<glyph unicode="&#xb6;" horiz-adv-x="1380" d="M98 948q0 229 140.5 326.5t400.5 97.5q127 0 227 -20v-1280q0 -225 -82 -353.5t-276 -128.5q-102 0 -171 41t-69 107q0 20 8.5 36.5t22.5 24.5q66 -57 168 -57q106 0 146 70.5t40 201.5v529q-78 -23 -155 -23q-193 0 -296.5 115t-103.5 313zM1026 -31v1383h434 q0 -82 -33.5 -120t-113.5 -38q-51 0 -86 10v-1204z" />
<glyph unicode="&#xb7;" horiz-adv-x="493" d="M92 530q0 63 44 97.5t112 34.5q67 0 108 -33t41 -94q0 -63 -44 -97.5t-111 -34.5q-68 0 -109 33t-41 94z" />
<glyph unicode="&#xb8;" horiz-adv-x="503" d="M20 -403q0 33 21 51q51 -57 143 -58q57 0 95 21.5t38 66.5q0 53 -45 74t-120 21q-47 0 -86 -6l96 256h96l-59 -156q18 2 57 2q104 0 165.5 -46t61.5 -138q0 -90 -79.5 -146.5t-188.5 -56.5q-76 0 -135.5 27.5t-59.5 87.5z" />
<glyph unicode="&#xb9;" horiz-adv-x="686" d="M76 1255q72 20 163 60.5t150 77.5l60 -19v-680h149v-110h-489v110h159v508q-20 -20 -52 -32.5t-56 -12.5q-84 0 -84 98z" />
<glyph unicode="&#xba;" horiz-adv-x="890" d="M104 977q0 190 81 296.5t255 106.5q332 0 332 -391q0 -199 -78 -307.5t-254 -108.5q-336 0 -336 404zM121 393q0 39 20.5 60.5t59.5 21.5h549q14 -33 14 -61q0 -39 -20.5 -60.5t-59.5 -21.5h-549q-14 32 -14 61zM303 981q0 -141 23.5 -223t113.5 -82q86 0 109.5 83 t23.5 222q0 131 -25.5 216t-107.5 85q-84 0 -110.5 -85t-26.5 -216z" />
<glyph unicode="&#xbb;" horiz-adv-x="1009" d="M78 1042h198l250 -393l-243 -391h-195l166 391zM494 258l165 391l-165 393h194l246 -393l-244 -391h-196z" />
<glyph unicode="&#xbc;" horiz-adv-x="1628" d="M37 1255q72 20 163 60.5t150 77.5l62 -19v-680h149v-110h-491v110h159v508q-20 -20 -52 -32.5t-56 -12.5q-84 0 -84 98zM514 -109q0 25 12 74l365 1505q25 4 51 5q102 0 102 -78q0 -25 -12 -74l-364 -1505q-25 -4 -52 -4q-102 0 -102 77zM956 225q0 23 23 64l301 506h201 v-512h108l-8 -111h-100v-172h-181v172h-299q-23 0 -34 14.5t-11 38.5zM1106 283h194v342z" />
<glyph unicode="&#xbd;" horiz-adv-x="1628" d="M76 1255q72 20 163 60.5t150 77.5l60 -19v-680h149v-110h-489v110h159v508q-20 -20 -52 -32.5t-56 -12.5q-84 0 -84 98zM553 -109q0 25 12 74l365 1505q25 4 51 5q102 0 102 -78q0 -25 -12 -74l-364 -1505q-25 -4 -52 -4q-102 0 -102 77zM1032 106l205 218 q57 63 90 117.5t33 115.5q0 109 -103 109q-61 0 -105 -35t-62 -96q-47 14 -48 81q0 88 73 133.5t175 45.5q123 0 190.5 -56.5t67.5 -173.5q0 -63 -23.5 -112.5t-75.5 -105.5t-173 -175l-47 -39h336l-9 -133h-516z" />
<glyph unicode="&#xbe;" horiz-adv-x="1628" d="M63 715q0 63 33 78q51 -104 185 -105q59 0 97 32t38 89q0 61 -39 91t-107 30q-39 0 -61 -4v96q78 0 126 35t48 104q0 43 -27.5 65.5t-74.5 22.5q-55 0 -93 -29.5t-57 -84.5q-45 16 -45 88q0 76 66.5 114.5t158.5 38.5q115 0 182.5 -44t67.5 -142q0 -66 -34.5 -117 t-96.5 -78q80 -16 126 -63t46 -123q0 -123 -91 -185.5t-230 -62.5q-92 0 -155 38t-63 116zM514 -109q0 25 12 74l365 1505q25 4 51 5q102 0 102 -78q0 -25 -12 -74l-364 -1505q-25 -4 -52 -4q-102 0 -102 77zM956 225q0 23 23 64l301 506h201v-512h108l-8 -111h-100v-172 h-181v172h-299q-23 0 -34 14.5t-11 38.5zM1106 283h194v342z" />
<glyph unicode="&#xbf;" horiz-adv-x="847" d="M4 -59q0 80 32 148.5t77 119.5t118 125q92 90 135.5 148.5t43.5 129.5q8 8 31.5 13.5t43.5 5.5q95 -1 95 -99q0 -51 -33 -100t-107 -135q-92 -104 -141 -184t-49 -172q0 -74 40 -119t122 -45q72 0 115.5 34.5t43.5 106.5q0 37 -18 100q31 23 88 23q80 0 125 -39t45 -115 q0 -129 -123 -181t-282 -52q-178 0 -290 67.5t-112 219.5zM330 954q0 63 44 97t111 34q68 0 109 -32.5t41 -94.5q0 -63 -44 -97t-112 -34t-108.5 33t-40.5 94z" />
<glyph unicode="&#xc0;" horiz-adv-x="1030" d="M0 0l375 1352h305l350 -1352h-242l-81 344h-402l-80 -344h-225zM0 0zM184 1610q0 31 15.5 58.5t42.5 45.5l436 -172l-22 -86l-246 19q-104 8 -165 34.5t-61 100.5zM342 496h330l-166 702z" />
<glyph unicode="&#xc1;" horiz-adv-x="1030" d="M0 0l375 1352h305l350 -1352h-242l-81 344h-402l-80 -344h-225zM0 0zM342 496h330l-166 702zM358 1542l435 172q27 -18 43 -46t16 -58q0 -74 -61.5 -100.5t-165.5 -34.5l-244 -19z" />
<glyph unicode="&#xc2;" horiz-adv-x="1030" d="M0 0l375 1352h305l350 -1352h-242l-81 344h-402l-80 -344h-225zM0 0zM218 1442l297 270h8l305 -270l-62 -72l-245 150l-244 -150zM342 496h330l-166 702z" />
<glyph unicode="&#xc3;" horiz-adv-x="1030" d="M0 0l375 1352h305l350 -1352h-242l-81 344h-402l-80 -344h-225zM0 0zM206 1597q0 49 35 75t90 26q57 0 177 -27q14 -2 68 -12t87 -10q76 0 109 30q26 -16 40.5 -44.5t14.5 -59.5q0 -49 -35 -74.5t-90 -25.5q-47 0 -174 24q-119 25 -158 25q-76 0 -108 -31 q-27 16 -41.5 45t-14.5 59zM342 496h330l-166 702z" />
<glyph unicode="&#xc4;" horiz-adv-x="1030" d="M0 0l375 1352h305l350 -1352h-242l-81 344h-402l-80 -344h-225zM0 0zM161 1581q0 63 44.5 97.5t111.5 34.5q68 0 110 -33t42 -94q0 -63 -44 -97t-114 -34q-68 0 -109 32.5t-41 93.5zM342 496h330l-166 702zM569 1581q0 63 44.5 97.5t111.5 34.5q68 0 110 -33t42 -94 q0 -63 -44 -97t-114 -34q-68 0 -109 32.5t-41 93.5z" />
<glyph unicode="&#xc5;" horiz-adv-x="1030" d="M0 0l375 1352h305l350 -1352h-242l-81 344h-402l-80 -344h-225zM0 0zM311 1610q0 78 57.5 122t147.5 44t148.5 -44t58.5 -122t-59.5 -125t-147.5 -47q-86 0 -145.5 47t-59.5 125zM342 496h330l-166 702zM430 1610q0 -45 21.5 -74t64.5 -29t65.5 29t22.5 74 q0 43 -22.5 69.5t-65.5 26.5q-41 0 -63.5 -26.5t-22.5 -69.5z" />
<glyph unicode="&#xc6;" horiz-adv-x="1382" d="M-94 0l616 1352h770v-152h-415v-430h354v-152h-354v-466h444l-14 -152h-672v344h-359l-143 -344h-227zM340 496h295v704z" />
<glyph unicode="&#xc7;" horiz-adv-x="1048" d="M70 670q0 328 126 525.5t406 197.5q180 0 287.5 -72t107.5 -227q0 -74 -43 -120t-116 -46q-72 0 -107 33q16 45 17 102q0 186 -164 186q-156 0 -206 -162.5t-50 -406.5t53 -390.5t223 -146.5q106 0 182 59.5t109 164.5q43 -15 61.5 -44.5t18.5 -76.5q0 -90 -55.5 -155.5 t-143.5 -99.5t-188 -36l-33 -88q18 2 57 2q104 0 166 -46t62 -138q0 -90 -80 -146.5t-189 -56.5q-76 0 -135 27.5t-59 87.5q0 33 20 51q51 -57 144 -58q57 0 95 21.5t38 66.5q0 53 -45 74t-121 21q-47 0 -86 -6l74 194q-231 31 -328.5 218.5t-97.5 490.5z" />
<glyph unicode="&#xc8;" horiz-adv-x="897" d="M123 0v1352h686v-152h-447v-430h386v-152h-386v-466h476l-15 -152h-700zM123 0zM129 1610q0 31 15.5 58.5t42.5 45.5l436 -172l-22 -86l-246 19q-104 8 -165 34.5t-61 100.5z" />
<glyph unicode="&#xc9;" horiz-adv-x="897" d="M123 0v1352h686v-152h-447v-430h386v-152h-386v-466h476l-15 -152h-700zM123 0zM309 1542l435 172q27 -18 43 -46t16 -58q0 -74 -61.5 -100.5t-165.5 -34.5l-244 -19z" />
<glyph unicode="&#xca;" horiz-adv-x="897" d="M123 0v1352h686v-152h-447v-430h386v-152h-386v-466h476l-15 -152h-700zM123 0zM168 1442l297 270h8l305 -270l-62 -72l-245 150l-244 -150z" />
<glyph unicode="&#xcb;" horiz-adv-x="897" d="M112 1581q0 63 44.5 97.5t111.5 34.5q68 0 110 -33t42 -94q0 -63 -44 -97t-114 -34q-68 0 -109 32.5t-41 93.5zM113 0zM123 0v1352h686v-152h-447v-430h386v-152h-386v-466h476l-15 -152h-700zM520 1581q0 63 44.5 97.5t111.5 34.5q68 0 110 -33t42 -94q0 -63 -44 -97 t-114 -34q-68 0 -109 32.5t-41 93.5z" />
<glyph unicode="&#xcc;" horiz-adv-x="485" d="M-95 1610q0 31 15.5 58.5t42.5 45.5l436 -172l-22 -86l-246 19q-104 8 -165 34.5t-61 100.5zM0 0zM123 0v1352h239v-1352h-239z" />
<glyph unicode="&#xcd;" horiz-adv-x="485" d="M86 0zM86 1542l435 172q27 -18 43 -46t16 -58q0 -74 -61.5 -100.5t-165.5 -34.5l-244 -19zM123 0v1352h239v-1352h-239z" />
<glyph unicode="&#xce;" horiz-adv-x="485" d="M-59 1442l297 270h8l305 -270l-62 -72l-245 150l-244 -150zM0 0zM123 0v1352h239v-1352h-239z" />
<glyph unicode="&#xcf;" horiz-adv-x="485" d="M-115 1581q0 63 44.5 97.5t111.5 34.5q68 0 110 -33t42 -94q0 -63 -44 -97t-114 -34q-68 0 -109 32.5t-41 93.5zM0 0zM123 0v1352h239v-1352h-239zM292 1581q0 63 44.5 97.5t111.5 34.5q68 0 110 -33t42 -94q0 -63 -44 -97t-114 -34q-68 0 -109 32.5t-41 93.5z" />
<glyph unicode="&#xd0;" horiz-adv-x="1175" d="M-29 684q0 88 109 88h63v571q242 16 426 17q537 0 537 -651q0 -729 -586 -729q-172 0 -377 30v598h-155q-16 27 -17 76zM383 135q74 -12 137 -12q144 0 217.5 71.5t96 189.5t22.5 296q0 238 -63.5 387.5t-237.5 149.5q-76 0 -172 -11v-434h272q16 -27 17 -76 q0 -88 -109 -88h-180v-473z" />
<glyph unicode="&#xd1;" horiz-adv-x="1163" d="M123 0v1352h182l543 -926v926h192v-1352h-182l-543 926v-926h-192zM123 0zM268 1597q0 49 35 75t90 26q57 0 177 -27q14 -2 68 -12t87 -10q76 0 109 30q26 -16 40.5 -44.5t14.5 -59.5q0 -49 -35 -74.5t-90 -25.5q-47 0 -174 24q-119 25 -158 25q-76 0 -108 -31 q-27 16 -41.5 45t-14.5 59z" />
<glyph unicode="&#xd2;" horiz-adv-x="1189" d="M70 0zM70 670q0 328 123.5 525.5t402.5 197.5q524 -1 524 -699q0 -739 -524 -739q-287 0 -406.5 190.5t-119.5 524.5zM260 1610q0 31 15.5 58.5t42.5 45.5l436 -172l-22 -86l-246 19q-104 8 -165 34.5t-61 100.5zM328 680q0 -256 51 -419t217 -163q164 0 215 163t51 419 q0 244 -53 406.5t-213 162.5q-162 0 -215 -162.5t-53 -406.5z" />
<glyph unicode="&#xd3;" horiz-adv-x="1189" d="M70 0zM70 670q0 328 123.5 525.5t402.5 197.5q524 -1 524 -699q0 -739 -524 -739q-287 0 -406.5 190.5t-119.5 524.5zM328 680q0 -256 51 -419t217 -163q164 0 215 163t51 419q0 244 -53 406.5t-213 162.5q-162 0 -215 -162.5t-53 -406.5zM440 1542l435 172 q27 -18 43 -46t16 -58q0 -74 -61.5 -100.5t-165.5 -34.5l-244 -19z" />
<glyph unicode="&#xd4;" horiz-adv-x="1189" d="M70 0zM70 670q0 328 123.5 525.5t402.5 197.5q524 -1 524 -699q0 -739 -524 -739q-287 0 -406.5 190.5t-119.5 524.5zM295 1442l297 270h8l305 -270l-62 -72l-245 150l-244 -150zM328 680q0 -256 51 -419t217 -163q164 0 215 163t51 419q0 244 -53 406.5t-213 162.5 q-162 0 -215 -162.5t-53 -406.5z" />
<glyph unicode="&#xd5;" horiz-adv-x="1189" d="M70 0zM70 670q0 328 123.5 525.5t402.5 197.5q524 -1 524 -699q0 -739 -524 -739q-287 0 -406.5 190.5t-119.5 524.5zM284 1597q0 49 35 75t90 26q57 0 177 -27q14 -2 68 -12t87 -10q76 0 109 30q26 -16 40.5 -44.5t14.5 -59.5q0 -49 -35 -74.5t-90 -25.5q-47 0 -174 24 q-119 25 -158 25q-76 0 -108 -31q-27 16 -41.5 45t-14.5 59zM328 680q0 -256 51 -419t217 -163q164 0 215 163t51 419q0 244 -53 406.5t-213 162.5q-162 0 -215 -162.5t-53 -406.5z" />
<glyph unicode="&#xd6;" horiz-adv-x="1189" d="M70 0zM70 670q0 328 123.5 525.5t402.5 197.5q524 -1 524 -699q0 -739 -524 -739q-287 0 -406.5 190.5t-119.5 524.5zM239 1581q0 63 44.5 97.5t111.5 34.5q68 0 110 -33t42 -94q0 -63 -44 -97t-114 -34q-68 0 -109 32.5t-41 93.5zM328 680q0 -256 51 -419t217 -163 q164 0 215 163t51 419q0 244 -53 406.5t-213 162.5q-162 0 -215 -162.5t-53 -406.5zM647 1581q0 63 44.5 97.5t111.5 34.5q68 0 110 -33t42 -94q0 -63 -44 -97t-114 -34q-68 0 -109 32.5t-41 93.5z" />
<glyph unicode="&#xd7;" d="M111 147l319 361l-199 197q-61 61 -61 114q0 49 35 74t88 25l258 -275l184 209q27 29 52.5 45t56.5 16q49 0 79.5 -28.5t32.5 -79.5l-274 -297l252 -250q61 -62 61 -115q0 -49 -34.5 -73.5t-88.5 -24.5l-311 328l-231 -273q-53 -61 -107 -61q-51 0 -81.5 28.5t-30.5 79.5 z" />
<glyph unicode="&#xd8;" horiz-adv-x="1189" d="M29 -23q0 29 30 72l103 144q-92 170 -92 477q0 328 123.5 525.5t402.5 197.5q213 0 340 -117l131 184q31 -6 71 -28.5t40 -57.5q0 -28 -31 -71l-113 -158q86 -170 86 -451q0 -739 -524 -739q-209 0 -334 108l-123 -172q-31 6 -70.5 29t-39.5 57zM328 680q0 -140 10 -240 l467 654q-66 156 -209 155q-162 0 -215 -162.5t-53 -406.5zM389 242q66 -143 207 -144q164 0 215 163t51 419q0 121 -10 211z" />
<glyph unicode="&#xd9;" horiz-adv-x="1120" d="M113 0zM113 494v858h239v-836q0 -135 13.5 -220t62.5 -141.5t150 -56.5q100 0 149 60.5t61.5 150.5t12.5 230v813h207v-791q0 -207 -36 -337t-132.5 -199.5t-278.5 -69.5q-176 0 -273.5 58.5t-136 175t-38.5 305.5zM241 1610q0 31 15.5 58.5t42.5 45.5l436 -172l-22 -86 l-246 19q-104 8 -165 34.5t-61 100.5z" />
<glyph unicode="&#xda;" horiz-adv-x="1120" d="M113 0zM113 494v858h239v-836q0 -135 13.5 -220t62.5 -141.5t150 -56.5q100 0 149 60.5t61.5 150.5t12.5 230v813h207v-791q0 -207 -36 -337t-132.5 -199.5t-278.5 -69.5q-176 0 -273.5 58.5t-136 175t-38.5 305.5zM421 1542l435 172q27 -18 43 -46t16 -58 q0 -74 -61.5 -100.5t-165.5 -34.5l-244 -19z" />
<glyph unicode="&#xdb;" horiz-adv-x="1120" d="M113 0zM113 494v858h239v-836q0 -135 13.5 -220t62.5 -141.5t150 -56.5q100 0 149 60.5t61.5 150.5t12.5 230v813h207v-791q0 -207 -36 -337t-132.5 -199.5t-278.5 -69.5q-176 0 -273.5 58.5t-136 175t-38.5 305.5zM279 1442l297 270h8l305 -270l-62 -72l-245 150 l-244 -150z" />
<glyph unicode="&#xdc;" horiz-adv-x="1120" d="M113 0zM113 494v858h239v-836q0 -135 13.5 -220t62.5 -141.5t150 -56.5q100 0 149 60.5t61.5 150.5t12.5 230v813h207v-791q0 -207 -36 -337t-132.5 -199.5t-278.5 -69.5q-176 0 -273.5 58.5t-136 175t-38.5 305.5zM223 1581q0 63 44.5 97.5t111.5 34.5q68 0 110 -33 t42 -94q0 -63 -44 -97t-114 -34q-68 0 -109 32.5t-41 93.5zM630 1581q0 63 44.5 97.5t111.5 34.5q68 0 110 -33t42 -94q0 -63 -44 -97t-114 -34q-68 0 -109 32.5t-41 93.5z" />
<glyph unicode="&#xdd;" horiz-adv-x="1032" d="M2 0zM2 1352h262l266 -555l252 555h246l-393 -727v-625h-240v600zM372 1542l435 172q27 -18 43 -46t16 -58q0 -74 -61.5 -100.5t-165.5 -34.5l-244 -19z" />
<glyph unicode="&#xde;" horiz-adv-x="1013" d="M123 0v1352h239v-254q98 4 146 4q233 0 359 -91t126 -298q0 -178 -104.5 -288t-280.5 -110q-66 0 -115 21.5t-49 73.5q156 0 230 71.5t74 223.5q0 129 -62.5 191t-191.5 62q-63 0 -132 -10v-948h-239z" />
<glyph unicode="&#xdf;" horiz-adv-x="1228" d="M-59 -197q115 0 158.5 92.5t43.5 241.5v987q0 189 113 270t322 81q164 0 282.5 -52.5t118.5 -175.5q0 -59 -37 -107t-108 -112q-61 -53 -92 -92t-31 -82q0 -80 54 -130t167 -112q90 -49 144 -88t93 -99t39 -146q0 -156 -111.5 -240t-283.5 -84q-150 0 -251 51t-101 170 q0 70 43 106.5t117 36.5q23 0 46 -6t38 -16q-16 -49 -17 -92q0 -68 41 -105t109 -37q76 0 115.5 40t39.5 118q0 80 -54 130t-167 112q-90 51 -144.5 90t-93 99.5t-38.5 146.5q0 59 36.5 107t108.5 112q61 53 92 92t31 82q0 90 -53.5 141t-145.5 51q-113 0 -154.5 -64.5 t-41.5 -195.5v-929q0 -481 -285 -482q-57 0 -100 22.5t-43 67.5z" />
<glyph unicode="&#xe0;" horiz-adv-x="1024" d="M76 0zM76 264q0 332 592 332v178q0 102 -31 152.5t-117 50.5q-72 0 -119 -38t-47 -105q0 -43 17 -93q-29 -23 -82 -22q-74 0 -117 37t-43 106q0 98 110.5 160.5t295.5 62.5q135 0 212.5 -39.5t111.5 -122.5t34 -223v-532q0 -100 63 -135q-16 -31 -47.5 -47.5t-72.5 -16.5 q-59 0 -98.5 34t-47.5 91q-39 -71 -113.5 -105t-168.5 -34q-141 0 -236.5 86t-95.5 223zM229 1438q0 41 28 73.5t69 42.5l352 -311l-51 -72l-225 101q-74 33 -123.5 71.5t-49.5 94.5zM322 272q0 -82 44 -131t121 -49q91 0 136 68.5t45 171.5v162q-346 0 -346 -222z" />
<glyph unicode="&#xe1;" horiz-adv-x="1024" d="M76 0zM76 264q0 332 592 332v178q0 102 -31 152.5t-117 50.5q-72 0 -119 -38t-47 -105q0 -43 17 -93q-29 -23 -82 -22q-74 0 -117 37t-43 106q0 98 110.5 160.5t295.5 62.5q135 0 212.5 -39.5t111.5 -122.5t34 -223v-532q0 -100 63 -135q-16 -31 -47.5 -47.5t-72.5 -16.5 q-59 0 -98.5 34t-47.5 91q-39 -71 -113.5 -105t-168.5 -34q-141 0 -236.5 86t-95.5 223zM322 272q0 -82 44 -131t121 -49q91 0 136 68.5t45 171.5v162q-346 0 -346 -222zM339 1243l353 311q41 -10 68.5 -42.5t27.5 -73.5q0 -55 -49 -94t-125 -72l-223 -101z" />
<glyph unicode="&#xe2;" horiz-adv-x="1024" d="M76 0zM76 264q0 332 592 332v178q0 102 -31 152.5t-117 50.5q-72 0 -119 -38t-47 -105q0 -43 17 -93q-29 -23 -82 -22q-74 0 -117 37t-43 106q0 98 110.5 160.5t295.5 62.5q135 0 212.5 -39.5t111.5 -122.5t34 -223v-532q0 -100 63 -135q-16 -31 -47.5 -47.5t-72.5 -16.5 q-59 0 -98.5 34t-47.5 91q-39 -71 -113.5 -105t-168.5 -34q-141 0 -236.5 86t-95.5 223zM204 1249l297 271h9l305 -271l-62 -71l-245 149l-244 -149zM322 272q0 -82 44 -131t121 -49q91 0 136 68.5t45 171.5v162q-346 0 -346 -222z" />
<glyph unicode="&#xe3;" horiz-adv-x="1024" d="M76 0zM76 264q0 332 592 332v178q0 102 -31 152.5t-117 50.5q-72 0 -119 -38t-47 -105q0 -43 17 -93q-29 -23 -82 -22q-74 0 -117 37t-43 106q0 98 110.5 160.5t295.5 62.5q135 0 212.5 -39.5t111.5 -122.5t34 -223v-532q0 -100 63 -135q-16 -31 -47.5 -47.5t-72.5 -16.5 q-59 0 -98.5 34t-47.5 91q-39 -71 -113.5 -105t-168.5 -34q-141 0 -236.5 86t-95.5 223zM196 1346q0 49 36 74.5t91 25.5q49 0 172 -25q119 -25 158 -24q76 0 111 30q24 -16 38.5 -44.5t14.5 -59.5q0 -49 -35 -74.5t-90 -25.5q-45 0 -172 24q-119 25 -160 25q-76 0 -108 -31 q-27 16 -41.5 45t-14.5 60zM322 272q0 -82 44 -131t121 -49q91 0 136 68.5t45 171.5v162q-346 0 -346 -222z" />
<glyph unicode="&#xe4;" horiz-adv-x="1024" d="M76 0zM76 264q0 332 592 332v178q0 102 -31 152.5t-117 50.5q-72 0 -119 -38t-47 -105q0 -43 17 -93q-29 -23 -82 -22q-74 0 -117 37t-43 106q0 98 110.5 160.5t295.5 62.5q135 0 212.5 -39.5t111.5 -122.5t34 -223v-532q0 -100 63 -135q-16 -31 -47.5 -47.5t-72.5 -16.5 q-59 0 -98.5 34t-47.5 91q-39 -71 -113.5 -105t-168.5 -34q-141 0 -236.5 86t-95.5 223zM151 1343q0 63 44.5 97.5t111.5 34.5q68 0 110 -33t42 -94q0 -63 -44 -97t-114 -34q-68 0 -109 32.5t-41 93.5zM322 272q0 -82 44 -131t121 -49q91 0 136 68.5t45 171.5v162 q-346 0 -346 -222zM559 1343q0 63 44.5 97.5t111.5 34.5q68 0 110 -33t42 -94q0 -63 -44 -97t-114 -34q-68 0 -109 32.5t-41 93.5z" />
<glyph unicode="&#xe5;" horiz-adv-x="1024" d="M76 0zM76 264q0 332 592 332v178q0 102 -31 152.5t-117 50.5q-72 0 -119 -38t-47 -105q0 -43 17 -93q-29 -23 -82 -22q-74 0 -117 37t-43 106q0 98 110.5 160.5t295.5 62.5q135 0 212.5 -39.5t111.5 -122.5t34 -223v-532q0 -100 63 -135q-16 -31 -47.5 -47.5t-72.5 -16.5 q-59 0 -98.5 34t-47.5 91q-39 -71 -113.5 -105t-168.5 -34q-141 0 -236.5 86t-95.5 223zM286 1352q0 90 62.5 141t159.5 51q96 0 158.5 -51t62.5 -141t-63.5 -144.5t-157.5 -54.5q-95 0 -158.5 54.5t-63.5 144.5zM322 272q0 -82 44 -131t121 -49q91 0 136 68.5t45 171.5v162 q-346 0 -346 -222zM405 1352q0 -57 25.5 -93t77.5 -36q51 0 76.5 35.5t25.5 93.5q0 55 -25.5 89t-76.5 34t-77 -34t-26 -89z" />
<glyph unicode="&#xe6;" horiz-adv-x="1527" d="M76 264q0 188 166 256t426 68v186q0 102 -31 152.5t-117 50.5q-72 0 -119 -38t-47 -105q0 -43 17 -93q-29 -23 -82 -22q-74 0 -117 37t-43 106q0 98 110.5 160.5t295.5 62.5q109 0 179 -25.5t113 -80.5q117 106 303 106q152 0 244 -78.5t92 -222.5q0 -176 -122.5 -244.5 t-337.5 -68.5q-59 0 -113 4q6 -166 54 -264t171 -98q90 0 159 46t107 130q48 -22 48 -88q0 -74 -49.5 -130.5t-127 -86t-157.5 -29.5q-242 0 -357 180q-35 -90 -111.5 -135t-180.5 -45q-164 0 -268.5 80t-104.5 229zM322 272q0 -82 44 -131t121 -49q90 0 135.5 68.5 t45.5 171.5v153q-158 0 -252 -45t-94 -168zM893 578l92 -5q125 0 191.5 45.5t66.5 153.5q0 84 -37 140.5t-108 56.5q-111 0 -156 -116t-49 -275z" />
<glyph unicode="&#xe7;" horiz-adv-x="913" d="M66 496q0 264 117.5 426.5t355.5 162.5q139 0 229 -57t90 -176q0 -70 -43 -106.5t-117 -36.5q-23 0 -46 6t-38 16q16 49 17 92q0 141 -123 142q-205 0 -205 -447q0 -182 46 -293.5t179 -111.5q90 0 155 48t87 136q35 -16 50.5 -37.5t15.5 -58.5q0 -74 -48.5 -130.5 t-124 -86t-155.5 -29.5h-16l-33 -88q18 2 57 2q104 0 165.5 -46t61.5 -138q0 -90 -79.5 -146.5t-188.5 -56.5q-76 0 -135 27.5t-59 87.5q0 33 20 51q51 -57 143 -58q57 0 95.5 21.5t38.5 66.5q0 53 -45.5 74t-120.5 21q-47 0 -86 -6l73 198q-170 35 -251.5 175.5 t-81.5 355.5z" />
<glyph unicode="&#xe8;" horiz-adv-x="937" d="M66 0zM66 496q0 264 117.5 426.5t357.5 162.5q152 0 244 -78.5t92 -222.5q0 -178 -124 -249.5t-337 -71.5q-59 0 -113 4q6 -162 54.5 -258t170.5 -96q90 0 159 46t108 130q47 -22 47 -88q0 -74 -49.5 -130.5t-127 -86t-157.5 -29.5q-225 0 -333.5 146.5t-108.5 394.5z M227 1438q0 41 28 73.5t69 42.5l352 -311l-51 -72l-225 101q-74 33 -123.5 71.5t-49.5 94.5zM303 569q61 -4 90 -4q258 0 258 207q0 84 -35.5 140.5t-107.5 56.5q-111 0 -156 -116t-49 -284z" />
<glyph unicode="&#xe9;" horiz-adv-x="937" d="M66 0zM66 496q0 264 117.5 426.5t357.5 162.5q152 0 244 -78.5t92 -222.5q0 -178 -124 -249.5t-337 -71.5q-59 0 -113 4q6 -162 54.5 -258t170.5 -96q90 0 159 46t108 130q47 -22 47 -88q0 -74 -49.5 -130.5t-127 -86t-157.5 -29.5q-225 0 -333.5 146.5t-108.5 394.5z M303 569q61 -4 90 -4q258 0 258 207q0 84 -35.5 140.5t-107.5 56.5q-111 0 -156 -116t-49 -284zM337 1243l353 311q41 -10 68.5 -42.5t27.5 -73.5q0 -55 -49 -94t-125 -72l-223 -101z" />
<glyph unicode="&#xea;" horiz-adv-x="937" d="M66 0zM66 496q0 264 117.5 426.5t357.5 162.5q152 0 244 -78.5t92 -222.5q0 -178 -124 -249.5t-337 -71.5q-59 0 -113 4q6 -162 54.5 -258t170.5 -96q90 0 159 46t108 130q47 -22 47 -88q0 -74 -49.5 -130.5t-127 -86t-157.5 -29.5q-225 0 -333.5 146.5t-108.5 394.5z M202 1249l297 271h9l305 -271l-62 -71l-245 149l-244 -149zM303 569q61 -4 90 -4q258 0 258 207q0 84 -35.5 140.5t-107.5 56.5q-111 0 -156 -116t-49 -284z" />
<glyph unicode="&#xeb;" horiz-adv-x="937" d="M66 0zM66 496q0 264 117.5 426.5t357.5 162.5q152 0 244 -78.5t92 -222.5q0 -178 -124 -249.5t-337 -71.5q-59 0 -113 4q6 -162 54.5 -258t170.5 -96q90 0 159 46t108 130q47 -22 47 -88q0 -74 -49.5 -130.5t-127 -86t-157.5 -29.5q-225 0 -333.5 146.5t-108.5 394.5z M149 1343q0 63 44.5 97.5t111.5 34.5q68 0 110 -33t42 -94q0 -63 -44 -97t-114 -34q-68 0 -109 32.5t-41 93.5zM303 569q61 -4 90 -4q258 0 258 207q0 84 -35.5 140.5t-107.5 56.5q-111 0 -156 -116t-49 -284zM557 1343q0 63 44.5 97.5t111.5 34.5q68 0 110 -33t42 -94 q0 -63 -44 -97t-114 -34q-68 0 -109 32.5t-41 93.5z" />
<glyph unicode="&#xec;" horiz-adv-x="499" d="M-35 1438q0 41 28 73.5t69 42.5l352 -311l-51 -72l-225 101q-74 33 -123.5 71.5t-49.5 94.5zM0 0zM131 141v903h225v-876q0 -100 64 -135q-16 -31 -53 -47.5t-80 -16.5q-78 0 -117 45t-39 127z" />
<glyph unicode="&#xed;" horiz-adv-x="499" d="M75 1243l353 311q41 -10 68.5 -42.5t27.5 -73.5q0 -55 -49 -94t-125 -72l-223 -101zM76 0zM131 141v903h225v-876q0 -100 64 -135q-16 -31 -53 -47.5t-80 -16.5q-78 0 -117 45t-39 127z" />
<glyph unicode="&#xee;" horiz-adv-x="499" d="M-60 1249l297 271h9l305 -271l-62 -71l-245 149l-244 -149zM0 0zM131 141v903h225v-876q0 -100 64 -135q-16 -31 -53 -47.5t-80 -16.5q-78 0 -117 45t-39 127z" />
<glyph unicode="&#xef;" horiz-adv-x="499" d="M-113 1343q0 63 44.5 97.5t111.5 34.5q68 0 110 -33t42 -94q0 -63 -44 -97t-114 -34q-68 0 -109 32.5t-41 93.5zM0 0zM131 141v903h225v-876q0 -100 64 -135q-16 -31 -53 -47.5t-80 -16.5q-78 0 -117 45t-39 127zM294 1343q0 63 44.5 97.5t111.5 34.5q68 0 110 -33 t42 -94q0 -63 -44 -97t-114 -34q-68 0 -109 32.5t-41 93.5z" />
<glyph unicode="&#xf0;" horiz-adv-x="1089" d="M66 465q0 246 118.5 395.5t343.5 149.5q92 0 172 -27q-10 98 -32 166l-191 -70q-12 12 -23.5 34t-11.5 40q-4 41 60 64l104 38q-66 72 -170 72q-29 0 -59.5 -8t-50.5 -23q-20 23 -21 66q0 53 49 83t129 30q195 0 318 -150l178 64q14 -12 25.5 -34t11.5 -40 q0 -20 -16.5 -35.5t-55.5 -30.5l-76 -28q61 -115 90 -265.5t29 -310.5q0 -303 -106.5 -494.5t-354.5 -191.5q-143 0 -247.5 64.5t-158.5 179t-54 262.5zM324 479q0 -158 46 -277.5t156 -119.5q203 -1 203 534q0 86 -3 129t-7 80q-88 61 -191 62q-127 0 -165.5 -122 t-38.5 -286z" />
<glyph unicode="&#xf1;" horiz-adv-x="1081" d="M135 0v1044l189 25l10 -184q39 98 120 149t189 51q172 0 239.5 -95t67.5 -290v-532q0 -100 64 -135q-16 -31 -53 -47.5t-78 -16.5q-80 0 -119 45t-39 127v531q0 129 -28.5 192.5t-127.5 63.5q-125 0 -167 -110.5t-42 -285.5v-532h-225zM135 0zM270 1346q0 49 36 74.5 t91 25.5q49 0 172 -25q119 -25 158 -24q76 0 111 30q24 -16 38.5 -44.5t14.5 -59.5q0 -49 -35 -74.5t-90 -25.5q-45 0 -172 24q-119 25 -160 25q-76 0 -108 -31q-27 16 -41.5 45t-14.5 60z" />
<glyph unicode="&#xf2;" horiz-adv-x="1030" d="M66 0zM66 516q0 254 110.5 411.5t337.5 157.5q229 0 340 -148.5t111 -399.5q0 -268 -106.5 -425t-344.5 -157q-233 0 -340.5 149.5t-107.5 411.5zM235 1438q0 41 28 73.5t69 42.5l352 -311l-51 -72l-225 101q-74 33 -123.5 71.5t-49.5 94.5zM311 526q0 -199 38 -323.5 t165 -124.5t166 125t39 323q0 182 -42 309.5t-163 127.5q-203 0 -203 -437z" />
<glyph unicode="&#xf3;" horiz-adv-x="1030" d="M66 0zM66 516q0 254 110.5 411.5t337.5 157.5q229 0 340 -148.5t111 -399.5q0 -268 -106.5 -425t-344.5 -157q-233 0 -340.5 149.5t-107.5 411.5zM311 526q0 -199 38 -323.5t165 -124.5t166 125t39 323q0 182 -42 309.5t-163 127.5q-203 0 -203 -437zM346 1243l353 311 q41 -10 68.5 -42.5t27.5 -73.5q0 -55 -49 -94t-125 -72l-223 -101z" />
<glyph unicode="&#xf4;" horiz-adv-x="1030" d="M66 0zM66 516q0 254 110.5 411.5t337.5 157.5q229 0 340 -148.5t111 -399.5q0 -268 -106.5 -425t-344.5 -157q-233 0 -340.5 149.5t-107.5 411.5zM210 1249l297 271h9l305 -271l-62 -71l-245 149l-244 -149zM311 526q0 -199 38 -323.5t165 -124.5t166 125t39 323 q0 182 -42 309.5t-163 127.5q-203 0 -203 -437z" />
<glyph unicode="&#xf5;" horiz-adv-x="1030" d="M66 0zM66 516q0 254 110.5 411.5t337.5 157.5q229 0 340 -148.5t111 -399.5q0 -268 -106.5 -425t-344.5 -157q-233 0 -340.5 149.5t-107.5 411.5zM202 1346q0 49 36 74.5t91 25.5q49 0 172 -25q119 -25 158 -24q76 0 111 30q24 -16 38.5 -44.5t14.5 -59.5 q0 -49 -35 -74.5t-90 -25.5q-45 0 -172 24q-119 25 -160 25q-76 0 -108 -31q-27 16 -41.5 45t-14.5 60zM311 526q0 -199 38 -323.5t165 -124.5t166 125t39 323q0 182 -42 309.5t-163 127.5q-203 0 -203 -437z" />
<glyph unicode="&#xf6;" horiz-adv-x="1030" d="M66 0zM66 516q0 254 110.5 411.5t337.5 157.5q229 0 340 -148.5t111 -399.5q0 -268 -106.5 -425t-344.5 -157q-233 0 -340.5 149.5t-107.5 411.5zM157 1343q0 63 44.5 97.5t111.5 34.5q68 0 110 -33t42 -94q0 -63 -44 -97t-114 -34q-68 0 -109 32.5t-41 93.5zM311 526 q0 -199 38 -323.5t165 -124.5t166 125t39 323q0 182 -42 309.5t-163 127.5q-203 0 -203 -437zM565 1343q0 63 44.5 97.5t111.5 34.5q68 0 110 -33t42 -94q0 -63 -44 -97t-114 -34q-68 0 -109 32.5t-41 93.5z" />
<glyph unicode="&#xf7;" d="M129 477q0 47 26.5 75t73.5 28h729q18 -41 19 -72q0 -47 -26.5 -74.5t-73.5 -27.5h-730q-18 40 -18 71zM424 172q0 51 39 82t98 31t94 -29t35 -80t-37 -79.5t-98 -28.5q-59 0 -95 27.5t-36 76.5zM424 805q0 51 39 82t98 31t94 -29t35 -80t-37 -80t-98 -29q-59 0 -95 28 t-36 77z" />
<glyph unicode="&#xf8;" horiz-adv-x="1030" d="M49 -23q0 29 31 72l67 94q-82 137 -81 373q0 254 110.5 411.5t337.5 157.5q156 0 256 -69l133 186q31 -6 71 -28.5t40 -57.5q0 -29 -31 -72l-102 -145q84 -137 84 -362q0 -268 -106.5 -425t-344.5 -157q-158 0 -258 70l-94 -134q-33 6 -73 29t-40 57zM311 526 q0 -96 4 -147l349 487q-51 96 -150 97q-203 0 -203 -437zM362 174q51 -96 152 -96q127 0 166 125t39 323q0 70 -6 140z" />
<glyph unicode="&#xf9;" horiz-adv-x="1089" d="M131 0zM131 483v561h225v-550q0 -125 9.5 -206t50.5 -138.5t125 -57.5q90 0 135 68.5t45 171.5v712h225v-876q0 -100 64 -135q-16 -31 -48 -47.5t-73 -16.5q-59 0 -98 34t-48 91q-33 -68 -105.5 -103.5t-156.5 -35.5q-147 0 -224 64.5t-101.5 176t-24.5 287.5zM262 1438 q0 41 28 73.5t69 42.5l352 -311l-51 -72l-225 101q-74 33 -123.5 71.5t-49.5 94.5z" />
<glyph unicode="&#xfa;" horiz-adv-x="1089" d="M131 0zM131 483v561h225v-550q0 -125 9.5 -206t50.5 -138.5t125 -57.5q90 0 135 68.5t45 171.5v712h225v-876q0 -100 64 -135q-16 -31 -48 -47.5t-73 -16.5q-59 0 -98 34t-48 91q-33 -68 -105.5 -103.5t-156.5 -35.5q-147 0 -224 64.5t-101.5 176t-24.5 287.5zM372 1243 l353 311q41 -10 68.5 -42.5t27.5 -73.5q0 -55 -49 -94t-125 -72l-223 -101z" />
<glyph unicode="&#xfb;" horiz-adv-x="1089" d="M131 0zM131 483v561h225v-550q0 -125 9.5 -206t50.5 -138.5t125 -57.5q90 0 135 68.5t45 171.5v712h225v-876q0 -100 64 -135q-16 -31 -48 -47.5t-73 -16.5q-59 0 -98 34t-48 91q-33 -68 -105.5 -103.5t-156.5 -35.5q-147 0 -224 64.5t-101.5 176t-24.5 287.5zM237 1249 l297 271h9l305 -271l-62 -71l-245 149l-244 -149z" />
<glyph unicode="&#xfc;" horiz-adv-x="1089" d="M131 0zM131 483v561h225v-550q0 -125 9.5 -206t50.5 -138.5t125 -57.5q90 0 135 68.5t45 171.5v712h225v-876q0 -100 64 -135q-16 -31 -48 -47.5t-73 -16.5q-59 0 -98 34t-48 91q-33 -68 -105.5 -103.5t-156.5 -35.5q-147 0 -224 64.5t-101.5 176t-24.5 287.5zM184 1343 q0 63 44.5 97.5t111.5 34.5q68 0 110 -33t42 -94q0 -63 -44 -97t-114 -34q-68 0 -109 32.5t-41 93.5zM591 1343q0 63 44.5 97.5t111.5 34.5q68 0 110 -33t42 -94q0 -63 -44 -97t-114 -34q-68 0 -109 32.5t-41 93.5z" />
<glyph unicode="&#xfd;" horiz-adv-x="866" d="M16 0zM16 1044h234l194 -808l209 808h213l-465 -1439l-225 26l203 467h-103zM278 1243l353 311q41 -10 68.5 -42.5t27.5 -73.5q0 -55 -49 -94t-125 -72l-223 -101z" />
<glyph unicode="&#xfe;" horiz-adv-x="1071" d="M143 -395v1829l226 24v-231q0 -223 -21 -328q86 186 301 186q193 0 275 -154.5t82 -393.5q0 -262 -113 -422t-346 -160q-98 0 -178 27v-353zM369 141q94 -63 188 -63q125 0 164 127t39 321q0 182 -35 292t-156 110q-106 0 -153 -85t-47 -214v-488z" />
<glyph unicode="&#xff;" horiz-adv-x="866" d="M16 0zM16 1044h234l194 -808l209 808h213l-465 -1439l-225 26l203 467h-103zM90 1343q0 63 44.5 97.5t111.5 34.5q68 0 110 -33t42 -94q0 -63 -44 -97t-114 -34q-68 0 -109 32.5t-41 93.5zM497 1343q0 63 44.5 97.5t111.5 34.5q68 0 110 -33t42 -94q0 -63 -44 -97 t-114 -34q-68 0 -109 32.5t-41 93.5z" />
<glyph unicode="&#x152;" horiz-adv-x="1552" d="M70 670q0 328 123.5 525.5t402.5 197.5q127 0 221 -41h645v-152h-405v-430h344v-152h-344v-466h434l-14 -152h-654q-100 -45 -227 -45q-287 0 -406.5 190.5t-119.5 524.5zM328 680q0 -256 51 -419t217 -163q121 1 221 101v948q-102 102 -221 102q-162 0 -215 -162.5 t-53 -406.5z" />
<glyph unicode="&#x153;" horiz-adv-x="1591" d="M66 516q0 254 110.5 411.5t337.5 157.5q219 0 338 -145q125 145 342 145q152 0 244 -78.5t92 -222.5q0 -178 -124 -249.5t-337 -71.5q-59 0 -113 4q6 -162 54.5 -258t171.5 -96q90 0 158.5 46t107.5 130q47 -22 47 -88q0 -74 -49 -130.5t-127 -86t-158 -29.5 q-209 0 -321 133q-113 -133 -326 -133q-233 0 -340.5 149.5t-107.5 411.5zM311 526q0 -199 38 -323.5t165 -124.5q123 0 163 116.5t42 301.5v30q0 183 -42 310t-163 127q-203 0 -203 -437zM956 571q49 -6 91 -6q260 0 260 207q0 84 -37 140.5t-109 56.5q-110 0 -155 -116 t-50 -282z" />
<glyph unicode="&#x178;" horiz-adv-x="1032" d="M2 0zM2 1352h262l266 -555l252 555h246l-393 -727v-625h-240v600zM170 1581q0 63 44.5 97.5t111.5 34.5q68 0 110 -33t42 -94q0 -63 -44 -97t-114 -34q-68 0 -109 32.5t-41 93.5zM577 1581q0 63 44.5 97.5t111.5 34.5q68 0 110 -33t42 -94q0 -63 -44 -97t-114 -34 q-68 0 -109 32.5t-41 93.5z" />
<glyph unicode="&#x2c6;" horiz-adv-x="651" d="M20 1249l297 271h9l305 -271l-62 -71l-245 149l-244 -149z" />
<glyph unicode="&#x2dc;" horiz-adv-x="663" d="M20 1346q0 49 36 74.5t91 25.5q49 0 172 -25q119 -25 158 -24q76 0 111 30q24 -16 38.5 -44.5t14.5 -59.5q0 -49 -35 -74.5t-90 -25.5q-45 0 -172 24q-119 25 -160 25q-76 0 -108 -31q-27 16 -41.5 45t-14.5 60z" />
<glyph unicode="&#x2000;" horiz-adv-x="888" />
<glyph unicode="&#x2001;" horiz-adv-x="1776" />
<glyph unicode="&#x2002;" horiz-adv-x="888" />
<glyph unicode="&#x2003;" horiz-adv-x="1776" />
<glyph unicode="&#x2004;" horiz-adv-x="592" />
<glyph unicode="&#x2005;" horiz-adv-x="444" />
<glyph unicode="&#x2006;" horiz-adv-x="296" />
<glyph unicode="&#x2007;" horiz-adv-x="296" />
<glyph unicode="&#x2008;" horiz-adv-x="222" />
<glyph unicode="&#x2009;" horiz-adv-x="355" />
<glyph unicode="&#x200a;" horiz-adv-x="98" />
<glyph unicode="&#x2010;" horiz-adv-x="841" d="M98 475q0 94 117 100l506 17q10 -16 16 -40t6 -42q0 -49 -30.5 -72.5t-87.5 -27.5l-504 -17q-23 31 -23 82z" />
<glyph unicode="&#x2011;" horiz-adv-x="841" d="M98 475q0 94 117 100l506 17q10 -16 16 -40t6 -42q0 -49 -30.5 -72.5t-87.5 -27.5l-504 -17q-23 31 -23 82z" />
<glyph unicode="&#x2012;" horiz-adv-x="841" d="M98 475q0 94 117 100l506 17q10 -16 16 -40t6 -42q0 -49 -30.5 -72.5t-87.5 -27.5l-504 -17q-23 31 -23 82z" />
<glyph unicode="&#x2013;" horiz-adv-x="905" d="M14 485q0 96 119 97h739q18 -33 19 -82q0 -96 -121 -97h-737q-19 29 -19 82z" />
<glyph unicode="&#x2014;" horiz-adv-x="1777" d="M14 485q0 96 119 97h1612q18 -33 18 -82q0 -51 -31.5 -74t-91.5 -23h-1607q-19 29 -19 82z" />
<glyph unicode="&#x2018;" horiz-adv-x="477" d="M88 1182q0 66 31 129t84 103t116 40q43 0 78 -14q-76 -113 -75 -250q0 -45 10 -81t33 -77q-47 -27 -115 -26q-80 0 -121 46t-41 130z" />
<glyph unicode="&#x2019;" horiz-adv-x="475" d="M80 1020q76 113 76 250q0 45 -10.5 80.5t-32.5 76.5q47 27 114 27q80 0 121 -46t41 -130q0 -66 -30.5 -129.5t-84 -103t-116.5 -39.5q-43 0 -78 14z" />
<glyph unicode="&#x201a;" horiz-adv-x="475" d="M80 -233q76 113 76 249q0 45 -10.5 81t-32.5 77q47 27 114 27q80 0 121 -46t41 -130q0 -66 -30.5 -129.5t-84 -103.5t-116.5 -40q-43 0 -78 15z" />
<glyph unicode="&#x201c;" horiz-adv-x="864" d="M86 1182q0 66 30.5 129t84 103t116.5 40q43 0 78 -14q-76 -113 -76 -250q0 -45 10.5 -81t32.5 -77q-47 -27 -114 -26q-80 0 -121 46t-41 130zM473 1182q0 66 32 129t85 103t117 40q43 0 77 -14q-76 -113 -75 -250q0 -45 10 -81t33 -77q-47 -27 -115 -26q-82 0 -123 46 t-41 130z" />
<glyph unicode="&#x201d;" horiz-adv-x="864" d="M80 1020q76 113 76 250q0 45 -10.5 80.5t-32.5 76.5q47 27 114 27q80 0 121 -46t41 -130q0 -66 -30.5 -129.5t-84 -103t-116.5 -39.5q-43 0 -78 14zM467 1020q76 113 76 250q0 45 -10.5 80.5t-32.5 76.5q47 27 114 27q82 0 123 -46t41 -130q0 -66 -30.5 -129.5t-85 -103 t-117.5 -39.5q-43 0 -78 14z" />
<glyph unicode="&#x201e;" horiz-adv-x="864" d="M80 -233q76 113 76 249q0 45 -10.5 81t-32.5 77q47 27 114 27q80 0 121 -46t41 -130q0 -66 -30.5 -129.5t-84 -103.5t-116.5 -40q-43 0 -78 15zM467 -233q76 113 76 249q0 45 -10.5 81t-32.5 77q47 27 114 27q82 0 123 -46t41 -130q0 -66 -30.5 -129.5t-85 -103.5 t-117.5 -40q-43 0 -78 15z" />
<glyph unicode="&#x2022;" horiz-adv-x="518" d="M23 526q0 80 56 123t144 43q84 0 136.5 -42t52.5 -120q0 -80 -55.5 -122.5t-141.5 -42.5q-88 0 -140 42t-52 119z" />
<glyph unicode="&#x2026;" horiz-adv-x="1374" d="M92 0zM92 86q0 63 44 97t112 34q67 0 108 -32.5t41 -94.5q0 -63 -44 -97t-111 -34q-68 0 -109 33t-41 94zM553 86q0 63 44 97t112 34q67 0 108 -32.5t41 -94.5q0 -63 -44 -97t-111 -34q-68 0 -109 33t-41 94zM999 86q0 63 44 97t112 34q67 0 108 -32.5t41 -94.5 q0 -63 -44 -97t-111 -34q-68 0 -109 33t-41 94z" />
<glyph unicode="&#x202f;" horiz-adv-x="355" />
<glyph unicode="&#x2039;" horiz-adv-x="593" d="M78 649l246 393h192l-166 -393l166 -391h-194z" />
<glyph unicode="&#x203a;" horiz-adv-x="593" d="M78 258l166 391l-166 393h192l246 -393l-244 -391h-194z" />
<glyph unicode="&#x205f;" horiz-adv-x="444" />
<glyph unicode="&#x20ac;" d="M-4 498q0 70 86 69h68q-2 23 -3 66q0 53 3 80h-142q-12 25 -12 59q0 70 86 70h84q39 221 164 365.5t362 144.5q172 0 279.5 -59.5t107.5 -190.5q0 -74 -43 -120t-116 -46q-72 0 -107 33q16 45 16 102q0 74 -38.5 105.5t-116.5 31.5q-233 0 -264 -366h436q12 -25 12 -60 q0 -70 -86 -69h-369v-68q0 -51 3 -78h440q12 -25 12 -59q0 -70 -86 -70h-354q51 -295 282 -295q115 0 182.5 52.5t108.5 171.5q43 -15 61.5 -44.5t18.5 -76.5q0 -92 -56.5 -157.5t-146.5 -99.5t-190 -34q-444 0 -518 483h-152q-12 25 -12 60z" />
<glyph unicode="&#x2122;" horiz-adv-x="1474" d="M14 1241v111h531l-8 -111h-172v-633h-175v633h-176zM553 608l72 744h227l117 -525l114 525h224l71 -744h-168l-49 588l-139 -588h-150l-135 590l-49 -590h-135z" />
<glyph unicode="&#x25fc;" horiz-adv-x="1044" d="M0 0v1044h1044v-1044h-1044z" />
</font>
</defs>
</svg>
